# Blender v2.79 (sub 0) OBJ File: 'PolyBeach_v1.1_.blend'
# www.blender.org
mtllib sand01_m.mtl
o sand_01_Circle
v 0.315132 0.000000 -0.794856
v -0.256377 0.000000 -0.976763
v -0.866025 0.000000 -0.500000
v -1.000000 0.000000 0.000000
v -0.696228 0.000000 0.684563
v 0.061070 0.000000 0.895555
v 0.679190 0.000000 0.483225
v -0.236279 0.140985 0.351378
v 0.324925 0.140985 0.223103
v 0.268804 0.140985 -0.253657
v -0.172141 0.140985 -0.522497
v 0.777441 0.000000 -0.241982
v -0.516881 0.140985 -0.145688
v -0.074089 0.230703 -0.058612
vt 0.106657 0.926292
vt 0.096965 0.937287
vt 0.092593 0.923422
vt 0.095879 0.909901
vt 0.059575 0.905580
vt 0.071564 0.909982
vt 0.059575 0.926419
vt 0.074886 0.891906
vt 0.095048 0.893956
vt 0.108180 0.904610
vt 0.077100 0.924647
vt 0.076269 0.940794
vt 0.083162 0.903969
vt 0.083935 0.914720
vn -0.2443 0.9564 -0.1601
vn -0.2626 0.9643 0.0348
vn -0.2285 0.9731 -0.0278
vn -0.0352 0.9711 -0.2362
vn 0.2572 0.9520 0.1657
vn 0.2009 0.9715 0.1253
vn 0.0395 0.9643 0.2618
vn 0.2893 0.9537 -0.0815
vn 0.1682 0.9515 -0.2576
vn -0.0519 0.9565 -0.2872
vn -0.0937 0.9756 0.1985
vn -0.1681 0.9695 0.1781
vn 0.2174 0.9654 -0.1442
vn 0.0007 1.0000 0.0004
usemtl polybeach_atlas01
s 1
f 3/1/1 4/2/2 13/3/3
f 3/1/1 13/3/3 11/4/4
f 7/5/5 9/6/6 6/7/7
f 9/6/6 7/5/5 12/8/8
f 1/9/9 2/10/10 11/4/4
f 8/11/11 13/3/3 4/2/2
f 6/7/7 8/11/11 5/12/12
f 9/6/6 8/11/11 6/7/7
f 10/13/13 12/8/8 1/9/9
f 11/4/4 13/3/3 14/14/14
f 13/3/3 8/11/11 14/14/14
f 8/11/11 9/6/6 14/14/14
f 9/6/6 10/13/13 14/14/14
f 10/13/13 11/4/4 14/14/14
f 10/13/13 9/6/6 12/8/8
f 11/4/4 10/13/13 1/9/9
f 2/10/10 3/1/1 11/4/4
f 5/12/12 8/11/11 4/2/2
