# Blender v2.79 (sub 0) OBJ File: 'PolyBeach_v1.1_.blend'
# www.blender.org
o beachtoy_01B_Cylinder.083
v -0.000000 0.119382 -0.076611
v 0.045031 0.119382 -0.061980
v 0.072862 0.119382 -0.023674
v 0.072862 0.119382 0.023674
v 0.045031 0.119382 0.061980
v -0.000000 0.119382 0.076611
v -0.045031 0.119382 0.061980
v -0.072862 0.119382 0.023674
v -0.072862 0.119382 -0.023674
v -0.045031 0.119382 -0.061980
v -0.000000 0.133991 -0.075069
v 0.044124 0.133991 -0.060732
v 0.071394 0.133991 -0.023197
v 0.071394 0.133991 0.023197
v 0.044124 0.133991 0.060732
v -0.000000 0.133991 0.075069
v -0.044124 0.133991 0.060732
v -0.071394 0.133991 0.023197
v -0.071394 0.133991 -0.023197
v -0.044124 0.133991 -0.060732
v 0.052790 0.124048 -0.072659
v -0.000000 0.124048 -0.089812
v 0.085416 0.124048 -0.027753
v 0.085416 0.124048 0.027753
v 0.052790 0.124048 0.072659
v -0.000000 0.124048 0.089812
v -0.052790 0.124048 0.072659
v -0.085416 0.124048 0.027753
v -0.085416 0.124048 -0.027753
v -0.052790 0.124048 -0.072659
v 0.052790 0.136729 -0.072659
v -0.000000 0.136729 -0.089812
v 0.085416 0.136729 -0.027753
v 0.085416 0.136729 0.027753
v 0.052790 0.136729 0.072659
v -0.000000 0.136729 0.089812
v -0.052790 0.136729 0.072659
v -0.085416 0.136729 0.027753
v -0.085416 0.136729 -0.027753
v -0.052790 0.136729 -0.072659
v -0.000000 0.017204 -0.046935
v 0.027588 0.017204 -0.037971
v 0.044638 0.017204 -0.014504
v 0.044638 0.017204 0.014504
v 0.027588 0.017204 0.037971
v -0.000000 0.017204 0.046935
v -0.027588 0.017204 0.037971
v -0.044638 0.017204 0.014504
v -0.044638 0.017204 -0.014504
v -0.027588 0.017204 -0.037971
v -0.032907 0.000000 -0.045292
v -0.053244 0.000000 -0.017300
v -0.053244 0.000000 0.017300
v -0.032907 0.000000 0.045292
v -0.000000 0.000000 0.055984
v 0.032907 0.000000 0.045292
v 0.053244 0.000000 0.017300
v 0.053244 0.000000 -0.017300
v 0.032907 0.000000 -0.045292
v -0.000000 0.000000 -0.055984
v -0.000000 0.007496 0.062342
v 0.059291 0.007496 -0.019265
v -0.036644 0.007496 -0.050436
v -0.036644 0.007496 0.050436
v 0.036644 0.007496 0.050436
v 0.059291 0.007496 0.019265
v 0.036644 0.007496 -0.050436
v -0.000000 0.007496 -0.062342
v -0.059291 0.007496 -0.019265
v -0.059291 0.007496 0.019265
vt 0.152186 0.444944
vt 0.149023 0.444944
vt 0.149023 0.444099
vt 0.152186 0.444099
vt 0.141704 0.442429
vt 0.145861 0.442429
vt 0.145861 0.443334
vt 0.141704 0.443334
vt 0.149023 0.442429
vt 0.152186 0.442429
vt 0.152186 0.443334
vt 0.149023 0.443334
vt 0.172154 0.442429
vt 0.175316 0.442429
vt 0.175316 0.443334
vt 0.172154 0.443334
vt 0.175316 0.444944
vt 0.172154 0.444944
vt 0.172154 0.444099
vt 0.175316 0.444099
vt 0.158510 0.444944
vt 0.155348 0.444944
vt 0.155348 0.444099
vt 0.158510 0.444099
vt 0.168991 0.442429
vt 0.168991 0.443334
vt 0.165829 0.444944
vt 0.162667 0.444944
vt 0.162667 0.444099
vt 0.165829 0.444099
vt 0.165829 0.442429
vt 0.165829 0.443334
vt 0.168991 0.444099
vt 0.162667 0.443334
vt 0.158510 0.443334
vt 0.155348 0.443334
vt 0.145861 0.444099
vt 0.141704 0.444099
vt 0.168991 0.444944
vt 0.155348 0.442429
vt 0.158510 0.442429
vt 0.145861 0.444944
vt 0.141704 0.444944
vt 0.162667 0.442429
vt 0.153549 0.411593
vt 0.151386 0.411593
vt 0.151386 0.402637
vt 0.153549 0.402637
vt 0.147061 0.411593
vt 0.144898 0.411593
vt 0.144898 0.402637
vt 0.147061 0.402637
vt 0.162881 0.411593
vt 0.160718 0.411593
vt 0.160718 0.402637
vt 0.162881 0.402637
vt 0.156392 0.411593
vt 0.156392 0.402637
vt 0.149223 0.411593
vt 0.149223 0.402637
vt 0.165043 0.411593
vt 0.165043 0.402637
vt 0.158555 0.411593
vt 0.158555 0.402637
vt 0.142055 0.411593
vt 0.142055 0.402637
vt 0.209099 0.411433
vt 0.207514 0.410281
vt 0.206909 0.408419
vt 0.211057 0.411433
vt 0.207515 0.406556
vt 0.212642 0.410281
vt 0.209099 0.405405
vt 0.213247 0.408419
vt 0.211057 0.405405
vt 0.212642 0.406556
vt 0.149023 0.451752
vt 0.145861 0.451752
vt 0.165829 0.451752
vt 0.162667 0.451752
vt 0.155348 0.451752
vt 0.152186 0.451752
vt 0.141704 0.451752
vt 0.168991 0.451752
vt 0.158510 0.451752
vt 0.172154 0.451752
vt 0.175316 0.451752
vt 0.196435 0.405896
vt 0.198325 0.404523
vt 0.200661 0.404523
vt 0.195713 0.408118
vt 0.202551 0.405896
vt 0.196435 0.410340
vt 0.203273 0.408118
vt 0.198325 0.411713
vt 0.202551 0.410340
vt 0.200661 0.411713
vt 0.168991 0.452346
vt 0.172154 0.452346
vt 0.145861 0.452346
vt 0.149023 0.452346
vt 0.155348 0.452346
vt 0.158510 0.452346
vt 0.165829 0.452346
vt 0.141704 0.452346
vt 0.152186 0.452346
vt 0.162667 0.452346
vt 0.175316 0.452346
vn 0.3170 -0.9428 -0.1030
vn 0.1959 -0.9428 -0.2697
vn 0.1073 0.9832 0.1477
vn -0.0000 0.9832 0.1826
vn -0.1073 0.9832 0.1477
vn -0.1736 0.9832 0.0564
vn 0.1736 0.9832 0.0564
vn -0.1959 -0.9428 -0.2697
vn -0.3170 -0.9428 -0.1030
vn 0.1959 -0.9428 0.2697
vn 0.3170 -0.9428 0.1030
vn 0.1736 0.9832 -0.0564
vn -0.1959 -0.9428 0.2697
vn -0.0000 -0.9428 0.3333
vn 0.1073 0.9832 -0.1477
vn -0.5878 0.0000 -0.8090
vn -0.9511 0.0000 -0.3090
vn -0.9511 0.0000 0.3090
vn -0.5878 0.0000 0.8090
vn 0.0000 0.0000 1.0000
vn 0.5878 0.0000 0.8090
vn 0.9511 0.0000 0.3090
vn 0.5878 0.0000 -0.8090
vn 0.0000 0.0000 -1.0000
vn 0.9511 0.0000 -0.3090
vn -0.3170 -0.9428 0.1030
vn -0.1736 0.9832 -0.0564
vn -0.1073 0.9832 -0.1477
vn 0.0000 -0.9428 -0.3333
vn 0.0000 0.9832 -0.1826
vn -0.5714 0.2342 -0.7865
vn -0.9246 0.2342 -0.3004
vn -0.5714 0.2342 0.7865
vn -0.0000 0.2342 0.9722
vn 0.9246 0.2342 0.3004
vn 0.9246 0.2342 -0.3004
vn 0.0000 0.2342 -0.9722
vn -0.9246 0.2342 0.3004
vn 0.5714 0.2342 0.7865
vn 0.5714 0.2342 -0.7865
vn 0.0000 1.0000 0.0000
vn 0.5831 -0.1265 -0.8025
vn 0.5427 -0.3840 -0.7470
vn -0.0000 -0.3840 -0.9233
vn -0.0000 -0.1265 -0.9920
vn -0.5831 -0.1265 0.8025
vn -0.5427 -0.3840 0.7470
vn -0.0000 -0.3840 0.9233
vn -0.0000 -0.1265 0.9920
vn 0.9434 -0.1265 0.3065
vn 0.8781 -0.3840 0.2853
vn 0.8781 -0.3840 -0.2853
vn 0.9434 -0.1265 -0.3065
vn -0.5831 -0.1265 -0.8025
vn -0.5427 -0.3840 -0.7470
vn -0.9434 -0.1265 0.3065
vn -0.8781 -0.3840 0.2853
vn 0.5831 -0.1265 0.8025
vn 0.5427 -0.3840 0.7470
vn -0.9434 -0.1265 -0.3065
vn -0.8781 -0.3840 -0.2853
vn -0.2847 -0.8749 -0.3919
vn -0.0000 -0.8749 -0.4844
vn 0.2847 -0.8749 -0.3919
vn -0.4607 -0.8749 -0.1497
vn 0.4607 -0.8749 -0.1497
vn -0.4607 -0.8749 0.1497
vn 0.4607 -0.8749 0.1497
vn -0.2847 -0.8749 0.3919
vn 0.2847 -0.8749 0.3919
vn -0.0000 -0.8749 0.4844
s 1
f 3/1/1 2/2/2 21/3/2 23/4/1
f 20/5/3 11/6/4 32/7/4 40/8/3
f 12/9/5 13/10/6 33/11/6 31/12/5
f 19/13/7 20/14/3 40/15/3 39/16/7
f 10/17/8 9/18/9 29/19/9 30/20/8
f 5/21/10 4/22/11 24/23/11 25/24/10
f 11/6/4 12/9/5 31/12/5 32/7/4
f 18/25/12 19/13/7 39/16/7 38/26/12
f 7/27/13 6/28/14 26/29/14 27/30/13
f 17/31/15 18/25/12 38/26/12 37/32/15
f 30/20/16 29/19/17 39/16/17 40/15/16
f 29/19/17 28/33/18 38/26/18 39/16/17
f 28/33/18 27/30/19 37/32/19 38/26/18
f 27/30/19 26/29/20 36/34/20 37/32/19
f 26/29/20 25/24/21 35/35/21 36/34/20
f 25/24/21 24/23/22 34/36/22 35/35/21
f 21/3/23 22/37/24 32/7/24 31/12/23
f 24/23/22 23/4/25 33/11/25 34/36/22
f 23/4/25 21/3/23 31/12/23 33/11/25
f 22/37/24 30/38/16 40/8/16 32/7/24
f 8/39/26 7/27/13 27/30/13 28/33/26
f 13/10/6 14/40/27 34/36/27 33/11/6
f 14/40/27 15/41/28 35/35/28 34/36/27
f 6/28/14 5/21/10 25/24/10 26/29/14
f 1/42/29 10/43/8 30/38/8 22/37/29
f 15/41/28 16/44/30 36/34/30 35/35/28
f 4/22/11 3/1/1 23/4/1 24/23/11
f 9/18/9 8/39/26 28/33/26 29/19/9
f 16/44/30 17/31/15 37/32/15 36/34/30
f 2/2/2 1/42/29 22/37/29 21/3/2
f 15/45/31 14/46/32 44/47/32 45/48/31
f 12/49/33 11/50/34 41/51/34 42/52/33
f 19/53/35 18/54/36 48/55/36 49/56/35
f 16/57/37 15/45/31 45/48/31 46/58/37
f 13/59/38 12/49/33 42/52/33 43/60/38
f 20/61/39 19/53/35 49/56/35 50/62/39
f 17/63/40 16/57/37 46/58/37 47/64/40
f 14/46/32 13/59/38 43/60/38 44/47/32
f 11/50/34 20/65/39 50/66/39 41/51/34
f 18/54/36 17/63/40 47/64/40 48/55/36
f 41/67/41 50/68/41 49/69/41 42/70/41
f 42/70/41 49/69/41 48/71/41 43/72/41
f 43/72/41 48/71/41 47/73/41 44/74/41
f 44/74/41 47/73/41 46/75/41 45/76/41
f 2/2/42 67/77/43 68/78/44 1/42/45
f 7/27/46 64/79/47 61/80/48 6/28/49
f 4/22/50 66/81/51 62/82/52 3/1/53
f 10/43/54 1/42/45 68/78/44 63/83/55
f 8/39/56 70/84/57 64/79/47 7/27/46
f 5/21/58 65/85/59 66/81/51 4/22/50
f 9/18/60 69/86/61 70/84/57 8/39/56
f 6/28/49 61/80/48 65/85/59 5/21/58
f 3/1/53 62/82/52 67/77/43 2/2/42
f 10/17/54 63/87/55 69/86/61 9/18/60
f 51/88/62 60/89/63 59/90/64 52/91/65
f 52/91/65 59/90/64 58/92/66 53/93/67
f 53/93/67 58/92/66 57/94/68 54/95/69
f 54/95/69 57/94/68 56/96/70 55/97/71
f 53/98/67 70/84/57 69/86/61 52/99/65
f 60/100/63 68/78/44 67/77/43 59/101/64
f 57/102/68 66/81/51 65/85/59 56/103/70
f 54/104/69 64/79/47 70/84/57 53/98/67
f 51/105/62 63/83/55 68/78/44 60/100/63
f 58/106/66 62/82/52 66/81/51 57/102/68
f 55/107/71 61/80/48 64/79/47 54/104/69
f 52/99/65 69/86/61 63/87/55 51/108/62
f 59/101/64 67/77/43 62/82/52 58/106/66
f 56/103/70 65/85/59 61/80/48 55/107/71
o beachtoy_01Bpart_CUBezierCircle.003
v -0.089754 0.120038 0.008038
v -0.084771 0.124237 0.011445
v -0.089754 0.128436 0.014851
v -0.094737 0.124237 0.011445
v -0.084790 0.097700 0.033293
v -0.078642 0.104908 0.035271
v -0.084790 0.108330 0.041916
v -0.090939 0.101122 0.039938
v -0.000144 0.057930 0.070273
v -0.000122 0.077644 0.068880
v -0.000144 0.080345 0.088457
v -0.000167 0.060659 0.089817
v 0.085853 0.097738 0.033246
v 0.079686 0.104923 0.035253
v 0.085853 0.108367 0.041869
v 0.092019 0.101183 0.039863
v 0.089713 0.120038 0.008038
v 0.084742 0.124237 0.011445
v 0.089713 0.128436 0.014851
v 0.094683 0.124237 0.011445
v -0.064127 0.086407 0.058076
v -0.067147 0.075874 0.057809
v -0.067147 0.088841 0.068328
v -0.070167 0.078308 0.068061
v 0.067933 0.088986 0.068388
v 0.070944 0.078253 0.068129
v 0.064922 0.086519 0.057939
v 0.067933 0.075786 0.057680
v -0.089754 0.127778 -0.001503
v -0.084771 0.131977 0.001903
v -0.089754 0.136176 0.005309
v -0.094737 0.131977 0.001903
v 0.089713 0.128613 -0.002532
v 0.084742 0.132812 0.000874
v 0.089713 0.137011 0.004280
v 0.094683 0.132812 0.000874
v -0.033835 0.063426 0.071028
v -0.031516 0.059649 0.069740
v -0.031605 0.078543 0.067771
v -0.033909 0.077028 0.069638
v -0.033835 0.078473 0.083235
v -0.031516 0.080512 0.086664
v -0.031427 0.061618 0.088634
v -0.033768 0.064853 0.084646
v 0.032141 0.059439 0.069524
v 0.034351 0.063215 0.070833
v 0.032259 0.078753 0.067511
v 0.034447 0.077217 0.069406
v 0.034351 0.078707 0.083401
v 0.032141 0.080767 0.086826
v 0.034262 0.064685 0.084853
v 0.032023 0.061452 0.088839
vt 0.177481 0.977099
vt 0.174937 0.977099
vt 0.174937 0.976282
vt 0.177481 0.976282
vt 0.177481 0.977916
vt 0.174937 0.977916
vt 0.177481 0.975465
vt 0.174937 0.975465
vt 0.174937 0.974648
vt 0.177481 0.974648
vt 0.168985 0.975465
vt 0.166641 0.975465
vt 0.166641 0.974648
vt 0.168985 0.974648
vt 0.168985 0.977099
vt 0.166641 0.977099
vt 0.166641 0.976282
vt 0.168985 0.976282
vt 0.163892 0.977099
vt 0.161041 0.977099
vt 0.161041 0.976282
vt 0.163892 0.976282
vt 0.172157 0.977099
vt 0.169325 0.977099
vt 0.169325 0.976282
vt 0.172157 0.976282
vt 0.172157 0.977916
vt 0.169325 0.977916
vt 0.172157 0.975465
vt 0.169325 0.975465
vt 0.169325 0.974648
vt 0.172157 0.974648
vt 0.163892 0.977916
vt 0.161041 0.977916
vt 0.164228 0.975465
vt 0.164228 0.974648
vt 0.163892 0.975465
vt 0.161041 0.975465
vt 0.161041 0.974648
vt 0.163892 0.974648
vt 0.158250 0.977099
vt 0.158250 0.976282
vt 0.158250 0.977916
vt 0.158250 0.975465
vt 0.158250 0.974648
vt 0.155721 0.977099
vt 0.155721 0.976282
vt 0.155721 0.977916
vt 0.155721 0.975465
vt 0.155721 0.974648
vt 0.164228 0.976282
vt 0.166641 0.977916
vt 0.164228 0.977916
vt 0.164228 0.977099
vt 0.177481 0.978733
vt 0.178398 0.977916
vt 0.178398 0.978733
vt 0.178398 0.975465
vt 0.178398 0.976282
vt 0.178398 0.977099
vt 0.179298 0.977916
vt 0.179298 0.978733
vt 0.154705 0.977916
vt 0.154705 0.977099
vt 0.155721 0.978733
vt 0.154705 0.978733
vt 0.154705 0.976282
vt 0.154705 0.975465
vt 0.153805 0.978733
vt 0.153805 0.977916
vt 0.168985 0.977916
vn -0.0378 -0.7645 -0.6434
vn -0.0893 -0.7687 -0.6334
vn -0.9500 -0.1966 0.2423
vn -0.9987 -0.0322 0.0397
vn 0.9951 0.0623 -0.0769
vn 0.9430 0.2097 -0.2585
vn -0.0378 0.7873 0.6155
vn -0.0893 0.7782 0.6216
vn -0.4268 0.6968 0.5764
vn -0.0049 0.7627 0.6467
vn -0.0047 0.6300 -0.7766
vn -0.3231 0.5962 -0.7349
vn -0.4268 -0.7077 -0.5630
vn -0.0049 -0.7901 -0.6129
vn -0.0048 -0.6300 0.7766
vn -0.4751 -0.5543 0.6833
vn 0.6496 -0.5634 -0.5104
vn 0.1461 -0.7979 -0.5848
vn 0.6888 -0.4567 0.5630
vn 0.8265 -0.3546 0.4371
vn -0.1438 -0.7993 -0.5834
vn -0.6338 -0.5730 -0.5196
vn -0.8192 -0.3613 0.4454
vn -0.6903 -0.4558 0.5618
vn 0.7248 0.4341 -0.5351
vn -0.2365 0.6121 -0.7545
vn -0.1438 0.7357 0.6619
vn -0.6338 0.6266 0.4535
vn 0.2644 0.6076 -0.7490
vn -0.7195 0.4375 -0.5393
vn 0.4301 0.6959 0.5751
vn 0.3307 0.5945 -0.7329
vn 0.6496 0.6156 0.4461
vn 0.1461 0.7367 0.6601
vn 0.0994 -0.7672 -0.6336
vn 0.9535 -0.1899 0.2340
vn -0.9471 0.2021 -0.2492
vn 0.0994 0.7782 0.6201
vn 0.0302 -0.7637 -0.6449
vn 0.9993 -0.0228 0.0281
vn -0.9966 0.0514 -0.0633
vn 0.0302 0.7885 0.6143
vn 0.4756 -0.5542 0.6831
vn 0.4301 -0.7062 -0.5623
vn 0.8133 0.3665 -0.4518
vn 0.0000 0.9975 0.0711
vn -0.8133 0.3665 -0.4518
vn 0.0000 -0.2752 -0.9614
vn -0.8133 0.3666 -0.4519
vn 0.0000 -0.2754 -0.9613
vn 0.0000 0.9974 0.0713
vn 0.8133 0.3666 -0.4519
s 1
f 71/109/72 75/110/73 78/111/74 74/112/75
f 72/113/76 76/114/77 75/110/73 71/109/72
f 73/115/78 77/116/79 76/117/77 72/118/76
f 74/112/75 78/111/74 77/116/79 73/115/78
f 112/119/80 81/120/81 80/121/82 109/122/83
f 108/123/84 79/124/85 82/125/86 113/126/87
f 113/126/87 82/125/86 81/120/81 112/119/80
f 116/127/88 98/128/89 96/129/90 121/130/91
f 92/131/92 107/132/93 114/133/94 94/134/95
f 91/135/96 110/136/97 107/132/93 92/131/92
f 93/137/98 111/138/99 110/139/97 91/140/96
f 94/134/95 114/133/94 111/138/99 93/137/98
f 118/141/100 97/142/101 98/128/89 116/127/88
f 81/120/81 120/143/102 117/144/103 80/121/82
f 119/145/104 95/146/105 97/147/101 118/148/100
f 121/130/91 96/129/90 95/146/105 119/145/104
f 98/128/89 83/149/106 86/150/107 96/129/90
f 97/142/101 84/151/108 83/149/106 98/128/89
f 95/146/105 85/152/109 84/153/108 97/147/101
f 96/129/90 86/150/107 85/152/109 95/146/105
f 83/149/106 87/154/110 90/155/111 86/150/107
f 84/151/108 88/156/112 87/154/110 83/149/106
f 85/152/109 89/157/113 88/158/112 84/153/108
f 86/150/107 90/155/111 89/157/113 85/152/109
f 78/111/74 94/134/95 93/137/98 77/116/79
f 77/116/79 93/137/98 91/140/96 76/117/77
f 76/114/77 91/135/96 92/131/92 75/110/73
f 75/110/73 92/131/92 94/134/95 78/111/74
f 82/125/86 122/159/114 120/143/102 81/120/81
f 80/160/82 117/161/103 115/162/115 79/124/85
f 79/124/85 115/162/115 122/159/114 82/125/86
f 73/163/78 72/113/76 100/164/116 101/165/117
f 74/112/75 73/115/78 101/166/117 102/167/118
f 72/113/76 71/109/72 99/168/119 100/164/116
f 71/109/72 74/112/75 102/167/118 99/168/119
f 101/165/117 100/164/116 99/169/119 102/170/118
f 87/154/110 88/156/112 104/171/120 103/172/121
f 88/156/112 89/173/113 105/174/122 104/171/120
f 89/157/113 90/155/111 106/175/123 105/176/122
f 90/155/111 87/154/110 103/172/121 106/175/123
f 105/174/122 106/177/123 103/178/121 104/171/120
f 116/127/88 121/130/91 122/159/114 115/162/115
f 110/139/97 111/138/99 112/119/80 109/122/83
f 108/123/84 113/126/87 114/133/94 107/132/93
f 115/162/115 117/161/103 118/141/100 116/127/88
f 120/143/102 122/159/114 121/130/91 119/145/104
f 107/132/93 110/136/97 109/179/83 108/123/84
f 111/138/99 114/133/94 113/126/87 112/119/80
f 117/144/103 120/143/102 119/145/104 118/148/100
f 109/179/83 80/160/82 79/124/85 108/123/84
