# Blender v2.79 (sub 0) OBJ File: 'PolyBeach_v1.1_.blend'
# www.blender.org
mtllib beachtoy02_m.mtl
o beachtoy02_Cylinder.003
v 0.000000 0.029545 -0.007285
v -0.000004 0.132154 -0.007006
v 0.012509 0.029545 -0.003830
v 0.011845 0.134273 -0.005664
v 0.012509 0.029545 0.003080
v 0.011839 0.134263 0.005662
v -0.000000 0.029545 0.006534
v -0.000004 0.132123 0.007002
v -0.012509 0.029545 0.003080
v -0.011847 0.134260 0.005662
v -0.012509 0.029545 -0.003830
v -0.011853 0.134269 -0.005664
v 0.000000 0.023834 -0.006620
v 0.034828 0.023834 -0.003498
v 0.034828 0.023834 0.002747
v -0.000000 0.023834 0.005869
v -0.034828 0.023834 0.002747
v -0.034828 0.023834 -0.003498
v 0.000000 0.011362 -0.009229
v 0.049380 0.011362 -0.004802
v 0.049380 0.011362 0.004052
v -0.000000 0.011362 -0.006512
v -0.049380 0.011362 0.004052
v -0.049380 0.011362 -0.004802
v -0.000000 -0.042192 -0.015778
v 0.041681 -0.042192 -0.005834
v 0.041681 -0.042192 0.003539
v -0.000000 -0.042192 -0.006311
v -0.041681 -0.042192 0.003539
v -0.041681 -0.042192 -0.005834
v -0.000000 -0.111897 -0.000513
v 0.022287 -0.093834 -0.004177
v 0.022287 -0.093834 0.004177
v -0.000401 -0.112231 0.008353
v -0.022287 -0.093834 0.004177
v -0.022287 -0.093834 -0.004177
v -0.000004 0.142318 -0.014045
v -0.000004 0.142318 0.014045
v -0.031668 0.144281 -0.010201
v -0.031658 0.135322 -0.005136
v -0.031658 0.135322 0.005136
v -0.031668 0.144281 0.010201
v -0.031678 0.153018 0.004960
v -0.031678 0.153018 -0.004960
v 0.031662 0.144287 -0.010201
v 0.031349 0.135330 -0.005137
v 0.031349 0.135330 0.005137
v 0.031662 0.144287 0.010201
v 0.031966 0.153023 0.004960
v 0.031966 0.153023 -0.004960
v -0.000004 0.153084 0.006493
v -0.000004 0.153084 -0.006493
vt 0.216045 0.979410
vt 0.223046 0.979532
vt 0.223178 0.980348
vt 0.216029 0.980296
vt 0.223397 0.973857
vt 0.215223 0.973771
vt 0.215236 0.973040
vt 0.223692 0.973302
vt 0.215381 0.972273
vt 0.223539 0.972189
vt 0.215221 0.971509
vt 0.223698 0.971066
vt 0.215194 0.970779
vt 0.223382 0.970525
vt 0.216060 0.978525
vt 0.223206 0.978720
vt 0.224731 0.969564
vt 0.223924 0.972190
vt 0.224668 0.974780
vt 0.224399 0.975070
vt 0.224443 0.969212
vt 0.215598 0.981789
vt 0.215646 0.979403
vt 0.215680 0.977018
vt 0.214776 0.979388
vt 0.214837 0.976031
vt 0.225718 0.969046
vt 0.225636 0.975297
vt 0.225466 0.975893
vt 0.225608 0.968472
vt 0.225421 0.972201
vt 0.214721 0.982746
vt 0.229157 0.968843
vt 0.228987 0.969426
vt 0.228850 0.972237
vt 0.228926 0.975058
vt 0.211120 0.982179
vt 0.211170 0.979326
vt 0.211219 0.976473
vt 0.229080 0.975652
vt 0.232064 0.970934
vt 0.232638 0.972256
vt 0.232040 0.973616
vt 0.232404 0.974044
vt 0.232431 0.970514
vt 0.207633 0.980789
vt 0.206395 0.979243
vt 0.207686 0.977741
vt 0.233260 0.972272
vt 0.227500 0.980281
vt 0.228243 0.981038
vt 0.228266 0.982402
vt 0.227528 0.982432
vt 0.226599 0.980272
vt 0.226809 0.982517
vt 0.229701 0.980306
vt 0.230543 0.980316
vt 0.230441 0.982457
vt 0.229732 0.982403
vt 0.228988 0.981024
vt 0.229000 0.982396
vt 0.231425 0.980330
vt 0.231128 0.982517
vt 0.208835 0.973001
vt 0.209189 0.972411
vt 0.209859 0.972411
vt 0.210212 0.973001
vt 0.209177 0.973606
vt 0.209870 0.973606
vt 0.208835 0.973015
vt 0.209177 0.972411
vt 0.209870 0.972411
vt 0.210212 0.973015
vt 0.209189 0.973605
vt 0.209859 0.973605
vt 0.229004 0.979571
vt 0.229002 0.980298
vt 0.228259 0.979540
vt 0.228229 0.980289
vt 0.228309 0.978197
vt 0.229044 0.978217
vt 0.229779 0.978203
vt 0.230490 0.978143
vt 0.226857 0.978009
vt 0.227572 0.978129
vt 0.231183 0.978096
vn 0.0000 0.0871 -0.9962
vn 0.0001 -0.2782 -0.9605
vn 0.1444 -0.6405 -0.7542
vn 0.1570 0.1131 -0.9811
vn 0.7928 0.6095 0.0002
vn 1.0000 0.0064 0.0003
vn 0.7938 0.6082 0.0002
vn 0.1573 0.1106 0.9813
vn 0.1446 -0.6415 0.7534
vn 0.0001 -0.2812 0.9597
vn 0.0000 0.0834 0.9965
vn -0.1440 -0.6412 0.7537
vn -0.1573 0.1106 0.9813
vn -0.7938 0.6081 0.0002
vn -1.0000 0.0063 0.0003
vn -0.7928 0.6095 0.0002
vn -0.1570 0.1131 -0.9811
vn -0.1438 -0.6402 -0.7546
vn -0.0921 0.2016 0.9751
vn -0.0000 -0.2199 0.9755
vn 0.4648 0.8854 0.0000
vn -0.4648 0.8854 0.0000
vn 0.0921 0.2016 -0.9751
vn 0.0000 0.1930 -0.9812
vn 0.0921 0.2016 0.9751
vn -0.0921 0.2016 -0.9751
vn 0.0000 0.1320 -0.9912
vn -0.1330 0.1079 -0.9852
vn 0.1520 -0.0600 0.9866
vn 0.9396 0.3422 0.0000
vn 0.9413 0.3375 0.0000
vn -0.9413 0.3375 0.0000
vn -0.9396 0.3422 0.0000
vn 0.0000 -0.3582 0.9336
vn -0.1520 -0.0600 0.9866
vn 0.1330 0.1079 -0.9852
vn -0.9688 -0.2480 0.0000
vn -0.9686 -0.2485 0.0000
vn 0.0001 0.0788 0.9969
vn -0.1813 0.0678 0.9811
vn 0.1503 -0.0324 -0.9881
vn 0.0000 -0.0502 -0.9987
vn -0.1503 -0.0324 -0.9881
vn 0.1819 0.0676 0.9810
vn 0.9686 -0.2485 0.0000
vn 0.9688 -0.2480 0.0000
vn 0.1291 0.1435 0.9812
vn 0.0002 0.1451 0.9894
vn 0.8038 -0.5949 -0.0002
vn 0.8194 -0.5732 -0.0002
vn -0.8206 -0.5712 -0.0146
vn -0.8051 -0.5930 -0.0161
vn -0.1277 0.1442 0.9813
vn 0.1408 -0.1588 -0.9772
vn -0.0000 -0.1604 -0.9871
vn -0.1408 -0.1588 -0.9772
vn -0.6331 -0.7735 -0.0297
vn 0.6297 -0.7768 -0.0004
vn 0.0001 -0.0342 -0.9994
vn -0.0879 -0.8838 -0.4596
vn -0.0938 0.0083 -0.9956
vn -0.0001 0.8738 -0.4862
vn -0.0315 0.8855 -0.4637
vn 0.0001 -0.0339 0.9994
vn -0.0001 0.8738 0.4862
vn -0.0315 0.8855 0.4637
vn -0.0939 0.0084 0.9955
vn -0.0879 -0.8839 0.4594
vn 0.9994 -0.0349 0.0000
vn 0.9994 -0.0348 0.0000
vn -1.0000 -0.0011 -0.0000
vn -1.0000 -0.0012 -0.0000
vn 0.0891 -0.8818 -0.4632
vn 0.0891 -0.8819 0.4630
vn 0.0935 0.0196 0.9954
vn 0.0309 0.8876 0.4595
vn 0.0309 0.8876 -0.4595
vn 0.0935 0.0195 -0.9954
usemtl polybeach_atlas01
s 1
f 1/1/1 2/2/2 4/3/3 3/4/4
f 3/5/5 4/6/6 6/7/6 5/8/7
f 5/8/8 6/7/9 8/9/10 7/10/11
f 7/10/11 8/9/10 10/11/12 9/12/13
f 9/12/14 10/11/15 12/13/15 11/14/16
f 11/15/17 12/16/18 2/2/2 1/1/1
f 7/10/11 9/12/13 17/17/19 16/18/20
f 3/5/5 5/8/7 15/19/21 14/20/21
f 9/12/14 11/14/16 18/21/22 17/17/22
f 1/1/1 3/4/4 14/22/23 13/23/24
f 5/8/8 7/10/11 16/18/20 15/19/25
f 11/15/17 1/1/1 13/23/24 18/24/26
f 18/24/26 13/23/24 19/25/27 24/26/28
f 16/18/20 17/17/19 23/27/29
f 14/20/21 15/19/21 21/28/30 20/29/31
f 17/17/22 18/21/22 24/30/32 23/27/33
f 16/18/20 22/31/34 21/28/35
f 13/23/24 14/22/23 20/32/36 19/25/27
f 23/27/33 24/30/32 30/33/37 29/34/38
f 21/28/35 22/31/34 28/35/39 27/36/40
f 19/25/27 20/32/36 26/37/41 25/38/42
f 24/26/28 19/25/27 25/38/42 30/39/43
f 22/31/34 23/27/29 29/34/44 28/35/39
f 20/29/31 21/28/30 27/36/45 26/40/46
f 28/35/39 29/34/44 35/41/47 34/42/48
f 26/40/46 27/36/45 33/43/49 32/44/50
f 29/34/38 30/33/37 36/45/51 35/41/52
f 27/36/40 28/35/39 34/42/48 33/43/53
f 25/38/42 26/37/41 32/46/54 31/47/55
f 30/39/43 25/38/42 31/47/55 36/48/56
f 31/49/57 34/42/57 35/41/52 36/45/51
f 32/44/50 33/43/49 34/42/58 31/49/58
f 37/50/59 12/51/18 40/52/60 39/53/61
f 52/54/62 37/50/59 39/53/61 44/55/63
f 38/56/64 51/57/65 43/58/66 42/59/67
f 12/51/18 10/60/12 41/61/68 40/52/60
f 51/57/65 52/62/62 44/63/63 43/58/66
f 10/60/12 38/56/64 42/59/67 41/61/68
f 45/64/69 50/65/70 49/66/70 48/67/69
f 46/68/69 45/64/69 48/67/69 47/69/69
f 39/70/71 40/71/71 41/72/71 42/73/71
f 44/74/72 39/70/71 42/73/71 43/75/72
f 6/76/9 38/56/64 8/77/10
f 37/50/59 4/78/3 2/79/2
f 8/77/10 38/56/64 10/60/12
f 37/50/59 2/79/2 12/51/18
f 46/80/73 47/81/74 6/76/9 4/78/3
f 48/82/75 49/83/76 51/57/65 38/56/64
f 50/84/77 45/85/78 37/50/59 52/54/62
f 45/85/78 46/80/73 4/78/3 37/50/59
f 47/81/74 48/82/75 38/56/64 6/76/9
f 49/83/76 50/86/77 52/62/62 51/57/65
f 22/31/34 16/18/20 23/27/29
f 15/19/25 16/18/20 21/28/35
