# Blender v2.79 (sub 0) OBJ File: 'PolyBeach_v1.1_.blend'
# www.blender.org
mtllib sandcastle_01part1_m.mtl
o sandcastle01.part1_Cylinder.007
v -0.000000 0.000000 -0.284468
v -0.244655 0.110536 -0.079493
v 0.167206 0.000000 -0.230139
v -0.244655 0.110536 0.079493
v 0.270545 0.000000 -0.087905
v -0.151206 0.106454 0.208116
v 0.270545 0.000000 0.087905
v -0.000000 0.106454 0.257246
v 0.167206 0.000000 0.230139
v 0.151205 0.106454 0.208116
v -0.000000 0.000000 0.284468
v 0.244655 0.110536 0.079493
v -0.167206 0.000000 0.230139
v 0.244655 0.105030 -0.079493
v -0.270545 0.000000 0.087905
v 0.151205 0.105030 -0.208116
v -0.270545 0.000000 -0.087905
v -0.000000 0.105030 -0.257246
v -0.167206 0.000000 -0.230139
v -0.151205 0.110536 -0.208116
v -0.014887 0.245400 -0.195496
v -0.000000 0.210061 -0.230024
v 0.126953 0.245400 -0.149409
v 0.135204 0.210061 -0.186093
v 0.175641 0.245400 -0.082396
v 0.218765 0.210061 -0.071081
v 0.175641 0.245400 0.057069
v 0.218765 0.221071 0.071081
v 0.093665 0.231086 0.169899
v 0.135204 0.212908 0.186093
v 0.014886 0.231086 0.195496
v -0.000000 0.212908 0.230024
v -0.126953 0.231086 0.149409
v -0.135205 0.212908 0.186093
v -0.175641 0.231086 0.082396
v -0.218766 0.221071 0.071081
v -0.175641 0.238794 -0.057069
v -0.218766 0.221071 -0.071081
v -0.093666 0.238794 -0.169899
v -0.135205 0.221071 -0.186093
vt 0.027307 0.936933
vt 0.032579 0.938535
vt 0.034626 0.941048
vt 0.024414 0.937962
vt 0.054460 0.922351
vt 0.054460 0.926313
vt 0.048650 0.926313
vt 0.048650 0.922351
vt 0.034720 0.946467
vt 0.021328 0.942175
vt 0.031616 0.950876
vt 0.021249 0.947526
vt 0.028568 0.951859
vt 0.023135 0.950091
vt 0.089411 0.922351
vt 0.089411 0.926313
vt 0.084136 0.926313
vt 0.084136 0.922351
vt 0.078322 0.926313
vt 0.078322 0.922351
vt 0.072512 0.926313
vt 0.072512 0.922351
vt 0.072512 0.918388
vt 0.067234 0.922351
vt 0.067234 0.918388
vt 0.067234 0.926313
vt 0.059738 0.926313
vt 0.059738 0.922351
vt 0.107996 0.922351
vt 0.107996 0.926313
vt 0.102183 0.926313
vt 0.102183 0.922351
vt 0.096907 0.926313
vt 0.096907 0.922351
vt 0.027728 0.934962
vt 0.033341 0.936579
vt 0.022485 0.936874
vt 0.019417 0.941591
vt 0.019389 0.947181
vt 0.022677 0.951672
vt 0.028022 0.953387
vt 0.033269 0.951559
vt 0.036537 0.947046
vt 0.036508 0.941413
vt 0.096907 0.918388
vt 0.089411 0.918388
vt 0.102183 0.918388
vt 0.107996 0.918388
vt 0.059738 0.918388
vt 0.054460 0.918388
vt 0.078322 0.918388
vt 0.084136 0.918388
vt 0.048650 0.918388
vn 0.2835 0.9010 -0.3283
vn -0.0307 0.9197 -0.3912
vn -0.1610 0.9351 -0.3156
vn 0.3844 0.9040 -0.1870
vn 0.9203 0.2476 -0.3030
vn 0.8234 0.5038 -0.2611
vn 0.7723 0.5835 0.2509
vn 0.9225 0.2447 0.2986
vn -0.1992 0.9789 -0.0460
vn 0.2701 0.9571 0.1047
vn -0.2152 0.9659 0.1437
vn 0.1293 0.9453 0.2994
vn -0.1598 0.9648 0.2090
vn 0.0282 0.9555 0.2937
vn -0.5676 0.2453 0.7859
vn -0.4542 0.5923 0.6655
vn -0.7388 0.6304 0.2381
vn -0.9220 0.2415 0.3026
vn -0.7388 0.6301 -0.2390
vn -0.9235 0.2391 -0.3000
vn -0.4813 0.5867 -0.6513
vn -0.5671 0.2423 -0.7872
vn -0.5689 0.2421 -0.7859
vn 0.0038 0.2476 -0.9688
vn 0.0017 0.2477 -0.9688
vn 0.0260 0.4889 -0.8719
vn 0.5043 0.4747 -0.7213
vn 0.5690 0.2509 -0.7831
vn 0.4826 0.5728 0.6626
vn 0.5676 0.2453 0.7859
vn -0.0129 0.5866 0.8097
vn 0.0000 0.2477 0.9688
vn -0.5688 0.2454 0.7850
vn 0.5688 0.2454 0.7850
vn 0.9223 0.2444 0.2992
vn 0.9209 0.2477 -0.3010
vn -0.9225 0.2413 0.3011
usemtl polybeach_atlas01
s 1
f 23/1/1 21/2/2 39/3/3 25/4/4
f 14/5/5 26/6/6 28/7/7 12/8/8
f 25/4/4 39/3/3 37/9/9 27/10/10
f 27/10/10 37/9/9 35/11/11 29/12/12
f 29/12/12 35/11/11 33/13/13 31/14/14
f 6/15/15 34/16/16 36/17/17 4/18/18
f 4/18/18 36/17/17 38/19/19 2/20/20
f 2/20/20 38/19/19 40/21/21 20/22/22
f 19/23/23 20/22/22 18/24/24 1/25/25
f 18/24/24 22/26/26 24/27/27 16/28/28
f 16/28/28 24/27/27 26/6/6 14/5/5
f 12/29/8 28/30/7 30/31/29 10/32/30
f 10/32/30 30/31/29 32/33/31 8/34/32
f 8/34/32 32/33/31 34/16/16 6/15/15
f 21/2/2 23/1/1 24/35/27 22/36/26
f 23/1/1 25/4/4 26/37/6 24/35/27
f 25/4/4 27/10/10 28/38/7 26/37/6
f 27/10/10 29/12/12 30/39/29 28/38/7
f 29/12/12 31/14/14 32/40/31 30/39/29
f 31/14/14 33/13/13 34/41/16 32/40/31
f 33/13/13 35/11/11 36/42/17 34/41/16
f 35/11/11 37/9/9 38/43/19 36/42/17
f 37/9/9 39/3/3 40/44/21 38/43/19
f 39/3/3 21/2/2 22/36/26 40/44/21
f 20/22/22 40/21/21 22/26/26 18/24/24
f 11/45/32 8/34/32 6/15/15 13/46/33
f 9/47/34 10/32/30 8/34/32 11/45/32
f 7/48/35 12/29/8 10/32/30 9/47/34
f 3/49/28 16/28/28 14/5/5 5/50/36
f 1/25/25 18/24/24 16/28/28 3/49/28
f 17/51/20 2/20/20 20/22/22 19/23/23
f 15/52/37 4/18/18 2/20/20 17/51/20
f 13/46/33 6/15/15 4/18/18 15/52/37
f 5/50/36 14/5/5 12/8/8 7/53/35
