# Blender v2.79 (sub 0) OBJ File: 'PolyBeach_v1.1_.blend'
# www.blender.org
o surfboard_b_m_Plane.036
v -0.155418 0.074761 1.018623
v 0.155162 0.074761 1.018623
v -0.038783 0.107039 1.236180
v 0.038527 0.107039 1.236180
v -0.121043 0.041404 -1.073086
v -0.188996 0.041404 -1.015775
v 0.188740 0.041404 -1.015775
v 0.120787 0.041404 -1.073086
v -0.261659 0.041404 -0.591202
v -0.300685 0.041404 -0.135132
v 0.300429 0.041404 -0.135132
v 0.261403 0.041404 -0.591202
v -0.288229 0.041403 0.256963
v -0.262591 0.048433 0.647612
v 0.262335 0.048433 0.647612
v 0.287973 0.041403 0.256963
v -0.000128 0.074761 1.018623
v -0.000128 0.110938 1.262458
v -0.000128 0.041404 -0.135132
v -0.000128 0.041404 -0.591202
v -0.000128 0.048868 0.647569
v -0.000128 0.041403 0.256963
v -0.000128 0.041404 -1.073086
v -0.000128 0.041404 -1.015775
v -0.155418 -0.000688 1.029817
v 0.155162 -0.000688 1.029817
v -0.038783 0.031591 1.247374
v 0.038527 0.031591 1.247374
v -0.121043 -0.034870 -1.073086
v -0.188996 -0.034870 -1.015775
v 0.188740 -0.034870 -1.015775
v 0.120787 -0.034870 -1.073086
v -0.261659 -0.034870 -0.591202
v -0.300685 -0.034871 -0.135132
v 0.300429 -0.034871 -0.135132
v 0.261403 -0.034870 -0.591202
v -0.288229 -0.034871 0.256963
v -0.262591 -0.028109 0.650386
v 0.262335 -0.028109 0.650386
v 0.287973 -0.034871 0.256963
v -0.000128 -0.000688 1.029817
v -0.000128 0.035489 1.273652
v -0.000128 -0.034871 -0.135132
v -0.000128 -0.034870 -0.591202
v -0.000128 -0.027663 0.650518
v -0.000128 -0.034871 0.256963
v -0.000128 -0.034870 -1.073086
v -0.000128 -0.034870 -1.015775
v -0.039828 0.071958 1.259596
v -0.000128 0.075963 1.286586
v -0.268733 0.003267 -0.608875
v -0.308815 0.003267 -0.140468
v -0.159618 0.040850 1.049922
v -0.296022 0.003266 0.262232
v -0.000128 0.003267 -1.092424
v -0.124314 0.003267 -1.081492
v 0.039573 0.071958 1.259596
v 0.159363 0.040850 1.049922
v 0.295766 0.003266 0.262232
v 0.308559 0.003267 -0.140468
v -0.194105 0.003267 -1.033563
v -0.269691 0.011497 0.667746
v 0.268477 0.003267 -0.608875
v 0.193849 0.003267 -1.033563
v 0.124058 0.003267 -1.081492
v 0.269435 0.011497 0.667746
v -0.000128 0.031591 1.247374
v -0.000128 0.107039 1.236180
v -0.023790 -0.030571 -0.704657
v -0.023790 -0.030570 -0.966721
v 0.031709 -0.030571 -0.704657
v 0.031709 -0.030570 -0.966721
v 0.003959 -0.018262 -0.980490
v -0.023790 -0.173228 -0.873786
v 0.003959 -0.018262 -0.672810
v 0.031709 -0.173228 -0.873786
v -0.023790 -0.095740 -0.964637
v -0.023790 -0.095740 -0.767706
v 0.031709 -0.095740 -0.964637
v 0.031709 -0.095740 -0.767706
v -0.023790 -0.134523 -0.996950
v -0.023790 -0.160910 -0.979919
v 0.031709 -0.160910 -0.979919
v 0.031709 -0.134523 -0.996950
v 0.003959 -0.183608 -0.869377
v 0.003959 -0.094776 -0.746834
v 0.003959 -0.094776 -0.978043
v 0.003959 -0.140309 -1.013408
v 0.003959 -0.171289 -0.993411
vt 0.267353 0.716127
vt 0.268651 0.716202
vt 0.268112 0.714430
vt 0.267097 0.713851
vt 0.272711 0.712912
vt 0.268209 0.712790
vt 0.268889 0.713820
vt 0.272286 0.713971
vt 0.275930 0.716757
vt 0.278315 0.695190
vt 0.277098 0.694741
vt 0.273432 0.697497
vt 0.273848 0.698560
vt 0.281141 0.692216
vt 0.279446 0.692253
vt 0.268380 0.718800
vt 0.278257 0.719264
vt 0.267097 0.719210
vt 0.269565 0.692637
vt 0.269815 0.695237
vt 0.269262 0.697005
vt 0.270033 0.697621
vt 0.268242 0.697575
vt 0.269345 0.698645
vt 0.268285 0.692216
vt 0.268516 0.695301
vt 0.279952 0.719314
vt 0.277150 0.716318
vt 0.102319 0.787382
vt 0.102259 0.781277
vt 0.104153 0.783364
vt 0.104381 0.787418
vt 0.020982 0.785933
vt 0.020144 0.785918
vt 0.020952 0.784680
vt 0.071071 0.786825
vt 0.087759 0.787122
vt 0.087729 0.796738
vt 0.070949 0.798058
vt 0.041936 0.786307
vt 0.028355 0.786065
vt 0.028365 0.780318
vt 0.042081 0.776578
vt 0.056459 0.786565
vt 0.056236 0.797503
vt 0.041735 0.796034
vt 0.056626 0.775626
vt 0.071349 0.775595
vt 0.028160 0.791808
vt 0.088072 0.777511
vt 0.020907 0.787185
vt 0.102041 0.793480
vt 0.104008 0.791462
vt 0.352607 0.681605
vt 0.354699 0.681665
vt 0.354278 0.685764
vt 0.352259 0.687791
vt 0.271021 0.679294
vt 0.270934 0.680558
vt 0.270172 0.679270
vt 0.320968 0.680709
vt 0.321329 0.669344
vt 0.338254 0.671440
vt 0.337840 0.681187
vt 0.291917 0.679886
vt 0.291622 0.689393
vt 0.278213 0.685084
vt 0.278419 0.679503
vt 0.292161 0.670378
vt 0.306540 0.669363
vt 0.306317 0.680294
vt 0.320685 0.692076
vt 0.305920 0.691220
vt 0.278529 0.673920
vt 0.337701 0.690942
vt 0.271006 0.678027
vt 0.352610 0.675410
vt 0.354510 0.677548
vt 0.268607 0.679225
vt 0.269501 0.677315
vt 0.321613 0.667879
vt 0.339151 0.670114
vt 0.277258 0.672786
vt 0.306287 0.667879
vt 0.355798 0.677011
vt 0.356393 0.681713
vt 0.276879 0.686145
vt 0.269391 0.681183
vt 0.320885 0.693555
vt 0.305584 0.692687
vt 0.353846 0.674368
vt 0.291286 0.669013
vt 0.353434 0.688901
vt 0.338522 0.692317
vt 0.355533 0.686373
vt 0.290672 0.690705
vt 0.055961 0.798977
vt 0.040827 0.797346
vt 0.018607 0.785891
vt 0.019457 0.784009
vt 0.071623 0.774143
vt 0.088944 0.776195
vt 0.103465 0.780238
vt 0.105415 0.782822
vt 0.041220 0.775235
vt 0.056403 0.774144
vt 0.026984 0.779290
vt 0.106050 0.787448
vt 0.026743 0.792786
vt 0.105251 0.792048
vt 0.103210 0.794561
vt 0.088555 0.798085
vt 0.071171 0.799519
vt 0.019390 0.787802
vn 0.3431 0.5880 -0.7325
vn 0.3628 -0.9266 -0.0992
vn 1.0000 0.0000 0.0000
vn -0.3755 -0.7495 0.5452
vn -0.4588 -0.6178 0.6386
vn 0.4340 -0.0288 -0.9004
vn -1.0000 0.0000 0.0000
vn 0.5216 -0.4627 -0.7168
vn -0.5216 -0.4627 -0.7168
vn -0.4340 -0.0288 -0.9004
vn 0.4588 -0.6178 0.6386
vn 0.3755 -0.7495 0.5452
vn -0.3628 -0.9266 -0.0992
vn -0.3431 0.5880 -0.7325
vn 0.0000 1.0000 0.0000
vn 0.0000 0.9892 -0.1468
vn -0.0000 0.9990 -0.0443
vn 0.0000 0.9941 -0.1085
vn 0.0007 0.9951 -0.0984
vn 0.0009 0.9991 -0.0413
vn -0.0000 1.0000 -0.0093
vn -0.0004 1.0000 -0.0090
vn -0.0009 0.9991 -0.0413
vn 0.0004 1.0000 -0.0090
vn -0.0007 0.9951 -0.0984
vn 0.0000 -1.0000 -0.0000
vn 0.0000 -0.9892 0.1468
vn 0.0000 -0.9990 0.0446
vn -0.0009 -0.9991 0.0414
vn -0.0007 -0.9951 0.0993
vn 0.0000 -0.9940 0.1091
vn 0.0009 -0.9991 0.0414
vn 0.0004 -1.0000 0.0086
vn 0.0000 -1.0000 0.0089
vn -0.0004 -1.0000 0.0086
vn 0.0007 -0.9951 0.0993
vn -0.5664 0.1209 0.8152
vn -0.7115 0.1031 0.6951
vn -0.7229 -0.2594 0.6404
vn -0.5250 -0.2591 0.8107
vn -0.9995 0.0000 -0.0316
vn -0.9903 -0.0000 -0.1391
vn -0.9680 -0.2234 -0.1143
vn -0.9772 -0.2113 -0.0214
vn -0.9109 0.0513 0.4094
vn -0.8968 -0.2573 0.3600
vn -0.9988 0.0006 0.0497
vn -0.9775 -0.2053 0.0477
vn -0.3438 0.0000 -0.9390
vn 0.0000 0.0000 -1.0000
vn -0.0000 -0.3434 -0.9392
vn -0.3207 -0.3465 -0.8815
vn 0.9109 0.0513 0.4094
vn 0.7115 0.1031 0.6951
vn 0.7229 -0.2594 0.6404
vn 0.8968 -0.2573 0.3600
vn 0.9995 -0.0000 -0.0316
vn 0.9988 0.0006 0.0497
vn 0.9775 -0.2053 0.0477
vn 0.9772 -0.2113 -0.0214
vn -0.8176 0.0000 -0.5758
vn -0.8534 -0.2860 -0.4358
vn -0.9802 0.0170 0.1971
vn -0.9625 -0.2274 0.1478
vn 0.8176 0.0000 -0.5758
vn 0.9903 -0.0000 -0.1391
vn 0.9680 -0.2234 -0.1143
vn 0.8534 -0.2860 -0.4358
vn 0.3438 0.0000 -0.9390
vn 0.3207 -0.3465 -0.8815
vn 0.9802 0.0170 0.1971
vn 0.9625 -0.2274 0.1478
vn 0.5664 0.1209 0.8152
vn 0.5250 -0.2591 0.8107
vn -0.9584 0.2551 0.1280
vn -0.9770 0.2086 0.0443
vn 0.7229 0.4342 0.5375
vn 0.5250 0.4833 0.7006
vn 0.9680 0.2234 -0.1143
vn 0.9772 0.2113 -0.0214
vn 0.3207 0.3465 -0.8815
vn 0.8534 0.2860 -0.4358
vn 0.9770 0.2086 0.0443
vn 0.9584 0.2551 0.1280
vn 0.8914 0.3430 0.2963
vn 0.0000 0.3434 -0.9392
vn -0.8914 0.3430 0.2963
vn -0.8534 0.2860 -0.4358
vn -0.3207 0.3465 -0.8815
vn -0.9680 0.2234 -0.1143
vn -0.9772 0.2113 -0.0214
vn -0.7229 0.4342 0.5375
vn -0.5250 0.4833 0.7006
s off
f 87/1/1 79/2/1 84/3/1 88/4/1
f 85/5/2 89/6/2 83/7/2 76/8/2
f 79/2/3 80/9/3 76/8/3 83/7/3
f 84/3/3 79/2/3 83/7/3
f 86/10/4 78/11/4 74/12/4 85/13/4
f 75/14/5 69/15/5 78/11/5 86/10/5
f 72/16/3 71/17/3 80/9/3 79/2/3
f 73/18/6 72/16/6 79/2/6 87/1/6
f 69/15/7 70/19/7 77/20/7 78/11/7
f 88/4/8 84/3/8 83/7/8 89/6/8
f 77/20/7 81/21/7 82/22/7
f 78/11/7 77/20/7 82/22/7 74/12/7
f 81/21/9 88/23/9 89/24/9 82/22/9
f 70/19/10 73/25/10 87/26/10 77/20/10
f 71/17/11 75/27/11 86/28/11 80/9/11
f 80/9/12 86/28/12 85/5/12 76/8/12
f 74/12/13 82/22/13 89/24/13 85/13/13
f 77/20/14 87/26/14 88/23/14 81/21/14
s 1
f 24/29/15 7/30/15 8/31/15 23/32/15
f 68/33/16 18/34/16 4/35/16
f 19/36/15 20/37/15 9/38/15 10/39/15
f 21/40/17 17/41/18 2/42/19 15/43/20
f 21/40/17 22/44/21 13/45/22 14/46/23
f 19/36/15 22/44/21 16/47/24 11/48/15
f 10/39/15 13/45/22 22/44/21 19/36/15
f 15/43/20 16/47/24 22/44/21 21/40/17
f 14/46/23 1/49/25 17/41/18 21/40/17
f 11/48/15 12/50/15 20/37/15 19/36/15
f 3/51/16 18/34/16 68/33/16
f 6/52/15 24/29/15 23/32/15 5/53/15
f 20/37/15 12/50/15 7/30/15 24/29/15
f 9/38/15 20/37/15 24/29/15 6/52/15
f 48/54/26 47/55/26 32/56/26 31/57/26
f 67/58/27 28/59/27 42/60/27
f 43/61/26 34/62/26 33/63/26 44/64/26
f 45/65/28 39/66/29 26/67/30 41/68/31
f 45/65/28 38/69/32 37/70/33 46/71/34
f 43/61/26 35/72/26 40/73/35 46/71/34
f 34/62/26 43/61/26 46/71/34 37/70/33
f 39/66/29 45/65/28 46/71/34 40/73/35
f 38/69/32 45/65/28 41/68/31 25/74/36
f 35/72/26 43/61/26 44/64/26 36/75/26
f 27/76/27 67/58/27 42/60/27
f 30/77/26 29/78/26 47/55/26 48/54/26
f 44/64/26 48/54/26 31/57/26 36/75/26
f 33/63/26 30/77/26 48/54/26 44/64/26
f 50/79/37 49/80/38 27/76/39 42/60/40
f 52/81/41 51/82/42 33/63/43 34/62/44
f 49/80/38 53/83/45 25/74/46 27/76/39
f 54/84/47 52/81/41 34/62/44 37/70/48
f 56/85/49 55/86/50 47/55/51 29/78/52
f 58/87/53 57/88/54 28/59/55 26/67/56
f 60/89/57 59/90/58 40/73/59 35/72/60
f 51/82/42 61/91/61 30/77/62 33/63/43
f 61/91/61 56/85/49 29/78/52 30/77/62
f 53/83/45 62/92/63 38/69/64 25/74/46
f 64/93/65 63/94/66 36/75/67 31/57/68
f 55/86/50 65/95/69 32/56/70 47/55/51
f 66/96/71 58/87/53 26/67/56 39/66/72
f 59/90/58 66/96/71 39/66/72 40/73/59
f 65/95/69 64/93/65 31/57/68 32/56/70
f 63/94/66 60/89/57 35/72/60 36/75/67
f 57/88/54 50/79/73 42/60/74 28/59/55
f 62/92/63 54/84/47 37/70/48 38/69/64
f 14/46/75 13/45/76 54/97/47 62/98/63
f 4/35/77 18/34/78 50/99/73 57/100/54
f 12/50/79 11/48/80 60/101/57 63/102/66
f 8/31/81 7/30/82 64/103/65 65/104/69
f 16/47/83 15/43/84 66/105/71 59/106/58
f 15/43/84 2/42/85 58/107/53 66/105/71
f 23/32/86 8/31/81 65/104/69 55/108/50
f 7/30/82 12/50/79 63/102/66 64/103/65
f 1/49/87 14/46/75 62/98/63 53/109/45
f 6/52/88 5/53/89 56/110/49 61/111/61
f 9/38/90 6/52/88 61/111/61 51/112/42
f 11/48/80 16/47/83 59/106/58 60/101/57
f 2/42/85 4/35/77 57/100/54 58/107/53
f 5/53/89 23/32/86 55/108/50 56/110/49
f 13/45/76 10/39/91 52/113/41 54/97/47
f 3/51/92 1/49/87 53/109/45 49/114/38
f 10/39/91 9/38/90 51/112/42 52/113/41
f 18/34/93 3/51/92 49/114/38 50/99/37
f 41/68/31 26/67/30 28/59/27 67/58/27
f 25/74/36 41/68/31 67/58/27 27/76/27
f 17/41/18 68/33/16 4/35/16 2/42/19
f 1/49/25 3/51/16 68/33/16 17/41/18
