# Blender v2.79 (sub 0) OBJ File: 'PolyBeach_v1.1_.blend'
# www.blender.org
o torusB_m_Torus.003
v 0.370000 0.000000 0.000000
v 0.332349 0.078183 0.000000
v 0.247748 0.097493 0.000000
v 0.179903 0.043388 0.000000
v 0.179903 -0.043388 0.000000
v 0.247748 -0.097493 0.000000
v 0.332349 -0.078183 0.000000
v 0.341835 0.000000 -0.141593
v 0.307050 0.078183 -0.127184
v 0.228889 0.097493 -0.094809
v 0.166209 0.043388 -0.068846
v 0.166209 -0.043388 -0.068846
v 0.228889 -0.097493 -0.094809
v 0.307050 -0.078183 -0.127184
v 0.261629 0.000000 -0.261630
v 0.235006 0.078183 -0.235006
v 0.175184 0.097493 -0.175184
v 0.127211 0.043388 -0.127211
v 0.127211 -0.043388 -0.127211
v 0.175184 -0.097493 -0.175184
v 0.235006 -0.078183 -0.235006
v 0.141593 0.000000 -0.341835
v 0.127185 0.078183 -0.307050
v 0.094809 0.097493 -0.228889
v 0.068846 0.043388 -0.166209
v 0.068846 -0.043388 -0.166209
v 0.094809 -0.097493 -0.228889
v 0.127185 -0.078183 -0.307050
v 0.000000 0.000000 -0.370000
v 0.000000 0.078183 -0.332349
v 0.000000 0.097493 -0.247748
v 0.000000 0.043388 -0.179903
v 0.000000 -0.043388 -0.179903
v 0.000000 -0.097493 -0.247748
v 0.000000 -0.078183 -0.332349
v -0.141593 0.000000 -0.341835
v -0.127184 0.078183 -0.307050
v -0.094809 0.097493 -0.228889
v -0.068846 0.043388 -0.166209
v -0.068846 -0.043388 -0.166209
v -0.094809 -0.097493 -0.228889
v -0.127184 -0.078183 -0.307050
v -0.261630 0.000000 -0.261629
v -0.235006 0.078183 -0.235006
v -0.175184 0.097493 -0.175184
v -0.127211 0.043388 -0.127211
v -0.127211 -0.043388 -0.127211
v -0.175184 -0.097493 -0.175184
v -0.235006 -0.078183 -0.235006
v -0.341835 0.000000 -0.141593
v -0.307050 0.078183 -0.127184
v -0.228889 0.097493 -0.094809
v -0.166209 0.043388 -0.068846
v -0.166209 -0.043388 -0.068846
v -0.228889 -0.097493 -0.094809
v -0.307050 -0.078183 -0.127184
v -0.370000 0.000000 -0.000000
v -0.332349 0.078183 -0.000000
v -0.247748 0.097493 -0.000000
v -0.179903 0.043388 -0.000000
v -0.179903 -0.043388 -0.000000
v -0.247748 -0.097493 -0.000000
v -0.332349 -0.078183 -0.000000
v -0.341835 0.000000 0.141593
v -0.307050 0.078183 0.127184
v -0.228889 0.097493 0.094809
v -0.166209 0.043388 0.068846
v -0.166209 -0.043388 0.068846
v -0.228889 -0.097493 0.094809
v -0.307050 -0.078183 0.127184
v -0.261630 0.000000 0.261629
v -0.235006 0.078183 0.235006
v -0.175184 0.097493 0.175184
v -0.127211 0.043388 0.127211
v -0.127211 -0.043388 0.127211
v -0.175184 -0.097493 0.175184
v -0.235006 -0.078183 0.235006
v -0.141593 0.000000 0.341835
v -0.127184 0.078183 0.307050
v -0.094809 0.097493 0.228889
v -0.068846 0.043388 0.166209
v -0.068846 -0.043388 0.166209
v -0.094809 -0.097493 0.228889
v -0.127184 -0.078183 0.307050
v 0.000000 0.000000 0.370000
v 0.000000 0.078183 0.332349
v 0.000000 0.097493 0.247748
v 0.000000 0.043388 0.179903
v 0.000000 -0.043388 0.179903
v 0.000000 -0.097493 0.247748
v 0.000000 -0.078183 0.332349
v 0.141593 0.000000 0.341835
v 0.127185 0.078183 0.307050
v 0.094809 0.097493 0.228889
v 0.068846 0.043388 0.166209
v 0.068846 -0.043388 0.166209
v 0.094809 -0.097493 0.228889
v 0.127185 -0.078183 0.307050
v 0.261629 0.000000 0.261630
v 0.235006 0.078183 0.235006
v 0.175184 0.097493 0.175184
v 0.127211 0.043388 0.127211
v 0.127211 -0.043388 0.127211
v 0.175184 -0.097493 0.175184
v 0.235006 -0.078183 0.235006
v 0.341835 0.000000 0.141593
v 0.307050 0.078183 0.127185
v 0.228889 0.097493 0.094809
v 0.166209 0.043388 0.068846
v 0.166209 -0.043388 0.068846
v 0.228889 -0.097493 0.094809
v 0.307050 -0.078183 0.127185
vt 0.080956 0.815320
vt 0.086208 0.815320
vt 0.086208 0.818607
vt 0.080956 0.818607
vt 0.086208 0.821893
vt 0.080956 0.821893
vt 0.086208 0.825180
vt 0.080956 0.825180
vt 0.080956 0.802174
vt 0.086208 0.802174
vt 0.086208 0.805460
vt 0.080956 0.805460
vt 0.086208 0.808747
vt 0.080956 0.808747
vt 0.086208 0.812034
vt 0.080956 0.812034
vt 0.208747 0.440781
vt 0.213998 0.440781
vt 0.213998 0.444068
vt 0.208747 0.444068
vt 0.213998 0.447354
vt 0.208747 0.447354
vt 0.213998 0.450641
vt 0.208747 0.450641
vt 0.208747 0.427635
vt 0.213998 0.427635
vt 0.213998 0.430922
vt 0.208747 0.430922
vt 0.213998 0.434208
vt 0.208747 0.434208
vt 0.213998 0.437495
vt 0.208747 0.437495
vt 0.219250 0.440781
vt 0.219250 0.444068
vt 0.219250 0.447354
vt 0.219250 0.450641
vt 0.219250 0.427635
vt 0.219250 0.430922
vt 0.219250 0.434208
vt 0.219250 0.437495
vt 0.096711 0.815320
vt 0.101962 0.815320
vt 0.101962 0.818607
vt 0.096711 0.818607
vt 0.101962 0.821893
vt 0.096711 0.821893
vt 0.101962 0.825180
vt 0.096711 0.825180
vt 0.096711 0.802174
vt 0.101962 0.802174
vt 0.101962 0.805460
vt 0.096711 0.805460
vt 0.101962 0.808747
vt 0.096711 0.808747
vt 0.101962 0.812034
vt 0.096711 0.812034
vt 0.017939 0.815320
vt 0.023191 0.815320
vt 0.023191 0.818607
vt 0.017939 0.818607
vt 0.023191 0.821893
vt 0.017939 0.821893
vt 0.023191 0.825180
vt 0.017939 0.825180
vt 0.017939 0.802174
vt 0.023191 0.802174
vt 0.023191 0.805460
vt 0.017939 0.805460
vt 0.023191 0.808747
vt 0.017939 0.808747
vt 0.023191 0.812034
vt 0.017939 0.812034
vt 0.145730 0.440781
vt 0.150981 0.440781
vt 0.150981 0.444068
vt 0.145730 0.444068
vt 0.150981 0.447354
vt 0.145730 0.447354
vt 0.150981 0.450641
vt 0.145730 0.450641
vt 0.145730 0.427635
vt 0.150981 0.427635
vt 0.150981 0.430922
vt 0.145730 0.430922
vt 0.150981 0.434208
vt 0.145730 0.434208
vt 0.150981 0.437495
vt 0.145730 0.437495
vt 0.156233 0.440781
vt 0.156233 0.444068
vt 0.156233 0.447354
vt 0.156233 0.450641
vt 0.156233 0.427635
vt 0.156233 0.430922
vt 0.156233 0.434208
vt 0.156233 0.437495
vt 0.033693 0.815320
vt 0.038945 0.815320
vt 0.038945 0.818607
vt 0.033693 0.818607
vt 0.038945 0.821893
vt 0.033693 0.821893
vt 0.038945 0.825180
vt 0.033693 0.825180
vt 0.033693 0.802174
vt 0.038945 0.802174
vt 0.038945 0.805460
vt 0.033693 0.805460
vt 0.038945 0.808747
vt 0.033693 0.808747
vt 0.038945 0.812034
vt 0.033693 0.812034
vt 0.044196 0.815320
vt 0.044196 0.818607
vt 0.044196 0.821893
vt 0.044196 0.825180
vt 0.044196 0.802174
vt 0.044196 0.805460
vt 0.044196 0.808747
vt 0.044196 0.812034
vt 0.166736 0.440781
vt 0.171987 0.440781
vt 0.171987 0.444068
vt 0.166736 0.444068
vt 0.171987 0.447354
vt 0.166736 0.447354
vt 0.171987 0.450641
vt 0.166736 0.450641
vt 0.166736 0.427635
vt 0.171987 0.427635
vt 0.171987 0.430922
vt 0.166736 0.430922
vt 0.171987 0.434208
vt 0.166736 0.434208
vt 0.171987 0.437495
vt 0.166736 0.437495
vt 0.177238 0.440781
vt 0.177238 0.444068
vt 0.177238 0.447354
vt 0.177238 0.450641
vt 0.177238 0.427635
vt 0.177238 0.430922
vt 0.177238 0.434208
vt 0.177238 0.437495
vt 0.054699 0.815320
vt 0.059951 0.815320
vt 0.059951 0.818607
vt 0.054699 0.818607
vt 0.059951 0.821893
vt 0.054699 0.821893
vt 0.059951 0.825180
vt 0.054699 0.825180
vt 0.054699 0.802174
vt 0.059951 0.802174
vt 0.059951 0.805460
vt 0.054699 0.805460
vt 0.059951 0.808747
vt 0.054699 0.808747
vt 0.059951 0.812034
vt 0.054699 0.812034
vt 0.065202 0.815320
vt 0.065202 0.818607
vt 0.065202 0.821893
vt 0.065202 0.825180
vt 0.065202 0.802174
vt 0.065202 0.805460
vt 0.065202 0.808747
vt 0.065202 0.812034
vt 0.187741 0.440781
vt 0.192993 0.440781
vt 0.192993 0.444068
vt 0.187741 0.444068
vt 0.192993 0.447354
vt 0.187741 0.447354
vt 0.192993 0.450641
vt 0.187741 0.450641
vt 0.187741 0.427635
vt 0.192993 0.427635
vt 0.192993 0.430922
vt 0.187741 0.430922
vt 0.192993 0.434208
vt 0.187741 0.434208
vt 0.192993 0.437495
vt 0.187741 0.437495
vt 0.198244 0.440781
vt 0.198244 0.444068
vt 0.198244 0.447354
vt 0.198244 0.450641
vt 0.198244 0.427635
vt 0.198244 0.430922
vt 0.198244 0.434208
vt 0.198244 0.437495
vt 0.075705 0.815320
vt 0.075705 0.818607
vt 0.075705 0.821893
vt 0.075705 0.825180
vt 0.075705 0.802174
vt 0.075705 0.805460
vt 0.075705 0.808747
vt 0.075705 0.812034
vn 1.0000 0.0000 0.0000
vn 0.9239 0.0000 -0.3827
vn 0.6046 0.7561 -0.2504
vn 0.6544 0.7561 0.0000
vn -0.1569 0.9854 0.0650
vn -0.1699 0.9854 0.0000
vn -0.8220 0.4564 0.3405
vn -0.8897 0.4564 0.0000
vn -0.8220 -0.4564 0.3405
vn -0.8897 -0.4564 0.0000
vn -0.1569 -0.9854 0.0650
vn -0.1699 -0.9854 0.0000
vn 0.6046 -0.7561 -0.2504
vn 0.6544 -0.7561 0.0000
vn 0.7071 0.0000 -0.7071
vn 0.4628 0.7561 -0.4628
vn -0.1201 0.9854 0.1201
vn -0.6291 0.4564 0.6291
vn -0.6291 -0.4564 0.6291
vn -0.1201 -0.9854 0.1201
vn 0.4628 -0.7561 -0.4628
vn 0.3827 0.0000 -0.9239
vn 0.2504 0.7561 -0.6046
vn -0.0650 0.9854 0.1569
vn -0.3405 0.4564 0.8220
vn -0.3405 -0.4564 0.8220
vn -0.0650 -0.9854 0.1569
vn 0.2504 -0.7561 -0.6046
vn 0.0000 0.0000 -1.0000
vn 0.0000 0.7561 -0.6544
vn 0.0000 0.9854 0.1699
vn 0.0000 0.4564 0.8897
vn 0.0000 -0.4564 0.8897
vn 0.0000 -0.9854 0.1699
vn 0.0000 -0.7561 -0.6544
vn -0.3827 0.0000 -0.9239
vn -0.2504 0.7561 -0.6046
vn 0.0650 0.9854 0.1569
vn 0.3405 0.4564 0.8220
vn 0.3405 -0.4564 0.8220
vn 0.0650 -0.9854 0.1569
vn -0.2504 -0.7561 -0.6046
vn -0.7071 0.0000 -0.7071
vn -0.4628 0.7561 -0.4628
vn 0.1201 0.9854 0.1201
vn 0.6291 0.4564 0.6291
vn 0.6291 -0.4564 0.6291
vn 0.1201 -0.9854 0.1201
vn -0.4628 -0.7561 -0.4628
vn -0.9239 0.0000 -0.3827
vn -0.6046 0.7561 -0.2504
vn 0.1569 0.9854 0.0650
vn 0.8220 0.4564 0.3405
vn 0.8220 -0.4564 0.3405
vn 0.1569 -0.9854 0.0650
vn -0.6046 -0.7561 -0.2504
vn -1.0000 0.0000 0.0000
vn -0.6544 0.7561 0.0000
vn 0.1699 0.9854 0.0000
vn 0.8897 0.4564 0.0000
vn 0.8897 -0.4564 0.0000
vn 0.1699 -0.9854 0.0000
vn -0.6544 -0.7561 0.0000
vn -0.9239 0.0000 0.3827
vn -0.6046 0.7561 0.2504
vn 0.1569 0.9854 -0.0650
vn 0.8220 0.4564 -0.3405
vn 0.8220 -0.4564 -0.3405
vn 0.1569 -0.9854 -0.0650
vn -0.6046 -0.7561 0.2504
vn -0.7071 0.0000 0.7071
vn -0.4628 0.7561 0.4628
vn 0.1201 0.9854 -0.1201
vn 0.6291 0.4564 -0.6291
vn 0.6291 -0.4564 -0.6291
vn 0.1201 -0.9854 -0.1201
vn -0.4628 -0.7561 0.4628
vn -0.3827 0.0000 0.9239
vn -0.2504 0.7561 0.6046
vn 0.0650 0.9854 -0.1569
vn 0.3405 0.4564 -0.8220
vn 0.3405 -0.4564 -0.8220
vn 0.0650 -0.9854 -0.1569
vn -0.2504 -0.7561 0.6046
vn 0.0000 0.0000 1.0000
vn 0.0000 0.7561 0.6544
vn 0.0000 0.9854 -0.1699
vn 0.0000 0.4564 -0.8897
vn 0.0000 -0.4564 -0.8897
vn 0.0000 -0.9854 -0.1699
vn 0.0000 -0.7561 0.6544
vn 0.3827 0.0000 0.9239
vn 0.2504 0.7561 0.6046
vn -0.0650 0.9854 -0.1569
vn -0.3405 0.4564 -0.8220
vn -0.3405 -0.4564 -0.8220
vn -0.0650 -0.9854 -0.1569
vn 0.2504 -0.7561 0.6046
vn 0.7071 0.0000 0.7071
vn 0.4628 0.7561 0.4628
vn -0.1201 0.9854 -0.1201
vn -0.6291 0.4564 -0.6291
vn -0.6291 -0.4564 -0.6291
vn -0.1201 -0.9854 -0.1201
vn 0.4628 -0.7561 0.4628
vn 0.9239 0.0000 0.3827
vn 0.6046 0.7561 0.2504
vn -0.1569 0.9854 -0.0650
vn -0.8220 0.4564 -0.3405
vn -0.8220 -0.4564 -0.3405
vn -0.1569 -0.9854 -0.0650
vn 0.6046 -0.7561 0.2504
s 1
f 1/1/1 8/2/2 9/3/3 2/4/4
f 2/4/4 9/3/3 10/5/5 3/6/6
f 3/6/6 10/5/5 11/7/7 4/8/8
f 4/9/8 11/10/7 12/11/9 5/12/10
f 5/12/10 12/11/9 13/13/11 6/14/12
f 6/14/12 13/13/11 14/15/13 7/16/14
f 7/16/14 14/15/13 8/2/2 1/1/1
f 8/17/2 15/18/15 16/19/16 9/20/3
f 9/20/3 16/19/16 17/21/17 10/22/5
f 10/22/5 17/21/17 18/23/18 11/24/7
f 11/25/7 18/26/18 19/27/19 12/28/9
f 12/28/9 19/27/19 20/29/20 13/30/11
f 13/30/11 20/29/20 21/31/21 14/32/13
f 14/32/13 21/31/21 15/18/15 8/17/2
f 15/18/15 22/33/22 23/34/23 16/19/16
f 16/19/16 23/34/23 24/35/24 17/21/17
f 17/21/17 24/35/24 25/36/25 18/23/18
f 18/26/18 25/37/25 26/38/26 19/27/19
f 19/27/19 26/38/26 27/39/27 20/29/20
f 20/29/20 27/39/27 28/40/28 21/31/21
f 21/31/21 28/40/28 22/33/22 15/18/15
f 22/41/22 29/42/29 30/43/30 23/44/23
f 23/44/23 30/43/30 31/45/31 24/46/24
f 24/46/24 31/45/31 32/47/32 25/48/25
f 25/49/25 32/50/32 33/51/33 26/52/26
f 26/52/26 33/51/33 34/53/34 27/54/27
f 27/54/27 34/53/34 35/55/35 28/56/28
f 28/56/28 35/55/35 29/42/29 22/41/22
f 29/57/29 36/58/36 37/59/37 30/60/30
f 30/60/30 37/59/37 38/61/38 31/62/31
f 31/62/31 38/61/38 39/63/39 32/64/32
f 32/65/32 39/66/39 40/67/40 33/68/33
f 33/68/33 40/67/40 41/69/41 34/70/34
f 34/70/34 41/69/41 42/71/42 35/72/35
f 35/72/35 42/71/42 36/58/36 29/57/29
f 36/73/36 43/74/43 44/75/44 37/76/37
f 37/76/37 44/75/44 45/77/45 38/78/38
f 38/78/38 45/77/45 46/79/46 39/80/39
f 39/81/39 46/82/46 47/83/47 40/84/40
f 40/84/40 47/83/47 48/85/48 41/86/41
f 41/86/41 48/85/48 49/87/49 42/88/42
f 42/88/42 49/87/49 43/74/43 36/73/36
f 43/74/43 50/89/50 51/90/51 44/75/44
f 44/75/44 51/90/51 52/91/52 45/77/45
f 45/77/45 52/91/52 53/92/53 46/79/46
f 46/82/46 53/93/53 54/94/54 47/83/47
f 47/83/47 54/94/54 55/95/55 48/85/48
f 48/85/48 55/95/55 56/96/56 49/87/49
f 49/87/49 56/96/56 50/89/50 43/74/43
f 50/97/50 57/98/57 58/99/58 51/100/51
f 51/100/51 58/99/58 59/101/59 52/102/52
f 52/102/52 59/101/59 60/103/60 53/104/53
f 53/105/53 60/106/60 61/107/61 54/108/54
f 54/108/54 61/107/61 62/109/62 55/110/55
f 55/110/55 62/109/62 63/111/63 56/112/56
f 56/112/56 63/111/63 57/98/57 50/97/50
f 57/98/57 64/113/64 65/114/65 58/99/58
f 58/99/58 65/114/65 66/115/66 59/101/59
f 59/101/59 66/115/66 67/116/67 60/103/60
f 60/106/60 67/117/67 68/118/68 61/107/61
f 61/107/61 68/118/68 69/119/69 62/109/62
f 62/109/62 69/119/69 70/120/70 63/111/63
f 63/111/63 70/120/70 64/113/64 57/98/57
f 64/121/64 71/122/71 72/123/72 65/124/65
f 65/124/65 72/123/72 73/125/73 66/126/66
f 66/126/66 73/125/73 74/127/74 67/128/67
f 67/129/67 74/130/74 75/131/75 68/132/68
f 68/132/68 75/131/75 76/133/76 69/134/69
f 69/134/69 76/133/76 77/135/77 70/136/70
f 70/136/70 77/135/77 71/122/71 64/121/64
f 71/122/71 78/137/78 79/138/79 72/123/72
f 72/123/72 79/138/79 80/139/80 73/125/73
f 73/125/73 80/139/80 81/140/81 74/127/74
f 74/130/74 81/141/81 82/142/82 75/131/75
f 75/131/75 82/142/82 83/143/83 76/133/76
f 76/133/76 83/143/83 84/144/84 77/135/77
f 77/135/77 84/144/84 78/137/78 71/122/71
f 78/145/78 85/146/85 86/147/86 79/148/79
f 79/148/79 86/147/86 87/149/87 80/150/80
f 80/150/80 87/149/87 88/151/88 81/152/81
f 81/153/81 88/154/88 89/155/89 82/156/82
f 82/156/82 89/155/89 90/157/90 83/158/83
f 83/158/83 90/157/90 91/159/91 84/160/84
f 84/160/84 91/159/91 85/146/85 78/145/78
f 85/146/85 92/161/92 93/162/93 86/147/86
f 86/147/86 93/162/93 94/163/94 87/149/87
f 87/149/87 94/163/94 95/164/95 88/151/88
f 88/154/88 95/165/95 96/166/96 89/155/89
f 89/155/89 96/166/96 97/167/97 90/157/90
f 90/157/90 97/167/97 98/168/98 91/159/91
f 91/159/91 98/168/98 92/161/92 85/146/85
f 92/169/92 99/170/99 100/171/100 93/172/93
f 93/172/93 100/171/100 101/173/101 94/174/94
f 94/174/94 101/173/101 102/175/102 95/176/95
f 95/177/95 102/178/102 103/179/103 96/180/96
f 96/180/96 103/179/103 104/181/104 97/182/97
f 97/182/97 104/181/104 105/183/105 98/184/98
f 98/184/98 105/183/105 99/170/99 92/169/92
f 99/170/99 106/185/106 107/186/107 100/171/100
f 100/171/100 107/186/107 108/187/108 101/173/101
f 101/173/101 108/187/108 109/188/109 102/175/102
f 102/178/102 109/189/109 110/190/110 103/179/103
f 103/179/103 110/190/110 111/191/111 104/181/104
f 104/181/104 111/191/111 112/192/112 105/183/105
f 105/183/105 112/192/112 106/185/106 99/170/99
f 106/193/106 1/1/1 2/4/4 107/194/107
f 107/194/107 2/4/4 3/6/6 108/195/108
f 108/195/108 3/6/6 4/8/8 109/196/109
f 109/197/109 4/9/8 5/12/10 110/198/110
f 110/198/110 5/12/10 6/14/12 111/199/111
f 111/199/111 6/14/12 7/16/14 112/200/112
f 112/200/112 7/16/14 1/1/1 106/193/106
