# Blender v2.79 (sub 0) OBJ File: 'PolyBeach_v1.1_.blend'
# www.blender.org
mtllib beach_rock02_m.mtl
o beach_rock_02_Sphere.001
v -0.790434 -0.385621 0.438534
v -0.902800 -0.298106 0.427793
v -0.826203 -0.412781 0.205831
v -0.850603 -0.151975 0.208843
v -0.672927 -0.463694 0.516162
v -0.729562 -0.118464 0.490159
v -0.677112 -0.472120 0.251015
v -0.796839 0.050823 0.407953
v -0.283907 -0.395358 0.516370
v -0.208288 -0.138885 0.579453
v -0.233388 -0.583541 0.214130
v -0.850531 0.079522 0.134631
v -0.582599 0.231837 0.545621
v -0.485850 0.402949 0.376736
v -0.705138 0.193324 0.242238
v -0.500297 0.511204 0.199520
v -0.256556 0.302411 0.487095
v -0.282691 0.447962 0.495253
v -0.290042 0.546467 0.295172
v -0.844669 -0.398045 -0.048230
v -0.928101 -0.239390 -0.035755
v -0.615368 -0.449125 -0.188495
v -0.588466 -0.243489 -0.216675
v -0.400512 -0.059907 -0.396202
v -0.345305 -0.480917 -0.264024
v -0.401435 -0.329102 -0.338108
v -0.237425 -0.558496 -0.420712
v -0.280325 -0.157182 -0.439664
v -0.810432 -0.010461 0.021914
v -0.633929 0.187364 -0.135616
v -0.550096 0.436531 -0.075614
v -0.492715 0.072140 -0.412205
v -0.374896 0.272875 -0.373242
v -0.274500 0.606535 -0.235532
v -0.244051 0.234924 -0.466947
v -0.157990 0.449494 -0.440703
v 0.096970 -0.413446 0.414787
v 0.127210 -0.280930 0.535541
v 0.159077 -0.450556 0.325963
v 0.449743 -0.403592 0.443631
v 0.486442 -0.128832 0.455738
v 0.479980 -0.442959 0.210275
v 0.684490 -0.194364 0.400701
v 0.818173 -0.356685 0.074990
v 0.861774 -0.216575 0.090674
v 0.156508 0.160309 0.482678
v 0.142520 0.379448 0.399954
v 0.161900 0.463832 0.186911
v 0.530077 0.218977 0.411022
v 0.357697 0.449761 0.467618
v 0.669867 0.234480 0.303330
v 0.475974 0.491625 0.228732
v 0.830964 0.149552 0.136696
v 0.122384 -0.554790 -0.136617
v 0.138756 -0.483370 -0.356821
v 0.209857 -0.189890 -0.453050
v 0.494907 -0.453717 -0.206966
v 0.663632 -0.246534 -0.289333
v 0.335948 -0.404772 -0.344425
v 0.386212 -0.192517 -0.362470
v 0.732349 -0.384657 0.024336
v 0.828312 -0.172132 -0.140875
v 0.159101 0.656358 -0.165986
v 0.152014 0.206836 -0.580474
v 0.162284 0.497843 -0.497504
v 0.644509 0.257898 -0.252208
v 0.517112 0.428590 -0.159813
v 0.507576 0.202699 -0.462455
v 0.377834 0.471228 -0.383512
v 0.863195 0.133915 -0.023230
vt 0.556309 0.783927
vt 0.557937 0.788667
vt 0.554155 0.787132
vt 0.555117 0.845245
vt 0.558358 0.837327
vt 0.560334 0.844936
vt 0.584781 0.815150
vt 0.592382 0.813528
vt 0.589734 0.817617
vt 0.560474 0.784844
vt 0.557246 0.785635
vt 0.583425 0.813348
vt 0.586358 0.811734
vt 0.566082 0.786509
vt 0.568138 0.793159
vt 0.563109 0.790538
vt 0.564981 0.841542
vt 0.567551 0.835924
vt 0.568138 0.839446
vt 0.575129 0.790344
vt 0.571227 0.793807
vt 0.571822 0.790947
vt 0.550145 0.799034
vt 0.555336 0.802006
vt 0.549187 0.802000
vt 0.554773 0.796163
vt 0.551815 0.795016
vt 0.552903 0.799379
vt 0.555732 0.791145
vt 0.553363 0.791146
vt 0.561819 0.800927
vt 0.564111 0.804529
vt 0.560945 0.803161
vt 0.565288 0.796486
vt 0.561355 0.795739
vt 0.558938 0.799595
vt 0.549439 0.826280
vt 0.555878 0.827559
vt 0.552091 0.828780
vt 0.552556 0.834001
vt 0.555067 0.833103
vt 0.595206 0.818511
vt 0.601358 0.817995
vt 0.599626 0.820870
vt 0.553510 0.820862
vt 0.554414 0.825190
vt 0.559506 0.823224
vt 0.564088 0.826434
vt 0.560140 0.825389
vt 0.561234 0.830777
vt 0.564573 0.829846
vt 0.584345 0.792401
vt 0.580660 0.795738
vt 0.580997 0.792413
vt 0.550810 0.811021
vt 0.553445 0.815536
vt 0.549785 0.814174
vt 0.554295 0.809079
vt 0.549763 0.807929
vt 0.598786 0.811284
vt 0.603262 0.809868
vt 0.604099 0.812786
vt 0.550494 0.819472
vt 0.559112 0.813258
vt 0.562588 0.817039
vt 0.559548 0.816423
vt 0.564089 0.809500
vt 0.559974 0.808671
vt 0.584774 0.801736
vt 0.578818 0.805917
vt 0.579161 0.801069
vt 0.554836 0.839367
vt 0.596553 0.817602
vt 0.565271 0.836318
vt 0.574416 0.793361
vt 0.593530 0.806810
vt 0.600574 0.808551
vt 0.574122 0.804784
vt 0.573278 0.800657
vt 0.584549 0.810192
vt 0.589544 0.806274
vt 0.551363 0.820876
vt 0.605789 0.817248
vt 0.606613 0.818452
vt 0.569387 0.797400
vt 0.559031 0.792003
vt 0.560363 0.790500
vt 0.563770 0.822584
vt 0.585289 0.796095
vt 0.557473 0.821203
vt 0.561703 0.787494
vt 0.556921 0.800310
vt 0.553901 0.811802
vt 0.554228 0.818145
vt 0.556307 0.781464
vt 0.568059 0.790018
vt 0.567330 0.801625
vt 0.563368 0.813137
vt 0.582212 0.804710
vt 0.596068 0.805430
vt 0.585729 0.806781
vt 0.557210 0.819583
vn -0.9823 -0.0938 0.1619
vn -0.1669 0.0468 0.9849
vn 0.1453 -0.8288 0.5403
vn -0.2025 -0.1411 0.9691
vn -0.5690 -0.8216 0.0351
vn -0.7390 0.6283 0.2431
vn -0.7975 0.5479 0.2526
vn -0.4524 0.7428 0.4934
vn -0.4517 0.7445 0.4916
vn -0.8439 -0.1150 -0.5241
vn -0.2784 -0.0946 -0.9558
vn -0.5690 -0.0825 -0.8182
vn -0.5443 -0.2227 -0.8088
vn -0.4968 0.2989 -0.8148
vn -0.6902 0.3804 -0.6155
vn -0.6694 0.4996 -0.5499
vn 0.9791 -0.1374 0.1500
vn 0.4184 -0.6621 0.6218
vn 0.0138 -0.9857 0.1681
vn 0.5569 -0.7428 0.3717
vn 0.5760 0.2384 0.7819
vn -0.3752 0.3063 0.8749
vn -0.3820 0.8706 0.3101
vn 0.4068 -0.6038 -0.6855
vn 0.1964 -0.3481 -0.9166
vn 0.1452 -0.8670 -0.4767
vn 0.6103 -0.6670 -0.4274
vn 0.5259 0.6736 -0.5193
vn 0.3076 0.2508 -0.9179
vn 0.5035 0.7814 -0.3688
vn 0.0230 -0.2452 0.9692
vn 0.0709 -0.9018 0.4263
vn 0.2162 -0.0159 0.9762
vn 0.2357 0.8753 0.4223
vn 0.1728 -0.0280 -0.9846
vn -0.0647 -0.9478 -0.3122
vn -0.2547 0.2174 -0.9423
vn 0.0057 0.7956 -0.6057
vn -0.8833 -0.4674 0.0371
vn -0.2523 -0.9565 -0.1462
vn -0.3425 -0.9345 -0.0970
vn 0.0334 -0.9991 0.0270
vn 0.5234 -0.0678 -0.8494
vn 0.2723 -0.9598 0.0686
vn -0.9187 0.3521 -0.1787
vn -0.0466 0.9661 -0.2538
vn -0.1148 0.7560 -0.6444
vn 0.8000 0.5999 -0.0112
vn -0.1401 0.8687 0.4751
vn 0.4785 0.8779 0.0152
vn 0.4627 0.5292 0.7112
vn 0.2220 -0.2427 0.9444
vn -0.6864 0.2222 0.6924
vn -0.4107 -0.3869 -0.8256
vn -0.6255 -0.5085 -0.5917
vn -0.4228 0.4196 -0.8032
vn 0.2930 0.0857 0.9523
vn 0.1712 0.1060 0.9795
vn 0.7504 0.1706 0.6386
vn 0.2688 0.0808 -0.9598
vn 0.4437 -0.2148 -0.8701
vn 0.6471 0.0803 -0.7581
vn -0.8948 0.4269 0.1309
vn 0.9874 0.0986 -0.1238
vn 0.0836 0.2129 0.9735
vn -0.0317 -0.0665 -0.9973
vn 0.2655 -0.9448 0.1918
vn 0.2055 0.9718 0.1160
vn -0.4730 -0.6766 -0.5643
vn 0.0435 -0.2507 0.9671
vn -0.2407 -0.9700 0.0346
vn -0.5650 -0.0306 0.8245
vn -0.4080 -0.8975 0.1675
vn -0.8996 -0.1603 0.4062
vn -0.4564 0.7423 0.4906
vn 0.1814 -0.0225 0.9832
vn -0.3348 0.8405 0.4261
vn -0.0844 -0.4620 -0.8828
vn -0.6199 -0.5172 -0.5901
vn -0.5135 -0.2706 -0.8143
vn -0.4699 -0.0592 -0.8807
vn -0.5799 0.4537 -0.6766
vn -0.6393 0.4498 -0.6237
vn -0.4467 0.4159 -0.7921
vn 0.0151 -0.6158 0.7877
vn -0.0805 -0.0331 0.9962
vn 0.1975 -0.8477 0.4923
vn 0.4111 -0.2268 0.8830
vn 0.6550 0.6194 0.4328
vn 0.2011 -0.0890 0.9755
vn -0.1036 0.9871 0.1217
vn 0.2277 -0.1359 -0.9642
vn 0.4473 -0.1804 -0.8760
vn 0.3715 -0.8909 -0.2613
vn 0.6597 -0.6238 -0.4192
vn 0.7784 0.4911 -0.3911
vn 0.4606 0.4478 -0.7664
vn 0.0333 0.9854 0.1671
vn 0.1573 -0.6845 0.7118
vn 0.1282 -0.8321 0.5395
vn 0.1329 0.3575 0.9244
vn 0.2531 0.8914 0.3761
vn -0.0461 -0.3011 -0.9525
vn 0.0897 -0.8666 0.4908
vn -0.2080 0.2750 -0.9387
vn -0.2082 0.8816 -0.4235
vn -0.9394 -0.0917 0.3304
vn -0.1361 -0.9882 -0.0708
vn -0.2398 -0.9700 -0.0388
vn 0.2901 -0.9383 0.1884
vn 0.8130 -0.5388 -0.2209
vn 0.2486 -0.9680 0.0339
vn -0.8403 0.5421 0.0050
vn -0.4873 0.8692 0.0841
vn -0.7963 0.5836 -0.1593
vn 0.7979 0.6027 -0.0133
vn 0.5361 0.8404 -0.0796
vn 0.4837 0.8752 0.0119
vn -0.8910 0.3233 0.3188
vn -0.1588 0.1856 0.9697
vn -0.9041 0.3963 -0.1595
vn -0.8921 -0.0092 -0.4517
vn -0.1825 -0.0514 -0.9819
vn -0.7011 0.0597 -0.7106
vn 0.5842 0.1986 0.7869
vn 0.1735 0.1041 0.9793
vn 0.8684 0.0108 0.4958
vn 0.8214 -0.3634 -0.4396
vn 0.2953 -0.3185 -0.9007
vn 0.7555 0.1583 -0.6358
vn -0.9585 -0.0868 -0.2717
vn 0.9585 -0.1907 0.2118
vn 0.1730 0.1058 0.9792
vn -0.2816 -0.3304 -0.9008
vn -0.1038 -0.9772 -0.1854
vn -0.1750 0.8637 0.4726
usemtl polybeach_atlas01
s off
f 1/1/1 4/2/1 3/3/1
f 5/4/2 10/5/2 6/6/2
f 5/7/3 11/8/3 9/9/3
f 1/1/4 6/10/4 2/11/4
f 1/12/5 7/13/5 5/7/5
f 6/10/6 4/2/6 2/11/6
f 13/14/7 16/15/7 15/16/7
f 13/17/8 18/18/8 14/19/8
f 18/20/9 16/21/9 14/22/9
f 25/23/10 28/24/10 27/25/10
f 23/26/11 25/23/11 22/27/11
f 23/26/12 28/24/12 26/28/12
f 21/29/13 22/27/13 20/30/13
f 33/31/14 36/32/14 35/33/14
f 31/34/15 33/31/15 30/35/15
f 33/31/16 32/36/16 30/35/16
f 42/37/17 41/38/17 40/39/17
f 37/40/18 41/38/18 38/41/18
f 37/42/19 42/43/19 40/44/19
f 42/37/20 45/45/20 43/46/20
f 51/47/21 50/48/21 49/49/21
f 46/50/22 50/48/22 47/51/22
f 50/52/23 48/53/23 47/54/23
f 59/55/24 58/56/24 57/57/24
f 56/58/25 59/55/25 55/59/25
f 54/60/26 59/61/26 57/62/26
f 58/56/27 61/63/27 57/57/27
f 68/64/28 67/65/28 66/66/28
f 65/67/29 68/64/29 64/68/29
f 67/69/30 65/70/30 63/71/30
f 9/72/31 38/41/31 10/5/31
f 9/9/32 39/73/32 37/42/32
f 17/74/33 47/51/33 18/18/33
f 47/54/34 19/75/34 18/20/34
f 28/24/35 55/59/35 27/25/35
f 25/76/36 55/77/36 54/60/36
f 36/32/37 64/68/37 35/33/37
f 63/71/38 36/78/38 34/79/38
f 3/3/39 21/29/39 20/30/39
f 7/13/40 25/76/40 11/8/40
f 3/80/41 22/81/41 7/13/41
f 39/73/42 57/62/42 42/43/42
f 61/63/43 45/45/43 44/82/43
f 42/43/44 61/83/44 44/84/44
f 15/16/45 31/34/45 30/35/45
f 19/75/46 31/85/46 16/21/46
f 15/16/47 29/86/47 12/87/47
f 66/66/48 52/88/48 51/47/48
f 52/89/49 63/71/49 48/53/49
f 53/90/50 66/66/50 51/47/50
f 6/10/51 15/16/51 8/91/51
f 6/6/52 17/74/52 13/17/52
f 4/2/53 15/16/53 12/87/53
f 23/26/54 32/36/54 24/92/54
f 32/36/55 28/24/55 24/92/55
f 29/86/56 23/26/56 21/29/56
f 43/46/57 49/49/57 41/38/57
f 38/41/58 49/49/58 46/50/58
f 43/46/59 53/90/59 51/47/59
f 60/93/60 66/66/60 58/56/60
f 64/68/61 60/93/61 56/58/61
f 66/66/62 62/94/62 58/56/62
f 4/2/63 29/86/63 21/29/63
f 62/94/64 53/90/64 45/45/64
f 10/5/65 46/50/65 17/74/65
f 35/33/66 56/58/66 28/24/66
f 11/8/67 54/60/67 39/73/67
f 48/53/68 34/79/68 19/75/68
f 1/1/69 2/11/69 4/2/69
f 5/4/70 9/72/70 10/5/70
f 5/7/71 7/13/71 11/8/71
f 1/1/72 5/95/72 6/10/72
f 1/12/73 3/80/73 7/13/73
f 6/10/74 8/91/74 4/2/74
f 13/14/75 14/96/75 16/15/75
f 13/17/76 17/74/76 18/18/76
f 18/20/77 19/75/77 16/21/77
f 25/23/78 26/28/78 28/24/78
f 23/26/79 26/28/79 25/23/79
f 23/26/80 24/92/80 28/24/80
f 21/29/81 23/26/81 22/27/81
f 33/31/82 34/97/82 36/32/82
f 31/34/83 34/97/83 33/31/83
f 33/31/84 35/33/84 32/36/84
f 42/37/85 43/46/85 41/38/85
f 37/40/86 40/39/86 41/38/86
f 37/42/87 39/73/87 42/43/87
f 42/37/88 44/82/88 45/45/88
f 51/47/89 52/88/89 50/48/89
f 46/50/90 49/49/90 50/48/90
f 50/52/91 52/89/91 48/53/91
f 59/55/92 60/93/92 58/56/92
f 56/58/93 60/93/93 59/55/93
f 54/60/94 55/77/94 59/61/94
f 58/56/95 62/94/95 61/63/95
f 68/64/96 69/98/96 67/65/96
f 65/67/97 69/98/97 68/64/97
f 67/69/98 69/99/98 65/70/98
f 9/72/99 37/40/99 38/41/99
f 9/9/100 11/8/100 39/73/100
f 17/74/101 46/50/101 47/51/101
f 47/54/102 48/53/102 19/75/102
f 28/24/103 56/58/103 55/59/103
f 25/76/104 27/100/104 55/77/104
f 36/32/105 65/67/105 64/68/105
f 63/71/106 65/70/106 36/78/106
f 3/3/107 4/2/107 21/29/107
f 7/13/108 22/81/108 25/76/108
f 3/80/109 20/101/109 22/81/109
f 39/73/110 54/60/110 57/62/110
f 61/63/111 62/94/111 45/45/111
f 42/43/112 57/62/112 61/83/112
f 15/16/113 16/15/113 31/34/113
f 19/75/114 34/79/114 31/85/114
f 15/16/115 30/35/115 29/86/115
f 66/66/116 67/65/116 52/88/116
f 52/89/117 67/69/117 63/71/117
f 53/90/118 70/102/118 66/66/118
f 6/10/119 13/14/119 15/16/119
f 6/6/120 10/5/120 17/74/120
f 4/2/121 8/91/121 15/16/121
f 23/26/122 30/35/122 32/36/122
f 32/36/123 35/33/123 28/24/123
f 29/86/124 30/35/124 23/26/124
f 43/46/125 51/47/125 49/49/125
f 38/41/126 41/38/126 49/49/126
f 43/46/127 45/45/127 53/90/127
f 60/93/128 68/64/128 66/66/128
f 64/68/129 68/64/129 60/93/129
f 66/66/130 70/102/130 62/94/130
f 4/2/131 12/87/131 29/86/131
f 62/94/132 70/102/132 53/90/132
f 10/5/133 38/41/133 46/50/133
f 35/33/134 64/68/134 56/58/134
f 11/8/135 25/76/135 54/60/135
f 48/53/136 63/71/136 34/79/136
