# Blender v2.79 (sub 0) OBJ File: 'PolyClouds.blend'
# www.blender.org
o Cube.001_Cube.006
v -2.576300 -1.248284 -1.786448
v -2.576300 -1.248284 -1.524797
v -1.904792 -1.237867 -1.792021
v -1.374340 -1.146992 -1.757621
v -1.892989 -1.265350 -1.258899
v -1.569129 -1.205535 -0.387895
v -1.300048 -1.204065 -1.296057
v -1.255225 -1.205535 -0.387895
v -3.254674 -0.430358 -1.770352
v -3.254674 -0.210768 -1.770352
v -2.843085 -0.628435 -1.793630
v -2.802242 -0.116133 -1.773312
v -3.304871 -0.464404 -1.296057
v -3.370471 -0.412066 -0.424047
v -3.304871 -0.136920 -1.296057
v -3.338938 0.095414 -0.421956
v -2.843085 -0.792802 -1.337759
v -2.776802 -0.650655 -0.424047
v -2.813449 0.207996 -1.409098
v -3.089226 0.444218 -0.421956
v -3.340138 1.377250 -0.935042
v -3.344521 1.133288 -0.421955
v -3.338670 1.934852 -0.952455
v -3.437548 1.934852 -0.424047
v -2.795339 1.077085 -1.066496
v -3.089226 0.784483 -0.421955
v -2.776802 1.934852 -0.999499
v -1.904792 -0.681176 -2.000166
v -1.861893 0.158323 -2.059341
v -1.194131 -0.681176 -1.936532
v -1.042237 0.088019 -2.128883
v -2.175789 -1.048122 -0.943457
v -1.917933 -0.959249 -0.387895
v -2.255000 0.516827 -1.667474
v -0.883803 -0.681176 -1.296057
v -0.858533 -0.791349 -0.443476
v -0.616539 -0.208190 -1.296057
v -0.604216 -0.235914 -0.813827
v -1.673660 0.676336 -1.818425
v -1.059526 1.005340 -1.895174
v -0.786685 1.725201 -1.748011
v -1.940514 1.005340 -1.454171
v -1.904792 1.934852 -1.066711
v -1.368025 1.257675 -1.581168
v -1.059526 1.983464 -1.476287
v -1.628635 -1.213991 0.447962
v -1.789028 -1.217432 1.319972
v -1.249724 -1.213991 0.447962
v -1.220026 -1.217432 1.319972
v -1.724219 -1.182993 1.877144
v -1.203791 -1.182993 1.877144
v -3.370128 -0.373979 0.447962
v -3.293236 -0.301513 0.956990
v -3.370128 -0.023751 0.447962
v -3.293236 -0.116985 0.956990
v -2.776802 -0.474466 0.447962
v -2.706521 -0.469886 1.276585
v -3.113142 0.412254 0.447962
v -2.779803 0.139579 1.356484
v -2.368997 -0.525879 1.847694
v -2.369213 0.139617 1.815203
v -3.281951 1.235196 0.417378
v -3.311685 1.934852 0.310100
v -3.107112 1.032410 0.572908
v -2.726451 0.996235 1.294462
v -2.940954 1.938691 0.773677
v -2.592150 1.938690 1.120380
v -2.359957 0.648156 1.762970
v -2.064641 -0.781664 0.447962
v -2.225033 -0.919813 1.319972
v -0.813719 -0.970819 0.447962
v -0.809422 -0.852466 1.407173
v -1.963775 -0.676195 2.113360
v -1.981394 0.075486 2.147840
v -0.952659 -0.668328 1.932786
v -1.015582 0.188561 2.254438
v -0.748297 0.622293 2.630584
v -2.056243 1.229496 1.704958
v -1.879408 1.939930 1.538043
v -1.373390 2.085639 1.725453
v -1.821261 0.988433 1.877823
v -1.533366 1.720938 1.765690
v -1.036494 1.101065 2.369201
v -0.748297 0.835877 2.630584
v -1.062745 1.850922 1.944822
v -3.253507 2.752336 -0.928099
v -3.266546 2.721997 -0.502761
v -3.240155 3.304300 -0.925250
v -3.320206 3.598384 -0.438674
v -2.864003 2.752336 -1.035197
v -3.171438 2.897567 -0.324116
v -2.789297 3.628531 -1.101217
v -3.122972 3.598384 -0.438674
v -3.400257 4.227551 -0.150538
v -2.595559 4.550880 -1.052040
v -2.801308 4.569213 -0.378385
v -2.514321 5.013765 -0.938063
v -2.514321 5.013765 -0.606231
v -0.684871 3.063054 -1.733892
v -0.684871 3.246659 -1.733892
v -1.904792 2.806862 -1.060973
v -1.904792 3.678871 -1.163190
v -0.998438 2.786175 -1.402235
v -0.998438 3.593946 -1.310599
v -1.837573 4.474047 -1.044294
v -1.883237 4.812184 -0.432062
v -1.812855 5.303360 -0.923107
v -1.884340 5.224241 -0.539059
v -0.967020 4.458394 -0.951982
v -0.967020 4.807199 -0.822237
v -0.967020 5.457407 -0.916374
v -0.967020 5.108603 -0.822237
v -1.542282 5.942534 -0.908149
v -1.678217 6.081979 -0.424046
v -1.032783 5.993157 -0.930455
v -1.032783 6.268327 -0.424046
v -3.252452 2.437339 0.159592
v -3.353394 3.905755 0.367769
v -3.088274 2.759550 0.449342
v -2.662505 2.806861 1.144281
v -3.113574 3.684793 0.539836
v -2.778018 3.732219 1.099012
v -3.400257 4.227551 0.195702
v -2.819107 4.415579 0.471009
v -2.556639 4.288713 1.049661
v -1.857094 2.806861 1.365147
v -1.817101 3.548525 1.141591
v -1.062745 2.877454 1.587662
v -1.119984 3.609656 1.202369
v -0.792050 2.633845 1.813148
v -2.226409 4.842255 0.447963
v -1.946331 4.567983 1.155511
v -1.849529 5.432523 0.442331
v -1.683353 5.148275 1.078465
v -1.032783 4.550880 1.290852
v -1.032783 5.652756 0.704954
v -1.032783 5.216751 1.141354
v -1.674533 6.072702 0.147907
v -1.032783 6.134065 0.268949
v -0.160773 0.301534 -1.874276
v 0.977819 -0.404422 -1.996181
v 0.668120 0.163412 -1.874160
v 0.162827 -0.331135 -0.964896
v -0.141016 -0.554441 -0.483513
v -0.141016 -0.151056 -1.271762
v -0.418513 -0.235914 -0.813827
v 0.696784 -0.519198 -1.271762
v 0.711236 -0.735422 -0.424047
v 0.668120 0.163412 -1.614477
v -0.211165 1.085422 -1.855403
v -0.422961 1.886616 -1.744023
v 0.358420 0.809805 -1.752139
v 0.045909 1.391145 -1.584471
v -0.190230 2.048029 -1.523154
v 0.633790 1.109330 -1.342924
v 0.961342 1.422235 -0.424047
v 0.365816 1.934852 -1.026023
v 0.682929 1.934852 -0.424047
v 1.575201 -0.437815 -2.213809
v 1.575201 -0.081010 -2.213809
v 2.163111 -0.406994 -1.980185
v 2.163111 -0.099846 -1.980185
v 1.583246 -0.741337 -1.296057
v 1.583246 -0.662345 -0.424047
v 1.583246 0.396035 -1.568894
v 2.287699 -0.463276 -1.296057
v 2.254908 -0.393423 -0.424047
v 2.329285 0.190828 -1.282330
v 2.534828 0.190833 -0.424047
v 1.583246 0.872801 -1.132889
v 1.583246 1.163795 -0.424047
v 2.178045 0.754110 -0.982509
v 2.299170 0.804401 -0.424047
v -0.115493 -0.602371 0.533314
v -0.409778 -0.568285 1.319972
v 0.205362 -0.244086 0.880885
v 0.026227 -0.175050 1.319972
v 0.760137 -0.458896 0.478059
v 0.856778 0.116257 0.829265
v 0.720882 0.222700 1.174637
v -0.568246 -0.510144 1.777216
v -0.191534 0.234765 2.185689
v -0.396161 0.622293 2.630584
v 0.390932 0.428578 2.012822
v 1.111632 1.202099 0.435448
v 0.688083 1.105201 1.407173
v 0.953417 1.847651 0.365226
v 0.649976 1.934852 1.319972
v -0.012508 1.092372 2.375592
v -0.228313 0.843571 2.629935
v -0.160773 1.934852 2.100927
v 0.359322 1.065442 2.065882
v 0.337360 1.934852 1.874586
v 1.583246 -0.406984 0.333632
v 1.496045 0.260177 0.714183
v 2.119389 -0.313857 0.242278
v 2.255179 0.190833 0.329152
v 1.496045 1.034034 0.286905
v 2.233683 0.736317 0.204562
v -0.466188 2.890005 -1.733434
v -0.593066 3.246659 -1.733892
v -0.148793 2.786835 -1.367105
v 0.274400 3.230614 -0.858876
v -0.207220 3.640212 -1.201788
v 0.217269 3.717407 -0.859325
v 0.343421 2.649275 -0.938266
v 0.481966 2.886712 -0.510542
v 0.375164 3.717406 -0.510521
v -0.232603 4.413406 -0.936651
v -0.014960 4.581049 -0.669909
v -0.574952 5.746359 -0.905824
v -0.197440 5.457464 -0.492901
v 0.325490 4.526453 -0.368651
v 0.343633 5.168570 -0.167955
v -0.574952 5.954272 -0.905824
v -0.433776 6.045242 -0.424046
v -0.465760 3.215184 1.732188
v -0.169363 3.613051 1.530326
v 0.748338 2.806861 0.447963
v 0.592330 2.806861 1.319973
v 0.568303 3.678871 0.447963
v 0.432557 3.613051 1.306027
v -0.169363 2.877454 1.858419
v 0.115580 3.278502 1.783691
v 0.326500 2.806861 1.841151
v 0.313232 3.278502 1.783691
v 0.240129 4.753503 0.642790
v -0.101655 4.560763 1.110605
v -0.086420 5.440947 0.535866
v -0.352912 5.131983 1.032653
v 0.337881 4.540627 0.432513
v 0.300013 4.276682 1.006061
v 0.343633 5.168570 0.271728
v -0.401268 6.011981 0.218664
vn -0.1262 -0.9823 0.1382
vn 0.4821 -0.8672 -0.1248
vn 0.3858 -0.9214 -0.0457
vn -0.2472 -0.9669 0.0636
vn 0.0269 -0.7872 -0.6161
vn 0.4104 -0.7293 -0.5474
vn -0.4427 -0.7027 -0.5569
vn -0.5076 -0.8471 0.1573
vn -0.6654 -0.3492 -0.6597
vn -0.6377 0.3567 -0.6827
vn -0.3414 0.3808 -0.8592
vn -0.4723 -0.3956 -0.7877
vn -0.8600 -0.5051 -0.0725
vn -0.8450 -0.5333 0.0397
vn -0.9197 0.3803 -0.0976
vn -0.8816 0.4104 -0.2328
vn -0.5984 -0.7968 0.0829
vn -0.3771 -0.9137 0.1515
vn -0.9245 0.3416 -0.1688
vn -0.6055 0.5678 -0.5577
vn -0.7190 -0.2375 -0.6531
vn -0.8978 -0.4265 -0.1098
vn -0.9985 0.0534 0.0130
vn -0.7241 0.0371 -0.6887
vn -0.5704 0.0662 -0.8187
vn -0.9455 -0.2587 -0.1979
vn -0.1488 0.0647 -0.9867
vn -0.0768 -0.1873 -0.9793
vn -0.2320 0.2139 -0.9489
vn 0.2154 -0.1409 -0.9663
vn 0.4920 -0.3913 -0.7777
vn 0.5640 -0.7492 -0.3472
vn 0.4772 -0.7934 -0.3778
vn 0.6066 -0.7685 -0.2033
vn 0.8293 -0.5041 -0.2411
vn -0.3615 0.4088 -0.8379
vn -0.2723 0.1566 -0.9494
vn -0.3104 0.2996 -0.9022
vn -0.4257 0.3985 -0.8123
vn -0.4289 -0.8365 0.3409
vn -0.4944 -0.8540 0.1620
vn -0.2913 0.4561 -0.8409
vn -0.1662 0.3042 -0.9380
vn -0.2228 0.4247 -0.8774
vn -0.4177 0.4901 -0.7651
vn -0.3331 -0.9416 -0.0482
vn 0.3119 -0.9499 -0.0205
vn 0.3546 -0.9318 0.0780
vn -0.3882 -0.9203 0.0479
vn 0.3660 -0.7408 0.5632
vn -0.2488 -0.7816 0.5720
vn -0.7978 -0.5940 0.1028
vn -0.7245 -0.5276 0.4435
vn -0.8343 0.2010 0.5133
vn -0.9399 0.3122 0.1384
vn -0.3524 -0.9333 0.0681
vn -0.6730 -0.6131 0.4136
vn -0.7870 0.0644 0.6135
vn -0.9337 0.2983 0.1979
vn -0.9206 -0.0804 0.3822
vn -0.7532 0.1558 0.6390
vn -0.6525 0.1204 0.7482
vn -0.8040 0.0685 0.5907
vn -0.9222 0.0678 0.3807
vn -0.8991 -0.2271 0.3742
vn 0.3761 -0.5101 0.7735
vn -0.0995 -0.2852 0.9533
vn -0.3551 0.0199 0.9346
vn -0.3636 -0.3945 0.8439
vn -0.3512 0.3128 0.8825
vn -0.3144 0.3294 0.8903
vn -0.4270 0.3125 0.8485
vn -0.4343 0.2641 0.8611
vn -0.5436 -0.8390 -0.0228
vn -0.6329 -0.7668 0.1065
vn -0.6709 0.0726 0.7379
vn -0.7116 -0.3611 0.6027
vn -0.4697 0.3025 0.8294
vn -0.4104 0.2200 0.8849
vn -0.3126 -0.3177 0.8951
vn -0.3177 0.2753 0.9073
vn -0.3816 0.2695 0.8842
vn -0.5915 0.2248 0.7743
vn 0.5291 -0.8484 -0.0129
vn 0.6121 -0.7634 0.2060
vn -0.7480 0.0285 -0.6631
vn -0.9826 0.1443 0.1165
vn -0.9930 0.0221 -0.1162
vn -0.7561 0.2539 -0.6031
vn -0.9601 0.1880 -0.2072
vn -0.4267 0.2011 -0.8817
vn -0.1478 -0.0344 -0.9884
vn -0.9024 0.1439 0.4062
vn -0.5474 0.2665 -0.7933
vn -0.7053 0.6981 -0.1229
vn -0.5932 0.6968 0.4031
vn -0.5499 0.6055 -0.5752
vn -0.1880 -0.0168 -0.9820
vn -0.0851 0.0752 -0.9935
vn -0.1646 0.3130 -0.9354
vn -0.3302 -0.0757 -0.9408
vn -0.2257 0.1907 -0.9554
vn -0.7870 0.5360 -0.3052
vn -0.3611 0.9119 -0.1952
vn 0.1117 0.3350 -0.9355
vn -0.0053 0.3633 -0.9316
vn 0.0335 0.4950 -0.8682
vn 0.1514 -0.3236 -0.9340
vn 0.0603 -0.2615 -0.9633
vn -0.8248 0.4579 -0.3317
vn -0.3687 -0.2751 -0.8879
vn -0.3242 0.3657 -0.8724
vn -0.6771 0.7223 -0.1408
vn 0.0289 0.9902 -0.1363
vn 0.0206 0.5592 -0.8287
vn -0.4505 0.5034 -0.7372
vn -0.9199 0.0677 0.3862
vn -0.5724 0.0426 0.8188
vn -0.5825 0.1417 0.8003
vn -0.8735 -0.0356 0.4855
vn -0.3131 0.3431 0.8856
vn -0.1886 0.2378 0.9528
vn -0.1426 0.1351 0.9805
vn -0.2677 0.2082 0.9407
vn -0.6900 0.6977 0.1926
vn -0.3627 0.3093 0.8791
vn -0.4310 0.5165 0.7399
vn -0.7728 0.5322 0.3458
vn 0.0024 0.5284 0.8490
vn -0.0293 0.6968 0.7166
vn -0.0373 0.1393 0.9895
vn -0.4884 0.4241 0.7626
vn -0.5724 0.7288 0.3757
vn -0.8173 0.4583 0.3491
vn -0.7945 -0.2147 0.5679
vn -0.0033 0.8635 0.5043
vn -0.6230 0.7012 0.3465
vn -0.2855 -0.8163 -0.5021
vn 0.0149 -0.9462 -0.3233
vn -0.0059 -0.8831 -0.4691
vn -0.0335 -0.8731 -0.4863
vn -0.3561 -0.8522 -0.3833
vn -0.0776 -0.9970 0.0011
vn -0.1123 -0.0915 -0.9894
vn 0.7586 0.2796 -0.5885
vn 0.9006 0.2794 -0.3328
vn 0.6964 0.6742 -0.2459
vn 0.5231 0.5252 -0.6712
vn 0.5356 0.3702 -0.7590
vn 0.3831 0.3113 -0.8696
vn 0.0239 -0.5557 -0.8310
vn 0.0589 0.4289 -0.9014
vn 0.6908 0.3490 -0.6333
vn 0.6673 -0.4924 -0.5587
vn 0.8627 0.3053 -0.4031
vn 0.9985 -0.0023 0.0551
vn 0.7183 -0.6811 0.1419
vn 0.7627 -0.6347 -0.1240
vn 0.0884 -0.9878 -0.1278
vn 0.1718 -0.9750 0.1410
vn 0.3883 0.9181 -0.0798
vn 0.7467 0.6649 -0.0174
vn 0.6084 0.6627 -0.4367
vn 0.3103 0.7297 -0.6093
vn -0.5265 -0.5424 -0.6546
vn -0.1612 0.0702 -0.9844
vn 0.1609 -0.3912 -0.9061
vn 0.2395 0.2391 -0.9410
vn 0.4767 0.3053 -0.8243
vn 0.2065 0.6963 -0.6873
vn 0.1269 0.4916 -0.8615
vn 0.4557 -0.7422 0.4913
vn 0.5666 -0.7315 0.3793
vn 0.5833 -0.7558 0.2975
vn 0.3628 -0.9093 0.2037
vn 0.5329 -0.3982 0.7466
vn 0.7751 -0.4571 0.4361
vn 0.1549 -0.8273 0.5399
vn 0.9743 0.2234 0.0271
vn 0.9183 0.1111 0.3800
vn 0.9119 0.0385 0.4086
vn 0.7973 0.4302 0.4234
vn 0.7192 0.0361 0.6939
vn 0.6789 0.1509 0.7186
vn 0.1175 0.2781 0.9533
vn 0.3796 0.1901 0.9054
vn 0.5624 -0.6270 0.5390
vn 0.7334 -0.0385 0.6786
vn 0.3052 -0.0024 0.9523
vn 0.2517 -0.7500 0.6117
vn 0.6587 0.5567 0.5061
vn 0.3942 0.7182 0.5734
vn 0.4514 0.1548 0.8788
vn 0.3029 -0.3808 0.8736
vn 0.4493 -0.5624 0.6941
vn 0.6813 -0.3900 0.6194
vn 0.5048 -0.6454 0.5732
vn 0.4555 0.3511 -0.8180
vn 0.7437 0.2071 -0.6356
vn 0.7963 0.1445 -0.5873
vn 0.5327 0.0393 -0.8453
vn 0.9138 0.1598 -0.3735
vn 0.8018 0.1402 -0.5808
vn 0.9197 0.1778 -0.3500
vn 0.5362 0.3048 -0.7871
vn 0.7300 0.3371 -0.5945
vn 0.8390 0.4576 -0.2944
vn 0.8955 0.1865 -0.4041
vn 0.3122 0.4207 -0.8518
vn 0.2896 0.4002 -0.8694
vn 0.3394 -0.4455 -0.8284
vn 0.4680 0.5090 -0.7224
vn 0.6491 0.7352 -0.1950
vn 0.5040 -0.0229 -0.8634
vn 0.9793 0.2022 0.0027
vn 0.7704 0.3849 0.5083
vn 0.9379 0.1291 0.3221
vn 0.9843 0.1757 -0.0155
vn 0.5865 0.1335 0.7988
vn 0.5138 0.3936 0.7623
vn 0.0414 0.4538 0.8901
vn -0.0530 0.2486 0.9671
vn 0.6159 0.6398 0.4597
vn 0.3804 0.4733 0.7945
vn 0.4018 0.3495 0.8464
vn 0.7410 0.3839 0.5510
vn 0.7570 0.3865 0.5267
vn 0.9513 0.2375 0.1965
vn 0.8647 0.4621 0.1968
vn 0.0117 0.4539 0.8910
vn -0.2628 0.4059 0.8753
vn -0.2860 0.2725 0.9187
vn 0.5725 0.7479 0.3358
vn -0.9324 0.2222 0.2850
s 1
f 5//1 7//2 8//3 6//4
f 3//5 4//6 7//2 5//1
f 1//7 3//5 5//1 2//8
f 9//9 10//10 12//11 11//12
f 13//13 14//14 16//15 15//16
f 13//13 17//17 18//18 14//14
f 16//15 20//19 19//20 15//16
f 21//21 22//22 24//23 23//24
f 21//21 25//25 26//26 22//22
f 21//21 23//24 27//27 25//25
f 28//28 29//29 31//30 30//31
f 37//32 38//33 36//34 35//35
f 42//36 43//37 45//38 44//39
f 11//12 12//11 29//29 28//28
f 17//17 32//40 33//41 18//18
f 25//25 27//27 43//37 42//36
f 29//29 39//42 40//43 31//30
f 19//20 20//19 26//26 25//25
f 9//9 13//13 15//16 10//10
f 9//9 11//12 17//17 13//13
f 15//16 19//20 12//11 10//10
f 31//30 37//32 35//35 30//31
f 40//43 44//39 45//38 41//44
f 42//36 44//39 40//43 39//42
f 29//29 34//45 42//36 39//42
f 19//20 34//45 29//29 12//11
f 19//20 25//25 42//36 34//45
f 3//5 28//28 30//31 4//6
f 5//1 6//4 33//41 32//40
f 35//35 36//34 8//3 7//2
f 1//7 2//8 17//17 11//12
f 30//31 35//35 7//2 4//6
f 1//7 11//12 28//28 3//5
f 5//1 32//40 17//17 2//8
f 46//46 48//47 49//48 47//49
f 47//49 49//48 51//50 50//51
f 52//52 53//53 55//54 54//55
f 52//52 56//56 57//57 53//53
f 55//54 59//58 58//59 54//55
f 57//57 59//58 55//54 53//53
f 64//60 65//61 67//62 66//63
f 64//60 66//63 63//64 62//65
f 75//66 76//67 74//68 73//69
f 83//70 85//71 82//72 81//73
f 56//56 69//74 70//75 57//57
f 73//69 74//68 61//76 60//77
f 78//78 79//79 67//62 65//61
f 58//59 59//58 65//61 64//60
f 76//67 77//80 84//81 83//70
f 76//67 83//70 81//73 74//68
f 57//57 60//77 61//76 59//58
f 78//78 81//73 82//72 79//79
f 82//72 85//71 80//82 79//79
f 59//58 61//76 68//83 65//61
f 57//57 70//75 73//69 60//77
f 68//83 81//73 78//78 65//61
f 74//68 81//73 68//83 61//76
f 46//46 47//49 70//75 69//74
f 71//84 72//85 49//48 48//47
f 51//50 75//66 73//69 50//51
f 47//49 50//51 73//69 70//75
f 72//85 75//66 51//50 49//48
f 86//86 87//87 89//88 88//89
f 89//88 93//90 92//91 88//89
f 86//86 88//89 92//91 90//92
f 91//93 93//90 89//88 87//87
f 95//94 96//95 98//96 97//97
f 101//98 102//99 104//100 103//101
f 107//102 108//103 106//104 105//105
f 106//104 110//106 109//107 105//105
f 107//102 111//108 112//109 108//103
f 106//104 108//103 112//109 110//106
f 90//92 92//91 102//99 101//98
f 98//96 108//103 107//102 97//97
f 95//94 97//97 107//102 105//105
f 106//104 108//103 98//96 96//95
f 92//91 93//90 96//95 95//94
f 89//88 94//110 96//95 93//90
f 102//99 105//105 109//107 104//100
f 99//111 103//101 104//100 100//112
f 92//91 95//94 105//105 102//99
f 114//113 116//114 115//115 113//116
f 107//102 108//103 114//113 113//116
f 107//102 113//116 115//115 111//108
f 119//117 120//118 122//119 121//120
f 128//121 129//122 127//123 126//124
f 131//125 132//126 134//127 133//128
f 134//127 137//129 136//130 133//128
f 135//131 137//129 134//127 132//126
f 126//124 127//123 122//119 120//118
f 125//132 132//126 131//125 124//133
f 121//120 122//119 125//132 124//133
f 121//120 124//133 123//134 118//135
f 129//122 135//131 132//126 127//123
f 127//123 132//126 125//132 122//119
f 136//130 139//136 138//137 133//128
f 143//138 144//139 146//140 145//141
f 143//138 147//142 148//143 144//139
f 143//138 145//141 149//144 147//142
f 157//145 158//146 156//147 155//148
f 153//149 154//150 157//145 155//148
f 159//151 160//152 162//153 161//154
f 168//155 169//156 167//157 166//158
f 163//159 166//158 167//157 164//160
f 171//161 173//162 172//163 170//164
f 141//165 142//166 160//152 159//151
f 147//142 163//159 164//160 148//143
f 156//147 171//161 170//164 155//148
f 140//167 150//168 152//169 142//166
f 172//163 173//162 169//156 168//155
f 165//170 170//164 172//163 168//155
f 141//165 147//142 149//144 142//166
f 140//167 142//166 149//144 145//141
f 151//171 154//150 153//149 150//168
f 153//149 155//148 152//169 150//168
f 162//153 168//155 166//158 161//154
f 159//151 161//154 166//158 163//159
f 165//170 168//155 162//153 160//152
f 152//169 155//148 149//144 142//166
f 141//165 159//151 163//159 147//142
f 149//144 165//170 160//152 142//166
f 149//144 155//148 170//164 165//170
f 176//172 177//173 175//174 174//175
f 176//172 179//176 180//177 177//173
f 178//178 179//176 176//172 174//175
f 187//179 188//180 186//181 185//182
f 192//183 193//184 191//185 189//186
f 196//187 197//188 195//189 194//190
f 194//190 195//189 179//176 178//178
f 185//182 186//181 180//177 179//176
f 197//188 199//191 198//192 195//189
f 189//186 190//193 183//194 182//195
f 184//196 192//183 189//186 182//195
f 177//173 182//195 181//197 175//174
f 177//173 180//177 184//196 182//195
f 188//180 193//184 192//183 186//181
f 186//181 192//183 184//196 180//177
f 195//189 198//192 185//182 179//176
f 204//198 205//199 203//200 202//201
f 203//200 207//202 206//203 202//201
f 203//200 205//199 208//204 207//202
f 210//205 212//206 214//207 213//208
f 209//209 210//205 205//199 204//198
f 205//199 210//205 213//208 208//204
f 201//210 204//198 202//201 200//211
f 215//212 216//213 212//206 211//214
f 221//215 222//216 220//217 219//218
f 225//219 226//220 224//221 223//222
f 229//223 230//224 228//225 227//226
f 228//225 232//227 231//228 227//226
f 231//228 233//229 229//223 227//226
f 231//228 232//227 222//216 221//215
f 222//216 232//227 228//225 218//230
f 217//231 223//222 224//221 218//230
f 222//216 226//220 225//219 220//217
f 224//221 226//220 222//216 218//230
f 37//32 145//141 146//140 38//33
f 36//34 38//33 146//140 144//139
f 40//43 41//44 151//171 150//168
f 31//30 140//167 145//141 37//32
f 45//38 154//150 151//171 41//44
f 31//30 40//43 150//168 140//167
f 71//84 174//175 175//174 72//85
f 76//67 182//195 183//194 77//80
f 181//197 182//195 76//67 75//66
f 84//81 190//193 189//186 83//70
f 189//186 191//185 85//71 83//70
f 72//85 175//174 181//197 75//66
f 183//194 190//193 84//81 77//80
f 99//111 100//112 201//210 200//211
f 110//106 210//205 209//209 109//107
f 111//108 211//214 212//206 112//109
f 110//106 112//109 212//206 210//205
f 99//111 200//211 202//201 103//101
f 104//100 204//198 201//210 100//112
f 104//100 109//107 209//209 204//198
f 116//114 216//213 215//212 115//115
f 111//108 115//115 215//212 211//214
f 217//231 218//230 129//122 128//121
f 137//129 230//224 229//223 136//130
f 228//225 230//224 137//129 135//131
f 130//232 223//222 217//231 128//121
f 218//230 228//225 135//131 129//122
f 229//223 234//233 139//136 136//130
f 23//24 24//23 87//87 86//86
f 23//24 86//86 90//92 27//27
f 43//37 101//98 103//101 45//38
f 27//27 90//92 101//98 43//37
f 206//203 207//202 158//146 157//145
f 154//150 202//201 206//203 157//145
f 66//63 67//62 120//118 119//117
f 66//63 119//117 117//234 63//64
f 80//82 128//121 126//124 79//79
f 80//82 85//71 130//232 128//121
f 79//79 126//124 120//118 67//62
f 219//218 220//217 188//180 187//179
f 193//184 225//219 223//222 191//185
f 220//217 225//219 193//184 188//180
f 6//4 8//3 48//47 46//46
f 14//14 52//52 54//55 16//15
f 14//14 18//18 56//56 52//52
f 54//55 58//59 20//19 16//15
f 22//22 62//65 63//64 24//23
f 22//22 26//26 64//60 62//65
f 20//19 58//59 64//60 26//26
f 18//18 33//41 69//74 56//56
f 6//4 46//46 69//74 33//41
f 36//34 71//84 48//47 8//3
f 91//93 119//117 121//120 93//90
f 117//234 119//117 91//93 87//87
f 89//88 93//90 121//120 118//135
f 123//134 124//133 96//95 94//110
f 106//104 131//125 133//128 108//103
f 89//88 118//135 123//134 94//110
f 124//133 131//125 106//104 96//95
f 138//137 139//136 116//114 114//113
f 108//103 133//128 138//137 114//113
f 144//139 148//143 178//178 174//175
f 158//146 187//179 185//182 156//147
f 169//156 197//188 196//187 167//157
f 164//160 167//157 196//187 194//190
f 198//192 199//191 173//162 171//161
f 173//162 199//191 197//188 169//156
f 148//143 164//160 194//190 178//178
f 185//182 198//192 171//161 156//147
f 208//204 221//215 219//218 207//202
f 214//207 233//229 231//228 213//208
f 229//223 233//229 214//207 212//206
f 213//208 231//228 221//215 208//204
f 216//213 234//233 229//223 212//206
f 24//23 63//64 117//234 87//87
f 207//202 219//218 187//179 158//146
f 36//34 144//139 174//175 71//84
f 139//136 234//233 216//213 116//114
f 45//38 103//101 202//201 154//150
f 191//185 223//222 130//232 85//71
