# Blender v2.79 (sub 0) OBJ File: 'PolyClouds.blend'
# www.blender.org
o Cube.003_Cube.001
v -3.454526 -0.716421 -0.125579
v -3.474557 -0.198255 -0.667749
v -3.577153 -0.375962 -0.303870
v -2.076065 -0.710483 -1.314997
v -2.106352 -0.254253 -1.528712
v -2.779248 -0.652495 -0.589185
v -3.013047 -0.704642 -0.303870
v -3.013047 -0.375962 -0.740409
v -3.220854 -0.639862 -0.567186
v -2.369934 -0.684498 -0.801048
v -2.393051 -0.661067 -0.284254
v -2.481278 -0.377558 -0.947508
v -1.528792 -0.664470 -1.921738
v -1.732846 -0.766340 -1.547449
v -1.726618 -0.254253 -1.936302
v -1.991582 -0.254253 -1.793675
v -1.300923 -0.664470 -1.921738
v -1.066197 -0.785044 -1.604533
v -1.066197 -0.317501 -1.946823
v -0.859317 -0.542427 -1.851745
v -1.707721 -0.847803 -0.902511
v -1.773962 -0.822397 -0.301915
v -0.979071 -0.828286 -0.840881
v -1.085546 -1.064559 -0.173860
v -3.454526 -0.716421 0.259387
v -3.526005 -0.299882 0.457037
v -3.389311 -0.071455 0.767020
v -3.032541 -0.712692 0.285541
v -2.986712 -0.365943 0.644100
v -2.986712 -0.100979 0.814489
v -2.430280 -0.702479 0.357391
v -2.199100 -0.764987 1.084719
v -2.625957 -0.559496 0.490534
v -2.513433 -0.311137 1.071350
v -2.112803 -0.713175 1.538146
v -2.196088 -0.311318 1.615201
v -1.707721 -0.983731 0.422309
v -1.707721 -0.954695 1.084719
v -1.085546 -1.163701 0.356067
v -1.014829 -0.858755 1.118514
v -0.773704 -0.601420 1.361849
v -1.707721 -0.771361 1.644236
v -1.703269 -0.347822 1.949625
v -1.479496 -0.151356 2.131648
v -1.215311 -0.743655 1.598117
v -1.037944 -0.376388 1.774050
v -1.302185 -0.151356 2.131648
v -3.474557 0.175901 -0.667748
v -3.522685 0.370922 -0.215576
v -2.114164 0.125774 -1.423290
v -3.032541 0.292031 -0.769276
v -3.131629 0.607308 -0.164462
v -2.349033 0.321393 -0.936780
v -2.368983 0.620107 -0.248456
v -2.147415 0.732225 -0.033224
v -1.586941 0.096111 -1.937475
v -1.767735 0.254998 -1.612424
v -1.045311 0.159514 -1.940287
v -1.099023 0.522397 -1.561234
v -0.914028 0.700241 -1.337974
v -1.707721 0.536321 -0.902511
v -1.724142 0.641104 -0.373535
v -1.724142 0.752072 -0.108571
v -1.203991 0.653082 -0.844828
v -1.330659 0.644668 -0.558967
v -0.939027 0.732997 -0.844828
v -1.084038 0.889158 -0.298939
v -3.498484 0.195335 0.422309
v -3.389311 0.045577 0.767020
v -3.038237 0.426365 0.422309
v -2.986712 0.152952 0.814489
v -2.603359 0.619759 0.422309
v -2.566311 0.402502 1.071350
v -2.272154 0.786550 0.422309
v -2.265198 0.871742 1.084719
v -2.215091 0.351092 1.644649
v -2.138140 0.845814 1.577411
v -1.678823 1.005784 0.418124
v -1.765835 1.202947 1.084719
v -0.795856 0.658693 0.719596
v -0.795856 0.658693 0.885619
v -1.047376 1.042207 0.511567
v -0.895920 0.955406 1.097741
v -1.703269 0.402524 1.989075
v -1.479496 0.216009 2.131648
v -1.672830 1.045371 1.657673
v -1.096052 0.449153 1.921695
v -1.287024 0.332581 2.118319
v -1.061860 0.909887 1.671042
v -1.401752 1.347827 0.745145
v -1.434630 1.357198 1.084719
v -1.298896 1.347827 0.745145
v -1.211265 1.357198 1.084719
v -1.428766 1.358241 1.448676
v -1.233802 1.358241 1.448676
v -0.533841 -0.741656 -1.410138
v -0.545772 -0.100821 -1.913659
v -0.319004 -0.312986 -1.630118
v -0.035657 -0.083545 -1.408491
v -0.595732 -0.708449 -0.840881
v -0.438928 -0.838669 -0.252528
v -0.284256 -0.407032 -0.838195
v -0.255475 -0.509715 -0.481616
v 0.509703 -0.752043 -0.732773
v 0.285142 -0.854868 -0.252528
v 0.195777 -0.251413 -0.952060
v 0.068096 -0.509715 -0.481616
v 1.175888 -0.671439 -1.246896
v 1.054884 -0.311317 -1.312748
v 1.356290 -0.671439 -1.246896
v 1.444943 -0.311317 -1.312748
v 0.949819 -0.820135 -0.933150
v 0.941918 -1.002645 -0.240101
v 0.723679 -0.311317 -1.174260
v 1.587987 -0.777648 -0.879006
v 1.604328 -0.902508 -0.240101
v 1.776148 -0.311317 -1.061057
v 1.984578 -0.681231 -0.642532
v 2.077876 -0.709962 -0.240101
v 2.047845 -0.311317 -0.729852
v 2.247437 -0.311317 -0.240101
v -0.382902 -0.985405 0.422309
v -0.382902 -0.748281 0.920147
v -0.382902 -0.519198 1.251352
v 0.279508 -0.866034 0.422309
v 0.363914 -0.698058 1.028015
v 0.240513 -0.550025 1.165265
v -0.382902 -0.187993 1.592836
v 0.558721 -0.699968 1.515145
v 0.282904 -0.276258 1.758054
v 0.448693 -0.033324 2.128492
v 0.934737 -0.782392 0.419948
v 0.880733 -0.693803 1.065803
v 1.150815 -0.311318 0.647193
v 1.042795 -0.377558 0.898939
v 1.604328 -0.755289 0.270048
v 1.305142 -0.667580 1.326146
v 1.604328 -0.311318 0.514893
v 1.377843 -0.311318 1.227540
v 0.941918 -0.704399 1.533973
v 0.925921 -0.277004 1.876514
v 0.694452 -0.033324 2.128492
v 1.305142 -0.667580 1.474100
v 1.377843 -0.311318 1.586041
v 2.076278 -0.693733 0.223229
v 2.135125 -0.311318 0.290009
v -0.545772 0.129834 -1.913659
v -0.376077 0.333665 -1.594035
v -0.647988 0.700241 -1.337974
v -0.035657 0.095891 -1.408491
v -0.302364 0.464735 -0.841484
v -0.215931 0.626293 -0.240101
v -0.617461 0.732997 -0.844828
v -0.547136 0.891101 -0.240101
v 0.177126 0.228034 -0.934785
v 0.245944 0.618415 -0.227539
v 0.444370 0.693866 0.001639
v 1.079373 0.215082 -1.325912
v 1.412061 0.331887 -1.302863
v 0.930390 0.432791 -0.989204
v 0.933608 0.639902 -0.221311
v 1.223015 0.722293 -0.764631
v 0.933608 0.708080 -0.221311
v 1.594457 0.456313 -0.998122
v 1.611839 0.578206 -0.230114
v 1.394806 0.712295 -0.881902
v 1.396044 0.722293 -0.444261
v 2.036237 0.180609 -0.711475
v 2.105093 0.260723 -0.240101
v -0.319067 0.666328 0.424386
v -0.377919 0.665332 1.144328
v -0.452751 0.841185 0.259823
v -0.443164 0.724142 1.354972
v 0.103623 0.678130 0.440809
v 0.102010 0.676101 1.061859
v 0.324426 0.706737 0.440809
v 0.297196 0.805512 1.120871
v -0.377919 0.457922 1.621425
v -0.443164 0.724142 1.520995
v 0.024638 0.413047 1.843216
v 0.374927 0.351092 2.154895
v 0.254332 0.845810 1.757157
v 0.458351 0.745700 2.130256
v 0.965067 0.434997 0.518462
v 1.015847 0.417333 0.908913
v 0.662918 0.711625 0.487907
v 0.858276 0.777740 1.074115
v 1.604328 0.266039 0.335949
v 1.354169 0.351092 1.215076
v 1.273577 0.682922 1.309527
v 1.077648 0.351092 1.879104
v 0.746443 0.351092 2.154895
v 0.934017 0.812485 1.685280
v 0.707946 0.745700 2.130256
v 1.354169 0.351092 1.547899
v 1.273577 0.682922 1.423244
v 2.060910 0.180279 0.224186
vt 0.134865 0.776937
vt 0.123000 0.796128
vt 0.109493 0.783481
vt 0.114121 0.761802
vt 0.161388 0.761720
vt 0.160374 0.795303
vt 0.146566 0.743571
vt 0.215916 0.703099
vt 0.204172 0.721936
vt 0.182672 0.692173
vt 0.199950 0.684691
vt 0.239376 0.683767
vt 0.250118 0.699919
vt 0.238947 0.719223
vt 0.226823 0.702819
vt 0.204511 0.758548
vt 0.247894 0.761412
vt 0.243544 0.804162
vt 0.199897 0.794471
vt 0.183965 0.733105
vt 0.170642 0.705595
vt 0.082668 0.768675
vt 0.081773 0.796188
vt 0.102112 0.806926
vt 0.157502 0.836357
vt 0.176679 0.878663
vt 0.145759 0.887324
vt 0.143702 0.846911
vt 0.118297 0.858024
vt 0.111376 0.876523
vt 0.121888 0.828990
vt 0.205954 0.838632
vt 0.243266 0.835790
vt 0.246044 0.883349
vt 0.206754 0.876418
vt 0.751006 0.607237
vt 0.798047 0.620202
vt 0.769084 0.630613
vt 0.760198 0.627934
vt 0.230759 0.909314
vt 0.242017 0.932336
vt 0.200315 0.937210
vt 0.204527 0.908121
vt 0.168618 0.917983
vt 0.185131 0.901024
vt 0.260466 0.904751
vt 0.085881 0.842841
vt 0.087778 0.867883
vt 0.101469 0.823316
vt 0.606929 0.706143
vt 0.636425 0.736886
vt 0.602629 0.774026
vt 0.582432 0.733934
vt 0.613730 0.833267
vt 0.653613 0.848727
vt 0.637044 0.875277
vt 0.611217 0.857362
vt 0.672796 0.809359
vt 0.675487 0.790440
vt 0.701324 0.784562
vt 0.687682 0.818563
vt 0.662526 0.767358
vt 0.643558 0.795219
vt 0.673535 0.753751
vt 0.656237 0.734448
vt 0.672166 0.842645
vt 0.595878 0.813280
vt 0.587516 0.695761
vt 0.571456 0.711777
vt 0.649771 0.694304
vt 0.672531 0.657025
vt 0.693037 0.681221
vt 0.667926 0.708168
vt 0.635814 0.647949
vt 0.625350 0.677942
vt 0.730874 0.744133
vt 0.756168 0.720855
vt 0.763183 0.738393
vt 0.759039 0.745779
vt 0.755753 0.643816
vt 0.761816 0.650813
vt 0.770973 0.664574
vt 0.741249 0.650378
vt 0.759553 0.689914
vt 0.732095 0.681214
vt 0.727608 0.707624
vt 0.735079 0.711459
vt 0.726388 0.721800
vt 0.722488 0.720063
vt 0.714983 0.699743
vt 0.697292 0.729381
vt 0.714338 0.669855
vt 0.709886 0.645931
vt 0.739688 0.700192
vt 0.734003 0.697173
vt 0.609861 0.645928
vt 0.598649 0.664446
vt 0.298630 0.750287
vt 0.300747 0.771842
vt 0.286560 0.795893
vt 0.272299 0.757317
vt 0.352766 0.769219
vt 0.334857 0.798312
vt 0.319750 0.772553
vt 0.328609 0.739765
vt 0.392558 0.746247
vt 0.385934 0.726613
vt 0.409991 0.729209
vt 0.401231 0.747546
vt 0.379142 0.762482
vt 0.412322 0.766317
vt 0.412869 0.799572
vt 0.376686 0.801507
vt 0.363905 0.730794
vt 0.287582 0.702451
vt 0.267429 0.725634
vt 0.313195 0.709716
vt 0.433456 0.742541
vt 0.451216 0.763986
vt 0.463720 0.795435
vt 0.438421 0.797687
vt 0.433840 0.777458
vt 0.287888 0.841205
vt 0.332395 0.844034
vt 0.336002 0.887644
vt 0.287331 0.876928
vt 0.325952 0.899694
vt 0.286308 0.903087
vt 0.407661 0.870720
vt 0.397528 0.885219
vt 0.371298 0.891270
vt 0.378525 0.845981
vt 0.417826 0.827558
vt 0.432448 0.854107
vt 0.405998 0.915116
vt 0.386251 0.913759
vt 0.384520 0.919749
vt 0.394120 0.936308
vt 0.365371 0.949037
vt 0.368459 0.919922
vt 0.875665 0.675083
vt 0.903414 0.706999
vt 0.880033 0.709108
vt 0.872938 0.701034
vt 0.327831 0.939584
vt 0.349275 0.916533
vt 0.285755 0.932815
vt 0.439547 0.818859
vt 0.457735 0.828943
vt 0.704089 0.831411
vt 0.730261 0.800868
vt 0.752580 0.818515
vt 0.723661 0.852017
vt 0.781143 0.834833
vt 0.745619 0.888169
vt 0.800785 0.901997
vt 0.820724 0.856657
vt 0.824943 0.855382
vt 0.825202 0.891389
vt 0.831438 0.897089
vt 0.840035 0.882724
vt 0.857554 0.880864
vt 0.836790 0.912412
vt 0.829233 0.854522
vt 0.802687 0.826728
vt 0.824899 0.855299
vt 0.683397 0.851521
vt 0.683201 0.881881
vt 0.705949 0.898661
vt 0.822397 0.924479
vt 0.806319 0.926625
vt 0.881541 0.899745
vt 0.866295 0.919093
vt 0.795354 0.789349
vt 0.811637 0.754525
vt 0.825883 0.755988
vt 0.808845 0.796122
vt 0.789481 0.735547
vt 0.770159 0.776616
vt 0.792632 0.720232
vt 0.840955 0.701416
vt 0.861150 0.711204
vt 0.856257 0.722368
vt 0.841149 0.727012
vt 0.798632 0.710999
vt 0.812227 0.694984
vt 0.830697 0.803613
vt 0.853540 0.768808
vt 0.873221 0.786805
vt 0.861324 0.812977
vt 0.873466 0.758509
vt 0.886835 0.763912
vt 0.862842 0.742676
vt 0.861516 0.727217
vt 0.870507 0.719706
vt 0.880457 0.732316
vt 0.886785 0.748905
vt 0.874049 0.754153
vt 0.274814 0.678671
vt 0.660682 0.890495
vt 0.752720 0.779318
vt 0.549841 0.711039
vt 0.543232 0.681691
vt 0.588258 0.863990
vt 0.577078 0.845887
vt 0.617282 0.898935
vt 0.542970 0.743435
vt 0.553158 0.780891
vt 0.572067 0.826133
vt 0.678937 0.923155
vt 0.656435 0.905179
vt 0.705042 0.910353
vt 0.795000 0.954463
vt 0.821765 0.960777
vt 0.737723 0.925205
vt 0.772387 0.943722
vt 0.852092 0.958074
vt 0.910412 0.922833
vt 0.880623 0.945704
vt 0.578698 0.642298
vt 0.606351 0.639304
vt 0.666499 0.608445
vt 0.631564 0.630317
vt 0.710154 0.605859
vt 0.927287 0.796044
vt 0.920302 0.813847
vt 0.926194 0.846389
vt 0.886497 0.855768
vt 0.925629 0.762250
vt 0.833799 0.654989
vt 0.921853 0.738205
vt 0.927287 0.887433
vt 0.897430 0.881056
vn -0.1327 -0.8898 -0.4367
vn -0.0971 -0.9669 -0.2359
vn -0.3726 -0.7152 -0.5913
vn -0.3106 -0.3809 -0.8708
vn -0.3858 -0.8655 -0.3193
vn -0.1273 -0.9907 -0.0482
vn -0.6118 -0.2490 -0.7507
vn -0.2265 -0.5946 -0.7715
vn -0.3466 -0.8589 -0.3770
vn -0.7141 -0.0470 -0.6984
vn -0.4297 -0.0399 -0.9021
vn 0.1415 -0.2087 -0.9677
vn 0.3580 -0.5502 -0.7544
vn 0.1756 -0.9092 -0.3775
vn 0.0616 -0.6043 -0.7943
vn -0.1495 -0.9844 -0.0929
vn 0.1002 -0.9841 -0.1469
vn 0.0196 -0.9767 -0.2134
vn -0.2422 -0.9637 -0.1125
vn -0.5682 -0.7305 -0.3788
vn -0.7997 -0.0724 -0.5959
vn -0.6772 -0.1575 -0.7187
vn -0.9198 -0.3014 -0.2511
vn -0.5769 -0.8088 -0.1141
vn -0.3129 -0.9413 0.1263
vn -0.5722 -0.7868 0.2314
vn -0.7390 -0.3951 0.5456
vn -0.3751 -0.7402 0.5581
vn -0.2733 -0.6776 0.6827
vn -0.3606 -0.3581 0.8612
vn -0.0651 -0.9167 0.3941
vn -0.2561 -0.9666 -0.0027
vn 0.0347 -0.9987 0.0362
vn 0.2104 -0.8953 0.3927
vn -0.1549 -0.9669 0.2025
vn -0.2917 -0.3974 0.8701
vn 0.3958 -0.4879 0.7780
vn 0.3697 -0.3523 0.8597
vn -0.1923 -0.3506 0.9166
vn 0.2668 -0.7709 0.5784
vn -0.1277 -0.7756 0.6182
vn -0.7125 -0.2376 0.6602
vn -0.5622 -0.6532 0.5071
vn 0.3886 -0.7248 0.5688
vn -0.8176 -0.3198 0.4787
vn -0.5631 -0.2337 0.7926
vn -0.5524 -0.7569 0.3491
vn -0.3055 0.9474 -0.0953
vn -0.1903 0.9471 -0.2584
vn -0.4173 0.6749 -0.6085
vn -0.2690 0.5267 -0.8063
vn -0.4322 0.7185 -0.5450
vn -0.1278 0.8421 -0.5240
vn 0.0022 0.4431 -0.8965
vn -0.2727 0.4237 -0.8637
vn -0.3298 0.9161 -0.2279
vn -0.2709 0.9206 -0.2814
vn -0.1069 0.9568 -0.2701
vn -0.1985 0.9590 -0.2022
vn -0.1944 0.9192 -0.3423
vn -0.2443 0.9280 -0.2811
vn -0.1892 0.9167 -0.3518
vn -0.2467 0.9250 -0.2889
vn -0.1368 0.9174 -0.3738
vn -0.6812 0.5049 -0.5301
vn -0.7942 0.6003 -0.0939
vn -0.6660 0.3403 -0.6637
vn -0.4563 0.8804 0.1287
vn -0.7774 0.3831 0.4988
vn -0.6667 0.7320 0.1403
vn -0.4666 0.8725 -0.1447
vn -0.4453 0.4268 0.7871
vn -0.3834 0.8595 0.3381
vn 0.3948 0.9009 -0.1800
vn 0.7006 0.7097 -0.0739
vn 0.5087 0.8402 -0.1879
vn 0.4971 0.8529 0.1594
vn -0.2507 0.2437 0.9369
vn 0.3029 0.3900 0.8695
vn 0.3406 0.2859 0.8957
vn -0.3511 0.3013 0.8865
vn 0.3574 0.6178 0.7004
vn -0.2931 0.6529 0.6984
vn -0.3044 0.9523 -0.0199
vn 0.4794 0.8775 0.0038
vn 0.3117 0.8714 -0.3787
vn -0.1929 0.8964 -0.3989
vn -0.5233 0.8521 -0.0011
vn -0.2692 0.9000 -0.3429
vn -0.6262 0.5538 0.5487
vn -0.7176 0.1413 0.6819
vn 0.3928 0.8012 0.4515
vn -0.2091 0.8637 0.4585
vn -0.5758 0.3371 0.7448
vn -0.8014 0.4996 0.3288
vn 0.5411 -0.8003 -0.2584
vn 0.3314 -0.7662 -0.5505
vn 0.2655 -0.8985 -0.3496
vn 0.5108 -0.8445 -0.1606
vn -0.4164 -0.7563 -0.5046
vn -0.1651 -0.9426 -0.2901
vn -0.2139 -0.7577 -0.6166
vn 0.0925 -0.5723 -0.8148
vn -0.1447 -0.6176 -0.7730
vn -0.3273 -0.1236 -0.9368
vn 0.4057 -0.1247 -0.9054
vn 0.2646 -0.6125 -0.7448
vn -0.1922 -0.8440 -0.5007
vn 0.3949 -0.7997 -0.4522
vn 0.2178 -0.9758 0.0166
vn -0.0097 -0.9999 -0.0108
vn -0.4638 -0.1779 -0.8679
vn 0.6599 -0.4538 -0.5988
vn 0.5241 -0.8203 -0.2288
vn 0.7356 -0.3025 -0.6061
vn 0.6912 -0.1318 -0.7105
vn 0.8378 -0.1106 -0.5346
vn 0.9953 -0.0610 -0.0750
vn 0.7147 -0.6971 -0.0561
vn 0.6644 -0.6312 -0.4001
vn 0.1748 -0.9783 0.1107
vn 0.0462 -0.9878 0.1489
vn -0.0948 -0.9463 0.3089
vn 0.1606 -0.8711 0.4641
vn -0.3070 -0.7996 0.5161
vn 0.1409 -0.7912 0.5951
vn 0.7459 -0.1556 0.6475
vn 0.9212 -0.2724 -0.2776
vn 0.3568 -0.9307 -0.0798
vn 0.2383 -0.8997 0.3655
vn 0.2372 -0.7690 0.5936
vn 0.2979 -0.0970 0.9496
vn 0.8990 -0.1584 -0.4082
vn 0.6478 -0.7173 -0.2563
vn 0.6200 -0.7101 0.3335
vn 0.8492 -0.2099 0.4844
vn 0.3158 -0.4508 0.8349
vn 0.0987 -0.8763 0.4714
vn -0.3502 -0.6090 0.7116
vn 0.2286 -0.4088 0.8835
vn -0.3287 -0.4426 0.8342
vn -0.2759 -0.8610 0.4273
vn 0.0690 -0.4866 0.8708
vn 0.6019 -0.6337 0.4859
vn 0.7615 -0.0618 0.6452
vn 0.3561 0.9115 -0.2059
vn 0.3771 0.9120 -0.1613
vn 0.3793 0.9019 -0.2064
vn 0.5080 0.8112 -0.2896
vn -0.0387 0.9558 -0.2912
vn 0.2699 0.7077 -0.6529
vn -0.3324 0.6846 -0.6487
vn 0.0341 0.9991 0.0239
vn 0.0217 0.9993 0.0308
vn -0.2577 0.8988 -0.3546
vn 0.2398 0.8374 -0.4911
vn 0.3402 0.9243 0.1732
vn 0.4323 0.8779 0.2059
vn 0.5008 0.6419 -0.5806
vn -0.1082 0.9768 -0.1845
vn 0.3216 0.8666 -0.3815
vn 0.5304 0.6021 -0.5968
vn 0.7204 0.3638 -0.5905
vn 0.2557 0.5076 -0.8227
vn -0.2956 0.3921 -0.8711
vn 0.8094 0.5869 0.0213
vn 0.7961 0.4214 -0.4342
vn -0.1346 0.9888 -0.0639
vn -0.1970 0.9520 -0.2340
vn -0.1023 0.9859 -0.1321
vn -0.1404 0.9862 -0.0876
vn 0.0701 0.9465 -0.3150
vn 0.2178 0.9673 0.1298
vn 0.1596 0.9720 -0.1723
vn -0.5434 0.0728 0.8363
vn -0.4389 0.0016 0.8985
vn -0.2486 0.6164 0.7471
vn -0.2763 0.8910 0.3602
vn 0.0863 0.8454 0.5270
vn -0.0439 0.1532 0.9872
vn 0.3444 0.9372 -0.0545
vn 0.3574 0.8977 -0.2575
vn 0.8375 0.3638 -0.4078
vn 0.7279 0.6305 0.2694
vn 0.6973 0.6592 -0.2814
vn 0.8901 0.1937 -0.4125
vn 0.4220 0.8558 0.2990
vn 0.3190 0.6126 0.7231
vn 0.4006 0.0441 0.9152
vn 0.6976 0.1411 0.7025
vn 0.8985 0.1832 0.3989
vn 0.7302 0.6584 0.1822
vn 0.4724 -0.1013 -0.8755
vn 0.4312 0.3483 -0.8323
vn 0.4882 0.8534 0.1823
vn 0.3418 0.6213 0.7051
vn 0.6622 0.5021 0.5562
s 1
f 6/1/1 7/2/2 9/3/3 8/4/4
f 6/1/1 10/5/5 11/6/6 7/2/2
f 6/1/1 8/4/4 12/7/7 10/5/5
f 13/8/8 14/9/9 16/10/10 15/11/11
f 19/12/12 20/13/13 18/14/14 17/15/15
f 13/8/8 17/15/15 18/14/14 14/9/9
f 13/8/8 15/11/11 19/12/12 17/15/15
f 21/16/16 23/17/17 24/18/18 22/19/19
f 4/20/20 5/21/21 16/10/10 14/9/9
f 10/5/5 21/16/16 22/19/19 11/6/6
f 4/20/20 10/5/5 12/7/7 5/21/21
f 14/9/9 18/14/14 23/17/17 21/16/16
f 4/20/20 14/9/9 21/16/16 10/5/5
f 2/22/22 8/4/4 9/3/3 3/23/23
f 1/24/24 3/23/23 9/3/3 7/2/2
f 31/25/25 32/26/26 34/27/27 33/28/28
f 29/29/29 33/28/28 34/27/27 30/30/30
f 31/25/25 33/28/28 29/29/29 28/31/31
f 37/32/32 39/33/33 40/34/34 38/35/35
f 43/36/36 46/37/37 47/38/38 44/39/39
f 45/40/40 46/41/37 43/42/36 42/43/41
f 31/25/25 37/32/32 38/35/35 32/26/26
f 42/43/41 43/42/36 36/44/42 35/45/43
f 32/26/26 35/45/43 36/44/42 34/27/27
f 41/46/44 46/41/37 45/40/40 40/34/34
f 38/35/35 40/34/34 45/40/40 42/43/41
f 32/26/26 38/35/35 42/43/41 35/45/43
f 26/47/45 29/29/29 30/30/30 27/48/46
f 28/31/31 29/29/29 26/47/45 25/49/47
f 52/50/48 54/51/49 53/52/50 51/53/51
f 57/54/52 59/55/53 58/56/54 56/57/55
f 64/58/56 65/59/57 67/60/58 66/61/59
f 62/62/60 65/59/57 64/58/56 61/63/61
f 62/62/60 63/64/62 67/60/58 65/59/57
f 54/51/49 62/62/60 61/63/61 53/52/50
f 54/51/49 55/65/63 63/64/62 62/62/60
f 59/55/53 64/58/56 66/61/59 60/66/64
f 61/63/61 64/58/56 59/55/53 57/54/52
f 53/52/50 61/63/61 57/54/52 50/67/65
f 49/68/66 52/50/48 51/53/51 48/69/67
f 72/70/68 73/71/69 75/72/70 74/73/71
f 71/74/72 73/71/69 72/70/68 70/75/73
f 82/76/74 83/77/75 81/78/76 80/79/77
f 85/80/78 88/81/79 87/82/80 84/83/81
f 87/82/80 89/84/82 86/85/83 84/83/81
f 91/86/84 93/87/85 92/88/86 90/89/87
f 75/72/70 79/90/88 78/91/89 74/73/71
f 84/83/81 86/85/83 77/92/90 76/93/91
f 78/91/89 79/90/88 91/86/84 90/89/87
f 92/88/86 93/87/85 83/77/75 82/76/74
f 78/91/89 90/89/87 92/88/86 82/76/74
f 89/84/82 95/94/92 94/95/93 86/85/83
f 73/71/69 76/93/91 77/92/90 75/72/70
f 94/95/93 95/94/92 93/87/85 91/86/84
f 79/90/88 86/85/83 94/95/93 91/86/84
f 93/87/85 95/94/92 89/84/82 83/77/75
f 77/92/90 86/85/83 79/90/88 75/72/70
f 69/96/94 71/74/72 70/75/73 68/97/95
f 102/98/96 103/99/97 101/100/98 100/101/99
f 104/102/100 105/103/101 107/104/102 106/105/103
f 102/98/96 106/105/103 107/104/102 103/99/97
f 101/100/98 103/99/97 107/104/102 105/103/101
f 108/106/104 109/107/105 111/108/106 110/109/107
f 112/110/108 115/111/109 116/112/110 113/113/111
f 104/102/100 112/110/108 113/113/111 105/103/101
f 104/102/100 106/105/103 114/114/112 112/110/108
f 98/115/113 102/98/96 100/101/99 96/116/114
f 98/115/113 99/117/115 106/105/103 102/98/96
f 108/106/104 112/110/108 114/114/112 109/107/105
f 111/108/106 117/118/116 115/111/109 110/109/107
f 108/106/104 110/109/107 115/111/109 112/110/108
f 120/119/117 121/120/118 119/121/119 118/122/120
f 115/111/109 118/122/120 119/121/119 116/112/110
f 115/111/109 117/118/116 120/119/117 118/122/120
f 122/123/121 125/124/122 126/125/123 123/126/124
f 126/125/123 127/127/125 124/128/126 123/126/124
f 134/129/127 135/130/128 133/131/129 132/132/130
f 136/133/131 138/134/132 134/129/127 132/132/130
f 133/131/129 135/130/128 139/135/133 137/136/134
f 143/137/135 144/138/136 141/139/137 140/140/138
f 125/124/122 132/132/130 133/131/129 126/125/123
f 130/141/139 141/142/137 142/143/140 131/144/141
f 140/140/138 141/139/137 130/145/139 129/146/142
f 126/125/123 129/146/142 130/145/139 127/127/125
f 124/128/126 127/127/125 130/145/139 128/147/143
f 139/135/133 144/138/136 143/137/135 137/136/134
f 133/131/129 137/136/134 143/137/135 140/140/138
f 126/125/123 133/131/129 140/140/138 129/146/142
f 145/148/144 146/149/145 138/134/132 136/133/131
f 153/150/146 154/151/147 152/152/148 151/153/149
f 152/152/148 156/154/150 155/155/151 151/153/149
f 160/156/152 161/157/153 163/158/154 162/159/155
f 166/160/156 167/161/157 165/162/158 164/163/159
f 163/158/154 167/161/157 166/160/156 162/159/155
f 160/156/152 162/159/155 166/160/156 164/163/159
f 165/162/158 167/161/157 163/158/154 161/164/153
f 156/154/150 161/157/153 160/156/152 155/155/151
f 156/154/150 157/165/160 163/166/154 161/157/153
f 149/167/161 153/150/146 151/153/149 148/168/162
f 151/153/149 155/155/151 150/169/163 148/168/162
f 160/156/152 164/163/159 159/170/164 158/171/165
f 165/162/158 169/172/166 168/173/167 164/163/159
f 174/174/168 175/175/169 177/176/170 176/177/171
f 171/178/172 175/175/169 174/174/168 170/179/173
f 171/178/172 173/180/174 177/176/170 175/175/169
f 180/181/175 181/182/176 183/183/177 182/184/178
f 180/181/175 182/184/178 179/185/179 178/186/180
f 186/187/181 187/188/182 185/189/183 184/190/184
f 185/189/183 187/188/182 190/191/185 189/192/186
f 193/193/187 194/194/188 192/195/189 191/196/190
f 195/197/191 196/198/192 193/193/187 191/196/190
f 177/176/170 187/188/182 186/187/181 176/177/171
f 183/183/177 194/194/188 193/193/187 182/184/178
f 192/195/189 194/194/188 183/183/177 181/182/176
f 179/185/179 182/184/178 177/176/170 173/180/174
f 190/191/185 196/198/192 195/197/191 189/192/186
f 193/193/187 196/198/192 190/191/185 187/188/182
f 182/184/178 193/193/187 187/188/182 177/176/170
f 19/12/12 97/199/193 98/115/113 20/13/13
f 18/14/14 20/13/13 98/115/113 96/116/114
f 23/17/17 100/101/99 101/100/98 24/18/18
f 18/14/14 96/116/114 100/101/99 23/17/17
f 39/33/33 122/123/121 123/126/124 40/34/34
f 123/126/124 124/128/126 41/46/44 40/34/34
f 41/46/44 124/128/126 128/147/143 46/41/37
f 59/55/53 148/168/162 147/200/194 58/56/54
f 59/55/53 60/66/64 149/167/161 148/168/162
f 67/60/58 154/151/147 153/150/146 66/61/59
f 66/61/59 153/150/146 149/167/161 60/66/64
f 81/78/76 171/178/172 170/179/173 80/79/77
f 170/179/173 172/201/195 82/76/74 80/79/77
f 81/78/76 83/77/75 173/180/174 171/178/172
f 178/186/180 179/185/179 89/84/82 87/82/80
f 89/84/82 179/185/179 173/180/174 83/77/75
f 2/202/22 3/203/23 49/68/66 48/69/67
f 15/204/11 16/205/10 57/54/52 56/57/55
f 15/204/11 56/57/55 58/56/54 19/206/12
f 8/207/4 51/53/51 53/52/50 12/208/7
f 5/209/21 12/208/7 53/52/50 50/67/65
f 5/209/21 50/67/65 57/54/52 16/205/10
f 2/202/22 48/69/67 51/53/51 8/207/4
f 147/200/194 148/168/162 98/210/113 97/211/193
f 98/210/113 148/168/162 150/169/163 99/212/115
f 109/213/105 158/171/165 159/170/164 111/214/106
f 150/169/163 155/155/151 106/215/103 99/212/115
f 109/213/105 114/216/112 160/156/152 158/171/165
f 159/170/164 164/163/159 117/217/116 111/214/106
f 106/215/103 155/155/151 160/156/152 114/216/112
f 168/173/167 169/172/166 121/218/118 120/219/117
f 117/217/116 164/163/159 168/173/167 120/219/117
f 26/220/45 27/221/46 69/96/94 68/97/95
f 34/222/27 73/71/69 71/74/72 30/223/30
f 43/36/36 44/39/39 85/80/78 84/83/81
f 87/82/80 88/81/79 47/38/38 46/37/37
f 47/38/38 88/81/79 85/80/78 44/39/39
f 34/222/27 36/224/42 76/93/91 73/71/69
f 43/36/36 84/83/81 76/93/91 36/224/42
f 30/223/30 71/74/72 69/96/94 27/221/46
f 184/190/184 185/189/183 135/225/128 134/226/127
f 138/227/132 188/228/196 184/190/184 134/226/127
f 135/225/128 185/189/183 189/192/186 139/229/133
f 130/141/139 131/144/141 181/182/176 180/181/175
f 130/141/139 180/181/175 178/186/180 128/230/143
f 191/196/190 192/195/189 142/143/140 141/142/137
f 144/231/136 195/197/191 191/196/190 141/142/137
f 189/192/186 195/197/191 144/231/136 139/229/133
f 142/143/140 192/195/189 181/182/176 131/144/141
f 146/232/145 197/233/197 188/228/196 138/227/132
f 1/24/24 25/49/47 26/47/45 3/23/23
f 7/2/2 11/6/6 31/25/25 28/31/31
f 22/19/19 24/18/18 39/33/33 37/32/32
f 11/6/6 22/19/19 37/32/32 31/25/25
f 1/24/24 7/2/2 28/31/31 25/49/47
f 54/51/49 72/70/68 74/73/71 55/65/63
f 70/75/73 72/70/68 54/51/49 52/50/48
f 78/91/89 82/76/74 67/60/58 63/64/62
f 74/73/71 78/91/89 63/64/62 55/65/63
f 68/97/95 70/75/73 52/50/48 49/68/66
f 101/100/98 105/103/101 125/124/122 122/123/121
f 113/113/111 116/112/110 136/133/131 132/132/130
f 105/103/101 113/113/111 132/132/130 125/124/122
f 121/120/118 146/149/145 145/148/144 119/121/119
f 116/112/110 119/121/119 145/148/144 136/133/131
f 154/151/147 172/201/195 170/179/173 152/152/148
f 156/154/150 174/174/168 176/177/171 157/165/160
f 170/179/173 174/174/168 156/154/150 152/152/148
f 163/166/154 186/187/181 184/190/184 161/164/153
f 184/190/184 188/228/196 165/162/158 161/164/153
f 176/177/171 186/187/181 163/166/154 157/165/160
f 188/228/196 197/233/197 169/172/166 165/162/158
f 3/203/23 26/220/45 68/97/95 49/68/66
f 169/172/166 197/233/197 146/232/145 121/218/118
f 24/18/18 101/100/98 122/123/121 39/33/33
f 82/76/74 172/201/195 154/151/147 67/60/58
f 19/206/12 58/56/54 147/200/194 97/211/193
f 128/230/143 178/186/180 87/82/80 46/37/37
