# Blender v2.79 (sub 0) OBJ File: 'PolyBeach_v1.1_.blend'
# www.blender.org
o beach_towel01b_Plane.019
v 0.441853 0.000000 -0.883706
v -0.441853 0.000000 -0.883706
v 0.441853 0.000000 0.883706
v -0.441853 0.000000 0.883706
v 0.441853 0.000000 0.736422
v 0.441853 0.000000 0.589137
v 0.441853 0.000000 0.441853
v 0.441853 0.000000 0.294569
v 0.441853 0.000000 0.147284
v 0.441853 0.000000 -0.000000
v 0.441853 0.000000 -0.147284
v 0.441853 0.000000 -0.294569
v 0.441853 0.000000 -0.441853
v 0.441853 0.000000 -0.589137
v 0.441853 0.000000 -0.736422
v -0.441853 0.000000 -0.736422
v -0.441853 0.000000 -0.589137
v -0.441853 0.000000 -0.441853
v -0.441853 0.000000 -0.294569
v -0.441853 0.000000 -0.147284
v -0.441853 0.000000 0.000000
v -0.441853 0.000000 0.147284
v -0.441853 0.000000 0.294569
v -0.441853 0.000000 0.441853
v -0.441853 0.000000 0.589137
v -0.441853 0.000000 0.736422
v 0.441853 0.000000 1.016723
v -0.441853 0.000000 1.016723
vt 0.029655 0.765912
vt 0.029655 0.809239
vt 0.022434 0.809239
vt 0.022434 0.765912
vt 0.610219 0.649082
vt 0.610219 0.692409
vt 0.602998 0.692409
vt 0.602998 0.649082
vt 0.101866 0.765912
vt 0.101866 0.809239
vt 0.094645 0.809239
vt 0.094645 0.765912
vt 0.595777 0.649082
vt 0.595777 0.692409
vt 0.588556 0.692409
vt 0.588556 0.649082
vt 0.087424 0.765912
vt 0.087424 0.809239
vt 0.080203 0.809239
vt 0.080203 0.765912
vt 0.581335 0.649082
vt 0.581335 0.692409
vt 0.574114 0.692409
vt 0.574114 0.649082
vt 0.072982 0.765912
vt 0.072982 0.809239
vt 0.065761 0.809239
vt 0.065761 0.765912
vt 0.566893 0.649082
vt 0.566893 0.692409
vt 0.559671 0.692409
vt 0.559671 0.649082
vt 0.058540 0.765913
vt 0.058540 0.809239
vt 0.051319 0.809239
vt 0.051319 0.765913
vt 0.552450 0.649082
vt 0.552450 0.692409
vt 0.545229 0.692409
vt 0.545229 0.649082
vt 0.044097 0.765912
vt 0.044097 0.809239
vt 0.036876 0.809239
vt 0.036876 0.765912
vt 0.538008 0.649082
vt 0.538008 0.692409
vt 0.530787 0.692409
vt 0.530787 0.649082
vt 0.523566 0.649082
vt 0.523566 0.692409
vt 0.517044 0.692409
vt 0.517044 0.649082
vn 0.0000 1.0000 0.0000
s off
f 5/1/1 26/2/1 4/3/1 3/4/1
f 1/5/1 2/6/1 16/7/1 15/8/1
f 15/9/1 16/10/1 17/11/1 14/12/1
f 14/13/1 17/14/1 18/15/1 13/16/1
f 13/17/1 18/18/1 19/19/1 12/20/1
f 12/21/1 19/22/1 20/23/1 11/24/1
f 11/25/1 20/26/1 21/27/1 10/28/1
f 10/29/1 21/30/1 22/31/1 9/32/1
f 9/33/1 22/34/1 23/35/1 8/36/1
f 8/37/1 23/38/1 24/39/1 7/40/1
f 7/41/1 24/42/1 25/43/1 6/44/1
f 6/45/1 25/46/1 26/47/1 5/48/1
f 3/49/1 4/50/1 28/51/1 27/52/1
