# Blender v2.79 (sub 0) OBJ File: 'PolyBeach_v1.1_.blend'
# www.blender.org
o beachtoy02B_m_Cylinder.082
v 0.000000 0.029545 -0.007285
v -0.000004 0.132154 -0.007006
v 0.012509 0.029545 -0.003830
v 0.011845 0.134273 -0.005664
v 0.012509 0.029545 0.003080
v 0.011839 0.134263 0.005662
v -0.000000 0.029545 0.006534
v -0.000004 0.132123 0.007002
v -0.012509 0.029545 0.003080
v -0.011847 0.134260 0.005662
v -0.012509 0.029545 -0.003830
v -0.011853 0.134269 -0.005664
v 0.000000 0.023834 -0.006620
v 0.034828 0.023834 -0.003498
v 0.034828 0.023834 0.002747
v -0.000000 0.023834 0.005869
v -0.034828 0.023834 0.002747
v -0.034828 0.023834 -0.003498
v 0.000000 0.011362 -0.009229
v 0.049380 0.011362 -0.004802
v 0.049380 0.011362 0.004052
v -0.000000 0.011362 -0.006512
v -0.049380 0.011362 0.004052
v -0.049380 0.011362 -0.004802
v -0.000000 -0.042192 -0.015778
v 0.041681 -0.042192 -0.005834
v 0.041681 -0.042192 0.003539
v -0.000000 -0.042192 -0.006311
v -0.041681 -0.042192 0.003539
v -0.041681 -0.042192 -0.005834
v -0.000000 -0.111897 -0.000513
v 0.022287 -0.093834 -0.004177
v 0.022287 -0.093834 0.004177
v -0.000401 -0.112231 0.008353
v -0.022287 -0.093834 0.004177
v -0.022287 -0.093834 -0.004177
v -0.000004 0.142318 -0.014045
v -0.000004 0.142318 0.014045
v -0.031668 0.144281 -0.010201
v -0.031658 0.135322 -0.005136
v -0.031658 0.135322 0.005136
v -0.031668 0.144281 0.010201
v -0.031678 0.153018 0.004960
v -0.031678 0.153018 -0.004960
v 0.031662 0.144287 -0.010201
v 0.031349 0.135330 -0.005137
v 0.031349 0.135330 0.005137
v 0.031662 0.144287 0.010201
v 0.031966 0.153023 0.004960
v 0.031966 0.153023 -0.004960
v -0.000004 0.153084 0.006493
v -0.000004 0.153084 -0.006493
vt 0.214815 0.467567
vt 0.221816 0.467689
vt 0.221948 0.468505
vt 0.214799 0.468453
vt 0.222166 0.462014
vt 0.213993 0.461928
vt 0.214005 0.461197
vt 0.222461 0.461459
vt 0.214151 0.460430
vt 0.222308 0.460346
vt 0.213990 0.459667
vt 0.222467 0.459223
vt 0.213963 0.458936
vt 0.222152 0.458682
vt 0.214830 0.466682
vt 0.221976 0.466878
vt 0.223500 0.457721
vt 0.222693 0.460348
vt 0.223438 0.462937
vt 0.223169 0.463227
vt 0.223213 0.457369
vt 0.214367 0.469946
vt 0.214415 0.467560
vt 0.214450 0.465175
vt 0.213546 0.467545
vt 0.213607 0.464188
vt 0.224488 0.457203
vt 0.224406 0.463454
vt 0.224236 0.464050
vt 0.224377 0.456629
vt 0.224191 0.460358
vt 0.213490 0.470903
vt 0.227927 0.457000
vt 0.227757 0.457583
vt 0.227620 0.460394
vt 0.227696 0.463215
vt 0.209890 0.470336
vt 0.209940 0.467483
vt 0.209989 0.464630
vt 0.227850 0.463809
vt 0.230834 0.459091
vt 0.231408 0.460413
vt 0.230809 0.461773
vt 0.231173 0.462201
vt 0.231200 0.458672
vt 0.206403 0.468946
vt 0.205164 0.467400
vt 0.206456 0.465898
vt 0.232029 0.460430
vt 0.226269 0.468439
vt 0.227013 0.469196
vt 0.227036 0.470559
vt 0.226298 0.470589
vt 0.225369 0.468429
vt 0.225578 0.470674
vt 0.228471 0.468463
vt 0.229312 0.468473
vt 0.229210 0.470614
vt 0.228502 0.470560
vt 0.227757 0.469181
vt 0.227769 0.470553
vt 0.230195 0.468487
vt 0.229898 0.470674
vt 0.207605 0.461158
vt 0.207958 0.460568
vt 0.208628 0.460568
vt 0.208982 0.461158
vt 0.207946 0.461763
vt 0.208640 0.461763
vt 0.207605 0.461173
vt 0.207946 0.460568
vt 0.208640 0.460568
vt 0.208982 0.461173
vt 0.207958 0.461763
vt 0.208628 0.461763
vt 0.227773 0.467728
vt 0.227772 0.468455
vt 0.227029 0.467697
vt 0.226999 0.468446
vt 0.227079 0.466354
vt 0.227814 0.466374
vt 0.228549 0.466360
vt 0.229259 0.466300
vt 0.225627 0.466166
vt 0.226342 0.466287
vt 0.229952 0.466253
vn 0.0000 0.0871 -0.9962
vn 0.0001 -0.2782 -0.9605
vn 0.1444 -0.6405 -0.7542
vn 0.1570 0.1131 -0.9811
vn 0.7928 0.6095 0.0002
vn 1.0000 0.0064 0.0003
vn 0.7938 0.6082 0.0002
vn 0.1573 0.1106 0.9813
vn 0.1446 -0.6415 0.7534
vn 0.0001 -0.2812 0.9597
vn 0.0000 0.0834 0.9965
vn -0.1440 -0.6412 0.7537
vn -0.1573 0.1106 0.9813
vn -0.7938 0.6081 0.0002
vn -1.0000 0.0063 0.0003
vn -0.7928 0.6095 0.0002
vn -0.1570 0.1131 -0.9811
vn -0.1438 -0.6402 -0.7546
vn -0.0921 0.2016 0.9751
vn -0.0000 -0.2199 0.9755
vn 0.4648 0.8854 0.0000
vn -0.4648 0.8854 0.0000
vn 0.0921 0.2016 -0.9751
vn 0.0000 0.1930 -0.9812
vn 0.0921 0.2016 0.9751
vn -0.0921 0.2016 -0.9751
vn 0.0000 0.1320 -0.9912
vn -0.1330 0.1079 -0.9852
vn 0.1520 -0.0600 0.9866
vn 0.9396 0.3422 0.0000
vn 0.9413 0.3375 0.0000
vn -0.9413 0.3375 0.0000
vn -0.9396 0.3422 0.0000
vn 0.0000 -0.3582 0.9336
vn -0.1520 -0.0600 0.9866
vn 0.1330 0.1079 -0.9852
vn -0.9688 -0.2480 0.0000
vn -0.9686 -0.2485 0.0000
vn 0.0001 0.0788 0.9969
vn -0.1813 0.0678 0.9811
vn 0.1503 -0.0324 -0.9881
vn 0.0000 -0.0502 -0.9987
vn -0.1503 -0.0324 -0.9881
vn 0.1819 0.0676 0.9810
vn 0.9686 -0.2485 0.0000
vn 0.9688 -0.2480 0.0000
vn 0.1291 0.1435 0.9812
vn 0.0002 0.1451 0.9894
vn 0.8038 -0.5949 -0.0002
vn 0.8194 -0.5732 -0.0002
vn -0.8206 -0.5712 -0.0146
vn -0.8051 -0.5930 -0.0161
vn -0.1277 0.1442 0.9813
vn 0.1408 -0.1588 -0.9772
vn -0.0000 -0.1604 -0.9871
vn -0.1408 -0.1588 -0.9772
vn -0.6331 -0.7735 -0.0297
vn 0.6297 -0.7768 -0.0004
vn 0.0001 -0.0342 -0.9994
vn -0.0879 -0.8838 -0.4596
vn -0.0938 0.0083 -0.9956
vn -0.0001 0.8738 -0.4862
vn -0.0315 0.8855 -0.4637
vn 0.0001 -0.0339 0.9994
vn -0.0001 0.8738 0.4862
vn -0.0315 0.8855 0.4637
vn -0.0939 0.0084 0.9955
vn -0.0879 -0.8839 0.4594
vn 0.9994 -0.0349 0.0000
vn 0.9994 -0.0348 0.0000
vn -1.0000 -0.0011 -0.0000
vn -1.0000 -0.0012 -0.0000
vn 0.0891 -0.8818 -0.4632
vn 0.0891 -0.8819 0.4630
vn 0.0935 0.0196 0.9954
vn 0.0309 0.8876 0.4595
vn 0.0309 0.8876 -0.4595
vn 0.0935 0.0195 -0.9954
s 1
f 1/1/1 2/2/2 4/3/3 3/4/4
f 3/5/5 4/6/6 6/7/6 5/8/7
f 5/8/8 6/7/9 8/9/10 7/10/11
f 7/10/11 8/9/10 10/11/12 9/12/13
f 9/12/14 10/11/15 12/13/15 11/14/16
f 11/15/17 12/16/18 2/2/2 1/1/1
f 7/10/11 9/12/13 17/17/19 16/18/20
f 3/5/5 5/8/7 15/19/21 14/20/21
f 9/12/14 11/14/16 18/21/22 17/17/22
f 1/1/1 3/4/4 14/22/23 13/23/24
f 5/8/8 7/10/11 16/18/20 15/19/25
f 11/15/17 1/1/1 13/23/24 18/24/26
f 18/24/26 13/23/24 19/25/27 24/26/28
f 16/18/20 17/17/19 23/27/29
f 14/20/21 15/19/21 21/28/30 20/29/31
f 17/17/22 18/21/22 24/30/32 23/27/33
f 16/18/20 22/31/34 21/28/35
f 13/23/24 14/22/23 20/32/36 19/25/27
f 23/27/33 24/30/32 30/33/37 29/34/38
f 21/28/35 22/31/34 28/35/39 27/36/40
f 19/25/27 20/32/36 26/37/41 25/38/42
f 24/26/28 19/25/27 25/38/42 30/39/43
f 22/31/34 23/27/29 29/34/44 28/35/39
f 20/29/31 21/28/30 27/36/45 26/40/46
f 28/35/39 29/34/44 35/41/47 34/42/48
f 26/40/46 27/36/45 33/43/49 32/44/50
f 29/34/38 30/33/37 36/45/51 35/41/52
f 27/36/40 28/35/39 34/42/48 33/43/53
f 25/38/42 26/37/41 32/46/54 31/47/55
f 30/39/43 25/38/42 31/47/55 36/48/56
f 31/49/57 34/42/57 35/41/52 36/45/51
f 32/44/50 33/43/49 34/42/58 31/49/58
f 37/50/59 12/51/18 40/52/60 39/53/61
f 52/54/62 37/50/59 39/53/61 44/55/63
f 38/56/64 51/57/65 43/58/66 42/59/67
f 12/51/18 10/60/12 41/61/68 40/52/60
f 51/57/65 52/62/62 44/63/63 43/58/66
f 10/60/12 38/56/64 42/59/67 41/61/68
f 45/64/69 50/65/70 49/66/70 48/67/69
f 46/68/69 45/64/69 48/67/69 47/69/69
f 39/70/71 40/71/71 41/72/71 42/73/71
f 44/74/72 39/70/71 42/73/71 43/75/72
f 6/76/9 38/56/64 8/77/10
f 37/50/59 4/78/3 2/79/2
f 8/77/10 38/56/64 10/60/12
f 37/50/59 2/79/2 12/51/18
f 46/80/73 47/81/74 6/76/9 4/78/3
f 48/82/75 49/83/76 51/57/65 38/56/64
f 50/84/77 45/85/78 37/50/59 52/54/62
f 45/85/78 46/80/73 4/78/3 37/50/59
f 47/81/74 48/82/75 38/56/64 6/76/9
f 49/83/76 50/86/77 52/62/62 51/57/65
f 22/31/34 16/18/20 23/27/29
f 15/19/25 16/18/20 21/28/35
