# Blender v2.79 (sub 0) OBJ File: 'PolyBeach_v1.1_.blend'
# www.blender.org
o beach_towel02b_Plane.018
v 0.441853 0.000000 -0.883706
v -0.441853 0.000000 -0.883706
v 0.441853 0.000000 1.016723
v -0.441853 0.000000 1.016723
v 0.265112 0.000000 -0.883706
v 0.088371 0.000000 -0.883706
v -0.088371 0.000000 -0.883706
v -0.265112 0.000000 -0.883706
v -0.265112 0.000000 1.016723
v -0.088371 0.000000 1.016723
v 0.088371 0.000000 1.016723
v 0.265112 0.000000 1.016723
vt 0.610219 0.701649
vt 0.517044 0.701649
vt 0.517044 0.692984
vt 0.610219 0.692984
vt 0.610219 0.736310
vt 0.517044 0.736310
vt 0.517044 0.727645
vt 0.610219 0.727645
vt 0.109087 0.844476
vt 0.015912 0.844476
vt 0.015912 0.835810
vt 0.109087 0.835810
vt 0.610219 0.718980
vt 0.517044 0.718980
vt 0.517044 0.710314
vt 0.610219 0.710314
vt 0.109087 0.827145
vt 0.015912 0.827145
vt 0.015912 0.818479
vt 0.109087 0.818479
vn 0.0000 1.0000 0.0000
s off
f 5/1/1 12/2/1 3/3/1 1/4/1
f 2/5/1 4/6/1 9/7/1 8/8/1
f 8/9/1 9/10/1 10/11/1 7/12/1
f 7/13/1 10/14/1 11/15/1 6/16/1
f 6/17/1 11/18/1 12/19/1 5/20/1
