# Blender v2.79 (sub 0) OBJ File: 'PolyBeach_v1.1_.blend'
# www.blender.org
o beach_umbrella._b_Circle.011
v 0.001217 1.596618 -0.999999
v -0.706245 1.596618 -0.707967
v -0.999999 1.596618 -0.001217
v -0.707967 1.596618 0.706245
v -0.001217 1.596618 0.999999
v 0.706246 1.596618 0.707967
v 0.999999 1.596618 0.001217
v 0.707967 1.596618 -0.706245
v 0.000000 2.103863 0.022456
v 0.000000 2.103863 -0.022456
v -0.015878 2.103863 -0.015878
v 0.000000 2.114704 -0.000000
v -0.788240 1.768469 -0.000959
v -0.476343 1.939878 -0.000580
v -0.336415 1.939878 -0.337235
v -0.556691 1.768469 -0.558048
v 0.000959 1.768469 -0.788240
v 0.000580 1.939878 -0.476343
v -0.337235 1.939878 0.336415
v -0.558048 1.768469 0.556691
v -0.000580 1.939878 0.476343
v -0.000959 1.768469 0.788240
v 0.336415 1.939878 0.337235
v 0.556691 1.768469 0.558048
v 0.476343 1.939878 0.000580
v 0.788240 1.768469 0.000959
v 0.337235 1.939878 -0.336415
v 0.558048 1.768469 -0.556691
v -0.336210 1.632550 -0.814486
v -0.813666 1.632550 -0.338192
v -0.814486 1.632550 0.336210
v -0.338192 1.632550 0.813666
v 0.336210 1.632550 0.814486
v 0.813666 1.632550 0.338192
v 0.814486 1.632550 -0.336210
v 0.338192 1.632550 -0.813666
v -0.022456 0.075679 0.000000
v -0.015878 0.075679 0.015878
v 0.000000 0.075679 0.022456
v 0.015878 0.075679 0.015878
v 0.022456 0.075679 -0.000000
v 0.015878 0.075679 -0.015878
v 0.000000 0.075679 -0.022456
v -0.015878 0.075679 -0.015878
v 0.000000 -0.039646 0.000000
v 0.000000 2.072861 -0.000000
v -0.022456 2.103863 0.000000
v -0.015878 2.103863 0.015878
v 0.015878 2.103863 0.015878
v 0.022456 2.103863 -0.000000
v 0.015878 2.103863 -0.015878
v 0.001217 1.596618 -0.999999
v -0.706245 1.596618 -0.707967
v -0.999999 1.596618 -0.001217
v -0.707967 1.596618 0.706245
v -0.001217 1.596618 0.999999
v 0.706246 1.596618 0.707967
v 0.999999 1.596618 0.001217
v 0.707967 1.596618 -0.706245
v 0.000000 2.103863 0.022456
v 0.000000 2.103863 -0.022456
v -0.015878 2.103863 -0.015878
v 0.000000 2.114704 -0.000000
v -0.788240 1.768469 -0.000959
v -0.476343 1.939878 -0.000580
v -0.336415 1.939878 -0.337235
v -0.556691 1.768469 -0.558048
v 0.000959 1.768469 -0.788240
v 0.000580 1.939878 -0.476343
v -0.337235 1.939878 0.336415
v -0.558048 1.768469 0.556691
v -0.000580 1.939878 0.476343
v -0.000959 1.768469 0.788240
v 0.336415 1.939878 0.337235
v 0.556691 1.768469 0.558048
v 0.476343 1.939878 0.000580
v 0.788240 1.768469 0.000959
v 0.337235 1.939878 -0.336415
v 0.558048 1.768469 -0.556691
v -0.336210 1.632550 -0.814486
v -0.813666 1.632550 -0.338192
v -0.814486 1.632550 0.336210
v -0.338192 1.632550 0.813666
v 0.336210 1.632550 0.814486
v 0.813666 1.632550 0.338192
v 0.814486 1.632550 -0.336210
v 0.338192 1.632550 -0.813666
v -0.022456 0.075679 0.000000
v -0.015878 0.075679 0.015878
v 0.000000 0.075679 0.022456
v 0.015878 0.075679 0.015878
v 0.022456 0.075679 -0.000000
v 0.015878 0.075679 -0.015878
v 0.000000 0.075679 -0.022456
v -0.015878 0.075679 -0.015878
v 0.000000 -0.039646 0.000000
v 0.000000 2.072861 -0.000000
v -0.022456 2.103863 0.000000
v -0.015878 2.103863 0.015878
v 0.015878 2.103863 0.015878
v 0.022456 2.103863 -0.000000
v 0.015878 2.103863 -0.015878
vt 0.049810 0.845349
vt 0.036349 0.850687
vt 0.036349 0.840012
vt 0.036349 0.850687
vt 0.036349 0.840012
vt 0.036349 0.850687
vt 0.036349 0.840012
vt 0.524767 0.704063
vt 0.538227 0.698726
vt 0.538227 0.709401
vt 0.036349 0.850687
vt 0.036349 0.840012
vt 0.538227 0.698726
vt 0.538227 0.709401
vt 0.026532 0.854181
vt 0.018907 0.856554
vt 0.020541 0.845349
vt 0.538227 0.698726
vt 0.538227 0.709401
vt 0.538227 0.698726
vt 0.538227 0.709401
vt 0.026532 0.854181
vt 0.018907 0.856554
vt 0.020541 0.845349
vt 0.548044 0.695231
vt 0.555669 0.692859
vt 0.554035 0.704063
vt 0.026532 0.854181
vt 0.018907 0.856554
vt 0.020541 0.845349
vt 0.548044 0.695231
vt 0.555669 0.692859
vt 0.554035 0.704063
vt 0.548044 0.695231
vt 0.555669 0.692859
vt 0.554035 0.704063
vt 0.548044 0.695231
vt 0.555669 0.692859
vt 0.554035 0.704063
vt 0.148337 0.650512
vt 0.147734 0.650446
vt 0.148363 0.648521
vt 0.147102 0.650244
vt 0.146413 0.649826
vt 0.145652 0.648939
vt 0.151082 0.648988
vt 0.150282 0.649876
vt 0.149579 0.650277
vt 0.148942 0.650462
vt 0.026532 0.854181
vt 0.026532 0.836517
vt 0.026532 0.836517
vt 0.548044 0.712896
vt 0.026532 0.836517
vt 0.548044 0.712896
vt 0.026532 0.836517
vt 0.548044 0.712896
vt 0.548044 0.712896
vt 0.018907 0.856554
vt 0.020541 0.845349
vt 0.018907 0.834144
vt 0.018907 0.834144
vt 0.555669 0.715268
vt 0.018907 0.834144
vt 0.555669 0.715268
vt 0.555669 0.715268
vt 0.555669 0.715268
vt 0.018907 0.834144
vt 0.150342 0.689049
vt 0.149576 0.688896
vt 0.145810 0.688992
vt 0.145017 0.689194
vt 0.147333 0.688785
vt 0.146579 0.688858
vt 0.148824 0.688804
vt 0.148079 0.688767
vt 0.151082 0.689265
vt 0.148026 0.694088
vt 0.049810 0.845349
vt 0.036349 0.840012
vt 0.036349 0.850687
vt 0.036349 0.840012
vt 0.036349 0.850687
vt 0.036349 0.840012
vt 0.036349 0.850687
vt 0.524767 0.704063
vt 0.538227 0.709401
vt 0.538227 0.698726
vt 0.036349 0.840012
vt 0.036349 0.850687
vt 0.538227 0.709401
vt 0.538227 0.698726
vt 0.026532 0.854181
vt 0.020541 0.845349
vt 0.018907 0.856554
vt 0.538227 0.709401
vt 0.538227 0.698726
vt 0.538227 0.709401
vt 0.538227 0.698726
vt 0.026532 0.854181
vt 0.020541 0.845349
vt 0.018907 0.856554
vt 0.548044 0.695231
vt 0.554035 0.704063
vt 0.555669 0.692859
vt 0.026532 0.854181
vt 0.020541 0.845349
vt 0.018907 0.856554
vt 0.548044 0.695231
vt 0.554035 0.704063
vt 0.555669 0.692859
vt 0.548044 0.695231
vt 0.554035 0.704063
vt 0.555669 0.692859
vt 0.548044 0.695231
vt 0.554035 0.704063
vt 0.555669 0.692859
vt 0.148337 0.650512
vt 0.147734 0.650446
vt 0.148363 0.648521
vt 0.147102 0.650244
vt 0.146413 0.649826
vt 0.145652 0.648939
vt 0.151082 0.648988
vt 0.150282 0.649876
vt 0.149579 0.650277
vt 0.148942 0.650462
vt 0.026532 0.854181
vt 0.026532 0.836517
vt 0.026532 0.836517
vt 0.548044 0.712896
vt 0.026532 0.836517
vt 0.548044 0.712896
vt 0.026532 0.836517
vt 0.548044 0.712896
vt 0.548044 0.712896
vt 0.020541 0.845349
vt 0.018907 0.856554
vt 0.018907 0.834144
vt 0.018907 0.834144
vt 0.555669 0.715268
vt 0.018907 0.834144
vt 0.555669 0.715268
vt 0.555669 0.715268
vt 0.555669 0.715268
vt 0.018907 0.834144
vt 0.150342 0.689049
vt 0.149576 0.688896
vt 0.145810 0.688992
vt 0.145017 0.689194
vt 0.147333 0.688785
vt 0.146579 0.688858
vt 0.148824 0.688804
vt 0.148079 0.688767
vt 0.151082 0.689265
vt 0.148026 0.694088
vn -0.0000 1.0000 0.0000
vn -0.2837 0.9157 -0.2844
vn -0.4018 0.9157 -0.0005
vn 0.2844 0.9157 -0.2837
vn 0.0005 0.9157 -0.4018
vn -0.2844 0.9157 0.2837
vn -0.0005 0.9157 0.4018
vn 0.2837 0.9157 0.2844
vn 0.4018 0.9157 0.0005
vn -0.4063 0.8189 0.4053
vn -0.4461 0.7765 0.4450
vn -0.2544 0.7488 0.6120
vn 0.4063 0.8189 -0.4053
vn 0.4461 0.7765 -0.4450
vn 0.2544 0.7488 -0.6120
vn 0.5739 0.8189 0.0007
vn 0.6301 0.7765 0.0008
vn 0.6126 0.7488 -0.2529
vn 0.4053 0.8189 0.4063
vn 0.4450 0.7765 0.4461
vn 0.6120 0.7488 0.2544
vn -0.0007 0.8189 0.5739
vn -0.0008 0.7765 0.6301
vn 0.2529 0.7488 0.6126
vn 0.0007 0.8189 -0.5739
vn 0.0008 0.7765 -0.6301
vn -0.2529 0.7488 -0.6126
vn -0.5739 0.8189 -0.0007
vn -0.6301 0.7765 -0.0008
vn -0.6126 0.7488 0.2529
vn -0.4348 0.9005 0.0000
vn -0.3074 0.9005 0.3074
vn -0.0000 0.9005 0.4348
vn 0.3074 0.9005 0.3074
vn 0.4348 0.9005 0.0000
vn 0.3074 0.9005 -0.3074
vn 0.0000 0.9005 -0.4348
vn -0.3074 0.9005 -0.3074
vn -0.4053 0.8189 -0.4063
vn -0.4450 0.7765 -0.4461
vn -0.6120 0.7488 -0.2544
vn -0.0000 0.0000 -1.0000
vn 0.7071 0.0000 -0.7071
vn 1.0000 0.0000 0.0000
vn 0.7071 0.0000 0.7071
vn 0.0000 0.0000 1.0000
vn -0.7071 0.0000 0.7071
vn -1.0000 0.0000 0.0000
vn -0.7071 0.0000 -0.7071
vn 0.6941 -0.1911 -0.6941
vn 0.9816 -0.1911 0.0000
vn 0.0000 -1.0000 0.0000
vn 0.6941 -0.1911 0.6941
vn 0.0000 -0.1911 0.9816
vn -0.6941 -0.1911 0.6941
vn -0.9816 -0.1911 0.0000
vn -0.0000 -0.1911 -0.9816
vn -0.6941 -0.1911 -0.6941
vn 0.4018 -0.9157 0.0005
vn 0.2837 -0.9157 0.2844
vn -0.0005 -0.9157 0.4018
vn -0.2844 -0.9157 0.2837
vn 0.0005 -0.9157 -0.4018
vn 0.2844 -0.9157 -0.2837
vn -0.2837 -0.9157 -0.2844
vn -0.4018 -0.9157 -0.0005
vn 0.4063 -0.8189 -0.4053
vn 0.2544 -0.7488 -0.6120
vn 0.4461 -0.7765 -0.4450
vn -0.4063 -0.8189 0.4053
vn -0.2544 -0.7488 0.6120
vn -0.4461 -0.7765 0.4450
vn -0.5739 -0.8189 -0.0007
vn -0.6126 -0.7488 0.2529
vn -0.6301 -0.7765 -0.0008
vn -0.4053 -0.8189 -0.4063
vn -0.6120 -0.7488 -0.2544
vn -0.4450 -0.7765 -0.4461
vn 0.0007 -0.8189 -0.5739
vn -0.2529 -0.7488 -0.6126
vn 0.0008 -0.7765 -0.6301
vn -0.0007 -0.8189 0.5739
vn 0.2529 -0.7488 0.6126
vn -0.0008 -0.7765 0.6301
vn 0.5739 -0.8189 0.0007
vn 0.6126 -0.7488 -0.2529
vn 0.6301 -0.7765 0.0008
vn 0.4053 -0.8189 0.4063
vn 0.6120 -0.7488 0.2544
vn 0.4450 -0.7765 0.4461
s 1
f 46/1/1 15/2/2 14/3/3
f 46/1/1 27/4/4 18/5/5
f 46/1/1 19/6/6 21/7/7
f 46/8/1 21/9/7 23/10/8
f 46/1/1 23/11/8 25/12/9
f 46/8/1 25/13/9 27/14/4
f 20/15/10 4/16/11 32/17/12
f 46/8/1 18/18/5 15/19/2
f 46/8/1 14/20/3 19/21/6
f 28/22/13 8/23/14 36/24/15
f 26/25/16 7/26/17 35/27/18
f 24/28/19 6/29/20 34/30/21
f 22/31/22 5/32/23 33/33/24
f 17/34/25 1/35/26 29/36/27
f 13/37/28 3/38/29 31/39/30
f 47/40/31 48/41/32 12/42/1
f 48/41/32 9/43/33 12/42/1
f 9/43/33 49/44/34 12/42/1
f 49/44/34 50/45/35 12/42/1
f 50/46/35 51/47/36 12/42/1
f 51/47/36 10/48/37 12/42/1
f 10/48/37 11/49/38 12/42/1
f 11/49/38 47/40/31 12/42/1
f 16/50/39 13/51/28 14/3/3 15/2/2
f 28/22/13 17/52/25 18/5/5 27/4/4
f 26/25/16 28/53/13 27/14/4 25/13/9
f 24/28/19 26/54/16 25/12/9 23/11/8
f 22/31/22 24/55/19 23/10/8 21/9/7
f 20/15/10 22/56/22 21/7/7 19/6/6
f 17/34/25 16/57/39 15/19/2 18/18/5
f 13/37/28 20/58/10 19/21/6 14/20/3
f 16/50/39 2/59/40 30/60/41
f 5/61/23 22/56/22 32/17/12
f 22/56/22 20/15/10 32/17/12
f 1/62/26 17/52/25 36/24/15
f 17/52/25 28/22/13 36/24/15
f 8/63/14 28/53/13 35/27/18
f 28/53/13 26/25/16 35/27/18
f 7/64/17 26/54/16 34/30/21
f 26/54/16 24/28/19 34/30/21
f 6/65/20 24/55/19 33/33/24
f 24/55/19 22/31/22 33/33/24
f 2/66/40 16/57/39 29/36/27
f 16/57/39 17/34/25 29/36/27
f 4/67/11 20/58/10 31/39/30
f 20/58/10 13/37/28 31/39/30
f 3/68/29 13/51/28 30/60/41
f 13/51/28 16/50/39 30/60/41
f 10/48/42 51/47/43 42/69/43 43/70/42
f 50/45/44 49/44/45 40/71/45 41/72/44
f 9/43/46 48/41/47 38/73/47 39/74/46
f 47/40/48 11/49/49 44/75/49 37/76/48
f 11/49/49 10/48/42 43/70/42 44/75/49
f 51/47/43 50/46/44 41/77/44 42/69/43
f 49/44/45 9/43/46 39/74/46 40/71/45
f 48/41/47 47/40/48 37/76/48 38/73/47
f 42/69/50 41/77/51 45/78/52
f 40/71/53 39/74/54 45/78/52
f 38/73/55 37/76/56 45/78/52
f 43/70/57 42/69/50 45/78/52
f 41/72/51 40/71/53 45/78/52
f 39/74/54 38/73/55 45/78/52
f 37/76/56 44/75/58 45/78/52
f 44/75/58 43/70/57 45/78/52
f 97/79/52 65/80/59 66/81/60
f 97/79/52 69/82/61 78/83/62
f 97/79/52 72/84/63 70/85/64
f 97/86/52 74/87/65 72/88/63
f 97/79/52 76/89/66 74/90/65
f 97/86/52 78/91/62 76/92/66
f 71/93/67 83/94/68 55/95/69
f 97/86/52 66/96/60 69/97/61
f 97/86/52 70/98/64 65/99/59
f 79/100/70 87/101/71 59/102/72
f 77/103/73 86/104/74 58/105/75
f 75/106/76 85/107/77 57/108/78
f 73/109/79 84/110/80 56/111/81
f 68/112/82 80/113/83 52/114/84
f 64/115/85 82/116/86 54/117/87
f 98/118/31 99/119/32 63/120/1
f 99/119/32 60/121/33 63/120/1
f 60/121/33 100/122/34 63/120/1
f 100/122/34 101/123/35 63/120/1
f 101/124/35 102/125/36 63/120/1
f 102/125/36 61/126/37 63/120/1
f 61/126/37 62/127/38 63/120/1
f 62/127/38 98/118/31 63/120/1
f 67/128/88 66/81/60 65/80/59 64/129/85
f 79/100/70 78/83/62 69/82/61 68/130/82
f 77/103/73 76/92/66 78/91/62 79/131/70
f 75/106/76 74/90/65 76/89/66 77/132/73
f 73/109/79 72/88/63 74/87/65 75/133/76
f 71/93/67 70/85/64 72/84/63 73/134/79
f 68/112/82 69/97/61 66/96/60 67/135/88
f 64/115/85 65/99/59 70/98/64 71/136/67
f 67/128/88 81/137/89 53/138/90
f 56/139/81 83/94/68 73/134/79
f 73/134/79 83/94/68 71/93/67
f 52/140/84 87/101/71 68/130/82
f 68/130/82 87/101/71 79/100/70
f 59/141/72 86/104/74 79/131/70
f 79/131/70 86/104/74 77/103/73
f 58/142/75 85/107/77 77/132/73
f 77/132/73 85/107/77 75/106/76
f 57/143/78 84/110/80 75/133/76
f 75/133/76 84/110/80 73/109/79
f 53/144/90 80/113/83 67/135/88
f 67/135/88 80/113/83 68/112/82
f 55/145/69 82/116/86 71/136/67
f 71/136/67 82/116/86 64/115/85
f 54/146/87 81/137/89 64/129/85
f 64/129/85 81/137/89 67/128/88
f 61/126/42 102/125/43 93/147/43 94/148/42
f 101/123/44 100/122/45 91/149/45 92/150/44
f 60/121/46 99/119/47 89/151/47 90/152/46
f 98/118/48 62/127/49 95/153/49 88/154/48
f 62/127/49 61/126/42 94/148/42 95/153/49
f 102/125/43 101/124/44 92/155/44 93/147/43
f 100/122/45 60/121/46 90/152/46 91/149/45
f 99/119/47 98/118/48 88/154/48 89/151/47
f 93/147/50 92/155/51 96/156/52
f 91/149/53 90/152/54 96/156/52
f 89/151/55 88/154/56 96/156/52
f 94/148/57 93/147/50 96/156/52
f 92/150/51 91/149/53 96/156/52
f 90/152/54 89/151/55 96/156/52
f 88/154/56 95/153/58 96/156/52
f 95/153/58 94/148/57 96/156/52
