# Blender v2.79 (sub 0) OBJ File: 'PolyBeach_v1.1_.blend'
# www.blender.org
o sandcastle01.part2_Cylinder.008
v 0.000000 -0.142050 -0.134442
v -0.115626 -0.030162 -0.037569
v 0.079023 -0.142050 -0.108766
v -0.115626 -0.030162 0.037569
v 0.127862 -0.142050 -0.041545
v -0.071461 -0.034294 0.098357
v 0.127862 -0.142050 0.041545
v 0.000000 -0.034294 0.121577
v 0.079023 -0.142050 0.108766
v 0.071461 -0.034294 0.098357
v 0.000000 -0.142050 0.134442
v 0.115626 -0.030162 0.037569
v -0.079023 -0.142050 0.108766
v 0.115626 -0.035735 -0.037569
v -0.127862 -0.142050 0.041545
v 0.071461 -0.035735 -0.098357
v -0.127862 -0.142050 -0.041545
v 0.000000 -0.035735 -0.121577
v -0.079023 -0.142050 -0.108766
v -0.071461 -0.030162 -0.098357
v -0.007035 0.106353 -0.092393
v 0.000000 0.070581 -0.108711
v 0.059999 0.106353 -0.070612
v 0.063899 0.070581 -0.087949
v 0.083009 0.106353 -0.038941
v 0.103390 0.070581 -0.033594
v 0.083009 0.106353 0.026971
v 0.103390 0.081726 0.033594
v 0.044267 0.091864 0.080296
v 0.063899 0.073463 0.087949
v 0.007035 0.091864 0.092393
v 0.000000 0.073463 0.108711
v -0.059999 0.091864 0.070612
v -0.063899 0.073463 0.087949
v -0.083009 0.091864 0.038941
v -0.103390 0.081726 0.033594
v -0.083009 0.099665 -0.026971
v -0.103390 0.081726 -0.033594
v -0.044267 0.099665 -0.080296
v -0.063899 0.081726 -0.087949
vt 0.050585 0.914253
vt 0.048297 0.913661
vt 0.047208 0.912539
vt 0.051873 0.913711
vt 0.043638 0.927005
vt 0.043638 0.922891
vt 0.046532 0.922891
vt 0.046532 0.927005
vt 0.047030 0.909957
vt 0.053187 0.911774
vt 0.048376 0.907801
vt 0.053271 0.909247
vt 0.049809 0.907306
vt 0.052333 0.908068
vt 0.026223 0.927005
vt 0.026223 0.922891
vt 0.028849 0.922891
vt 0.028849 0.927005
vt 0.031751 0.922891
vt 0.031751 0.927005
vt 0.034645 0.922891
vt 0.034645 0.927005
vt 0.034645 0.931118
vt 0.037277 0.927005
vt 0.037277 0.931118
vt 0.037277 0.922891
vt 0.041006 0.922891
vt 0.041006 0.927005
vt 0.016966 0.927005
vt 0.016966 0.922891
vt 0.019867 0.922891
vt 0.019867 0.927005
vt 0.022494 0.922891
vt 0.022494 0.927005
vt 0.050562 0.915851
vt 0.047540 0.915207
vt 0.053246 0.914661
vt 0.054425 0.912067
vt 0.054429 0.909268
vt 0.052707 0.907077
vt 0.050017 0.906316
vt 0.047517 0.907404
vt 0.045949 0.909642
vt 0.046012 0.912491
vt 0.022494 0.931118
vt 0.026223 0.931118
vt 0.019867 0.931118
vt 0.016966 0.931118
vt 0.041006 0.931118
vt 0.043638 0.931118
vt 0.031751 0.931118
vt 0.028849 0.931118
vt 0.046532 0.931118
vn 0.3573 0.8260 -0.4360
vn -0.0449 0.8456 -0.5318
vn -0.2709 0.8464 -0.4584
vn 0.5275 0.8191 -0.2255
vn 0.9431 0.1184 -0.3107
vn 0.9121 0.2875 -0.2923
vn 0.8694 0.3984 0.2922
vn 0.9449 0.1170 0.3058
vn -0.3706 0.9256 -0.0764
vn 0.4256 0.8859 0.1844
vn -0.3854 0.8877 0.2519
vn 0.2146 0.8435 0.4923
vn -0.2685 0.8928 0.3616
vn 0.0325 0.8764 0.4804
vn -0.5813 0.1173 0.8052
vn -0.5136 0.4003 0.7589
vn -0.8412 0.4688 0.2693
vn -0.9437 0.1154 0.3099
vn -0.8414 0.4692 -0.2682
vn -0.9448 0.1142 -0.3070
vn -0.5501 0.4001 -0.7330
vn -0.5804 0.1158 -0.8061
vn -0.5823 0.1157 -0.8047
vn 0.0040 0.1184 -0.9929
vn 0.0019 0.1185 -0.9929
vn 0.0222 0.2764 -0.9608
vn 0.5557 0.2654 -0.7879
vn 0.5835 0.1201 -0.8032
vn 0.5435 0.3713 0.7528
vn 0.5813 0.1173 0.8052
vn -0.0166 0.3931 0.9193
vn 0.0000 0.1185 0.9929
vn -0.5826 0.1174 0.8042
vn 0.5826 0.1174 0.8042
vn 0.9447 0.1169 0.3064
vn 0.9438 0.1185 -0.3086
vn -0.9442 0.1153 0.3083
s 1
f 23/1/1 21/2/2 39/3/3 25/4/4
f 14/5/5 26/6/6 28/7/7 12/8/8
f 25/4/4 39/3/3 37/9/9 27/10/10
f 27/10/10 37/9/9 35/11/11 29/12/12
f 29/12/12 35/11/11 33/13/13 31/14/14
f 6/15/15 34/16/16 36/17/17 4/18/18
f 4/18/18 36/17/17 38/19/19 2/20/20
f 2/20/20 38/19/19 40/21/21 20/22/22
f 19/23/23 20/22/22 18/24/24 1/25/25
f 18/24/24 22/26/26 24/27/27 16/28/28
f 16/28/28 24/27/27 26/6/6 14/5/5
f 12/29/8 28/30/7 30/31/29 10/32/30
f 10/32/30 30/31/29 32/33/31 8/34/32
f 8/34/32 32/33/31 34/16/16 6/15/15
f 21/2/2 23/1/1 24/35/27 22/36/26
f 23/1/1 25/4/4 26/37/6 24/35/27
f 25/4/4 27/10/10 28/38/7 26/37/6
f 27/10/10 29/12/12 30/39/29 28/38/7
f 29/12/12 31/14/14 32/40/31 30/39/29
f 31/14/14 33/13/13 34/41/16 32/40/31
f 33/13/13 35/11/11 36/42/17 34/41/16
f 35/11/11 37/9/9 38/43/19 36/42/17
f 37/9/9 39/3/3 40/44/21 38/43/19
f 39/3/3 21/2/2 22/36/26 40/44/21
f 20/22/22 40/21/21 22/26/26 18/24/24
f 11/45/32 8/34/32 6/15/15 13/46/33
f 9/47/34 10/32/30 8/34/32 11/45/32
f 7/48/35 12/29/8 10/32/30 9/47/34
f 3/49/28 16/28/28 14/5/5 5/50/36
f 1/25/25 18/24/24 16/28/28 3/49/28
f 17/51/20 2/20/20 20/22/22 19/23/23
f 15/52/37 4/18/18 2/20/20 17/51/20
f 13/46/33 6/15/15 4/18/18 15/52/37
f 5/50/36 14/5/5 12/8/8 7/53/35
