# Blender v2.79 (sub 0) OBJ File: 'PolyBeach_v1.1_.blend'
# www.blender.org
mtllib beach_kelp_m.mtl
o beach_kelp01_CUBezierCurve.007
v 0.017296 0.439634 -0.006443
v 0.016059 0.360157 -0.010935
v 0.007745 0.362659 0.002344
v 0.022465 0.280760 0.000053
v -0.006844 0.280759 -0.002962
v 0.015498 0.210420 0.017711
v 0.005958 0.205659 -0.017741
v 0.029476 0.148565 0.007966
v -0.008376 0.147213 -0.009234
v 0.024125 0.084143 -0.012224
v 0.001517 0.087414 0.009477
v 0.012208 -0.000610 0.000444
v -0.012208 0.000610 -0.000444
v 0.095294 0.667415 0.002313
v 0.080867 0.570782 0.005603
v 0.088691 0.571666 0.012167
v 0.068202 0.441951 0.001109
v 0.052532 0.439667 0.011138
v 0.070822 0.326601 -0.017353
v 0.065679 0.319987 0.005246
v 0.073955 0.225697 -0.029837
v 0.064117 0.222451 -0.007493
v 0.035476 0.119354 -0.024766
v 0.048826 0.119930 -0.009352
v 0.025974 -0.000242 -0.004624
v 0.032981 0.000238 0.005327
v 0.071159 0.505497 0.020674
v 0.071298 0.505729 0.006168
v 0.056541 0.173169 -0.008509
v 0.066882 0.378119 0.012022
v 0.045570 0.174158 -0.028645
v 0.069081 0.383083 -0.009078
v 0.089495 0.635089 0.004197
v 0.084066 0.275785 -0.017246
v 0.039184 0.053080 -0.001702
v 0.028301 0.052245 -0.014866
v 0.064759 0.270203 -0.002443
v 0.094471 0.635842 0.006115
v -0.007282 0.667415 -0.085317
v 0.002781 0.570782 -0.074468
v 0.004554 0.571666 -0.084526
v 0.005222 0.441951 -0.061253
v 0.021742 0.439667 -0.052697
v -0.012076 0.326601 -0.054291
v 0.010066 0.319987 -0.061137
v -0.024455 0.225697 -0.050763
v -0.000186 0.222451 -0.053414
v -0.000938 0.119325 -0.019974
v 0.005851 0.119930 -0.039242
v 0.021370 -0.000242 -0.021816
v 0.026485 0.000238 -0.032859
v 0.020687 0.505497 -0.073597
v 0.008055 0.505729 -0.066464
v 0.002722 0.173169 -0.046345
v 0.015332 0.378119 -0.065566
v -0.010518 0.173836 -0.026776
v -0.004039 0.383083 -0.056921
v -0.002751 0.635089 -0.081237
v -0.018606 0.275785 -0.065814
v 0.017296 0.053080 -0.034717
v 0.011337 0.052245 -0.018710
v 0.003868 0.270203 -0.056495
v -0.003578 0.635842 -0.086506
v -0.061938 0.294063 0.010576
v -0.075010 0.242133 0.012788
v -0.064116 0.242130 0.013161
v -0.074583 0.183791 0.005426
v -0.066179 0.184827 0.023353
v -0.068025 0.135538 0.003563
v -0.084615 0.129731 0.020888
v -0.059713 0.096231 -0.001260
v -0.059317 0.095815 0.024446
v -0.056299 0.053905 0.008560
v -0.036811 0.059160 0.014379
v -0.036417 -0.000176 0.011218
v -0.029008 0.001806 0.025611
vt 0.442771 0.963287
vt 0.443130 0.966602
vt 0.442455 0.966602
vt 0.443130 0.970148
vt 0.442455 0.970148
vt 0.443130 0.973405
vt 0.442455 0.973405
vt 0.443130 0.976110
vt 0.442455 0.976110
vt 0.443130 0.978949
vt 0.442455 0.978949
vt 0.443130 0.982737
vt 0.442455 0.982737
vt 0.438976 0.954605
vt 0.438976 0.957358
vt 0.437437 0.957358
vt 0.437437 0.954605
vt 0.438976 0.960219
vt 0.438976 0.963046
vt 0.437437 0.963046
vt 0.437437 0.960219
vt 0.438976 0.965658
vt 0.438976 0.968114
vt 0.437437 0.968114
vt 0.437437 0.965658
vt 0.438976 0.970299
vt 0.438976 0.972436
vt 0.437437 0.972436
vt 0.437437 0.970299
vt 0.438976 0.974745
vt 0.438976 0.977074
vt 0.437437 0.977074
vt 0.437437 0.974745
vt 0.438976 0.979966
vt 0.438976 0.982243
vt 0.437437 0.982243
vt 0.437437 0.979966
vt 0.438060 0.951176
vt 0.438976 0.954605
vt 0.438976 0.957358
vt 0.437437 0.957358
vt 0.437437 0.954605
vt 0.438976 0.960219
vt 0.438976 0.963046
vt 0.437437 0.963046
vt 0.437437 0.960219
vt 0.438976 0.965658
vt 0.438976 0.968114
vt 0.437437 0.968114
vt 0.437437 0.965658
vt 0.438976 0.970299
vt 0.438976 0.972436
vt 0.437437 0.972436
vt 0.437437 0.970299
vt 0.438976 0.974745
vt 0.438976 0.977071
vt 0.437437 0.977071
vt 0.437437 0.974745
vt 0.438976 0.979964
vt 0.438976 0.982240
vt 0.437437 0.982240
vt 0.437437 0.979964
vt 0.438060 0.951176
vt 0.443001 0.963287
vt 0.443298 0.965227
vt 0.442455 0.965227
vt 0.443298 0.967936
vt 0.442455 0.967936
vt 0.443298 0.970409
vt 0.442455 0.970409
vt 0.443298 0.972328
vt 0.442455 0.972328
vt 0.443298 0.974359
vt 0.442455 0.974359
vt 0.443298 0.977058
vt 0.442455 0.977058
vn 0.8431 -0.0434 0.5360
vn 0.6055 -0.0136 0.7957
vn 0.5647 -0.0091 0.8252
vn -0.2603 0.0034 0.9655
vn -0.2573 0.0035 0.9663
vn -0.7253 -0.0089 0.6883
vn -0.7222 -0.0096 0.6916
vn -0.3803 -0.0077 0.9248
vn -0.3925 -0.0076 0.9197
vn 0.2368 -0.0272 0.9712
vn 0.2498 -0.0286 0.9679
vn 0.4007 -0.0452 0.9151
vn 0.4590 -0.1166 -0.8807
vn 0.7590 -0.1646 -0.6299
vn 0.7991 -0.1760 -0.5748
vn 0.4845 -0.1152 -0.8671
vn 0.9680 -0.2267 0.1070
vn 0.8542 -0.0549 0.5170
vn 0.8528 -0.0705 0.5174
vn 0.9678 -0.2267 0.1089
vn 0.9465 0.0221 0.3220
vn 0.9208 0.0255 0.3891
vn 0.9380 0.0174 0.3463
vn 0.9366 0.0288 0.3492
vn 0.8150 -0.0792 0.5739
vn 0.9247 -0.2844 0.2531
vn 0.9103 -0.2705 0.3133
vn 0.8181 -0.0562 0.5723
vn 0.9145 -0.2551 -0.3140
vn 0.7875 -0.1632 -0.5942
vn 0.7851 -0.1643 -0.5971
vn 0.9091 -0.2472 -0.3353
vn 0.7697 -0.1698 -0.6153
vn 0.7848 -0.1617 -0.5982
vn 0.3729 -0.1205 -0.9200
vn -0.9922 -0.1166 0.0429
vn -0.9250 -0.1646 -0.3423
vn -0.8974 -0.1760 -0.4046
vn -0.9932 -0.1152 0.0139
vn -0.3914 -0.2267 -0.8918
vn 0.0206 -0.0549 -0.9983
vn 0.0217 -0.0705 -0.9973
vn -0.3896 -0.2267 -0.8926
vn -0.1944 0.0221 -0.9807
vn -0.1234 0.0255 -0.9920
vn -0.1691 0.0174 -0.9854
vn -0.1659 0.0288 -0.9857
vn 0.0895 -0.0792 -0.9928
vn -0.2343 -0.2798 -0.9310
vn -0.1793 -0.2673 -0.9468
vn 0.0866 -0.0562 -0.9946
vn -0.7113 -0.2575 -0.6540
vn -0.9005 -0.1699 -0.4001
vn -0.9023 -0.1705 -0.3959
vn -0.7280 -0.2499 -0.6383
vn -0.9171 -0.1702 -0.3603
vn -0.9105 -0.1617 -0.3806
vn -0.9171 -0.1701 -0.3603
vn -0.9832 -0.1205 0.1371
vn 0.0342 -0.0511 -0.9981
vn 0.3789 -0.0423 -0.9245
vn 0.4155 -0.0410 -0.9086
vn 0.9436 -0.0822 -0.3206
vn 0.9612 -0.0881 -0.2613
vn 0.9363 0.1625 0.3112
vn 0.9458 0.1259 0.2994
vn 0.9273 0.3661 -0.0771
vn 0.9276 0.3671 -0.0691
vn 0.7037 0.1530 -0.6938
vn 0.7083 0.1578 -0.6880
vn 0.5920 0.0468 -0.8046
usemtl polybeach_atlas01
s 1
f 1/1/1 3/2/2 2/3/3
f 3/2/2 5/4/4 4/5/5 2/3/3
f 5/4/4 7/6/6 6/7/7 4/5/5
f 7/6/6 9/8/8 8/9/9 6/7/7
f 9/8/8 11/10/10 10/11/11 8/9/9
f 11/10/10 13/12/12 12/13/12 10/11/11
f 38/14/13 16/15/14 15/16/15 33/17/16
f 27/18/17 18/19/18 17/20/19 28/21/20
f 30/22/21 20/23/22 19/24/23 32/25/24
f 37/26/25 22/27/26 21/28/27 34/29/28
f 29/30/29 24/31/30 23/32/31 31/33/32
f 35/34/33 26/35/34 25/36/34 36/37/33
f 24/31/30 35/34/33 36/37/33 23/32/31
f 22/27/26 29/30/29 31/33/32 21/28/27
f 20/23/22 37/26/25 34/29/28 19/24/23
f 18/19/18 30/22/21 32/25/24 17/20/19
f 16/15/14 27/18/17 28/21/20 15/16/15
f 14/38/35 38/14/13 33/17/16
f 63/39/36 41/40/37 40/41/38 58/42/39
f 52/43/40 43/44/41 42/45/42 53/46/43
f 55/47/44 45/48/45 44/49/46 57/50/47
f 62/51/48 47/52/49 46/53/50 59/54/51
f 54/55/52 49/56/53 48/57/54 56/58/55
f 60/59/56 51/60/57 50/61/57 61/62/58
f 49/56/53 60/59/56 61/62/58 48/57/54
f 47/52/49 54/55/52 56/58/55 46/53/50
f 45/48/45 62/51/48 59/54/51 44/49/46
f 43/44/41 55/47/44 57/50/47 42/45/42
f 41/40/37 52/43/40 53/46/43 40/41/38
f 39/63/59 63/39/36 58/42/39
f 64/64/60 66/65/61 65/66/62
f 66/65/61 68/67/63 67/68/64 65/66/62
f 68/67/63 70/69/65 69/70/66 67/68/64
f 70/69/65 72/71/67 71/72/68 69/70/66
f 72/71/67 74/73/69 73/74/70 71/72/68
f 74/73/69 76/75/71 75/76/71 73/74/70
