# Blender v2.79 (sub 0) OBJ File: 'PolyBeach_v1.1_.blend'
# www.blender.org
o beach_shell.01_shell.021
v -0.000015 0.011027 -0.114340
v -0.082697 0.011012 -0.085276
v -0.133365 0.010967 -0.007912
v 0.031804 0.011347 0.116768
v -0.000267 0.011589 0.116324
v 0.016302 0.007876 0.123157
v 0.133335 0.010967 -0.007911
v 0.082667 0.011012 -0.085275
v -0.042578 0.006733 -0.100586
v -0.111510 0.006700 -0.045277
v -0.133813 0.006311 0.045000
v -0.030785 0.011651 0.116210
v -0.015313 0.008166 0.122624
v 0.133783 0.006311 0.045014
v 0.111480 0.006700 -0.045276
v 0.042548 0.006733 -0.100586
v -0.017430 0.016299 0.058997
v -0.000180 0.018693 0.055544
v 0.017070 0.016299 0.058997
v -0.034092 0.018681 0.061096
v -0.044058 0.016274 0.071278
v -0.047629 0.018386 0.085011
v -0.043859 0.014055 0.100446
v 0.033731 0.018681 0.061097
v 0.043697 0.016274 0.071279
v 0.047294 0.018386 0.085021
v 0.043781 0.014017 0.100559
v 0.088782 0.010609 0.072786
v 0.090315 0.023434 0.038555
v 0.077588 0.020244 0.013002
v -0.088836 0.010628 0.072723
v -0.090497 0.023434 0.038549
v -0.077784 0.020244 0.013000
v 0.058199 0.023603 -0.012089
v 0.029809 0.020273 -0.020794
v -0.058394 0.023603 -0.012090
v -0.030004 0.020273 -0.020795
v -0.000098 0.023617 -0.029398
vt 0.563814 0.554154
vt 0.562407 0.552172
vt 0.569533 0.547953
vt 0.565899 0.555403
vt 0.567776 0.556769
vt 0.560899 0.550407
vt 0.560862 0.548437
vt 0.561751 0.546672
vt 0.563630 0.545408
vt 0.569744 0.556653
vt 0.571437 0.555630
vt 0.572589 0.553670
vt 0.571956 0.548689
vt 0.572876 0.550872
vt 0.566462 0.545056
vt 0.568709 0.545800
vt 0.567785 0.565699
vt 0.563472 0.566429
vt 0.553168 0.547356
vt 0.556522 0.543677
vt 0.571437 0.564256
vt 0.552013 0.551107
vt 0.565937 0.575049
vt 0.559109 0.576309
vt 0.551619 0.555463
vt 0.544345 0.547833
vt 0.549292 0.542239
vt 0.553647 0.559051
vt 0.571660 0.573104
vt 0.559737 0.564686
vt 0.542849 0.553690
vt 0.555894 0.562731
vt 0.547838 0.571455
vt 0.544667 0.566017
vt 0.542124 0.560595
vt 0.574862 0.560633
vt 0.576853 0.567737
vt 0.553507 0.574194
vn -0.0000 0.9963 0.0855
vn -0.1094 0.9901 0.0881
vn -0.0000 0.9932 0.1161
vn 0.1094 0.9901 0.0883
vn -0.0256 0.9963 0.0823
vn -0.1394 0.9897 0.0317
vn -0.0479 0.9940 0.0981
vn 0.1394 0.9897 0.0321
vn 0.0256 0.9963 0.0823
vn 0.0479 0.9940 0.0983
vn -0.0703 0.9880 0.1373
vn 0.1937 0.9788 -0.0672
vn -0.0281 0.9891 0.1446
vn 0.0274 0.9792 0.2012
vn -0.0943 0.9515 0.2929
vn 0.0702 0.9880 0.1374
vn 0.0269 0.9893 0.1436
vn -0.1930 0.9789 -0.0672
vn -0.0245 0.9779 0.2078
vn 0.0936 0.9513 0.2936
vn 0.0036 0.9639 0.2662
vn 0.0010 0.9668 0.2554
vn 0.1457 0.9888 0.0325
vn 0.0564 0.9971 -0.0506
vn -0.1220 0.9905 0.0633
vn -0.2937 0.9104 0.2913
vn 0.1215 0.9906 0.0630
vn 0.0081 0.9908 -0.1351
vn -0.0083 0.9908 -0.1353
vn 0.2575 0.9632 -0.0772
vn 0.0684 0.9874 -0.1427
vn -0.0567 0.9971 -0.0507
vn -0.1459 0.9888 0.0324
vn -0.1737 0.9827 -0.0643
vn -0.3364 0.9224 0.1896
vn 0.0857 0.9926 -0.0866
vn 0.1733 0.9828 -0.0642
vn 0.0991 0.9803 -0.1707
vn -0.0857 0.9925 -0.0866
vn -0.0994 0.9803 -0.1708
vn -0.0000 0.9982 -0.0599
vn -0.1254 0.9915 -0.0339
vn 0.0001 0.9894 -0.1455
vn -0.1476 0.9785 -0.1440
vn -0.0683 0.9874 -0.1428
vn -0.2580 0.9630 -0.0776
vn 0.2920 0.9115 0.2898
vn 0.3354 0.9229 0.1893
vn 0.1254 0.9915 -0.0338
vn 0.0464 0.9827 -0.1791
vn -0.0464 0.9827 -0.1791
vn 0.1475 0.9786 -0.1437
s 1
f 18/1/1 17/2/2 5/3/3
f 19/4/4 18/1/1 5/3/3
f 24/5/5 19/4/6 5/3/7
f 17/2/8 20/6/9 5/3/10
f 20/6/9 21/7/11 5/3/10
f 21/7/12 22/8/13 5/3/14
f 22/8/13 23/9/15 5/3/14
f 25/10/16 24/5/5 5/3/7
f 26/11/17 25/10/18 5/3/19
f 27/12/20 26/11/17 5/3/19
f 27/12/20 5/3/19 6/13/21 4/14/21
f 5/3/14 23/9/15 12/15/22 13/16/22
f 30/17/23 34/18/24 24/5/5 25/10/16
f 32/19/25 31/20/26 23/9/15 22/8/13
f 29/21/27 30/17/28 25/10/18 26/11/17
f 33/22/29 32/19/25 22/8/13 21/7/12
f 15/23/30 8/24/31 34/18/24 30/17/23
f 36/25/32 33/22/33 21/7/11 20/6/9
f 3/26/34 11/27/35 31/20/26 32/19/25
f 37/28/36 36/25/32 20/6/9 17/2/8
f 7/29/37 15/23/38 30/17/28 29/21/27
f 35/30/39 19/4/6 24/5/5 34/18/24
f 10/31/40 3/26/34 32/19/25 33/22/29
f 38/32/41 37/28/42 17/2/2 18/1/1
f 1/33/43 9/34/44 37/28/42 38/32/41
f 2/35/45 10/31/46 33/22/33 36/25/32
f 7/29/37 29/21/27 28/36/47 14/37/48
f 38/32/41 18/1/1 19/4/4 35/30/49
f 9/34/50 2/35/45 36/25/32 37/28/36
f 16/38/51 35/30/39 34/18/24 8/24/31
f 1/33/43 38/32/41 35/30/49 16/38/52
f 29/21/27 26/11/17 27/12/20 28/36/47
