# Blender v2.79 (sub 0) OBJ File: 'PolyBeach_v1.1_.blend'
# www.blender.org
mtllib beach_star_m.mtl
o beach_star_Star
v 0.000000 0.038886 -0.000000
v -0.033238 0.033308 0.010800
v 0.000000 0.033308 0.034948
v 0.033238 0.033308 0.010800
v 0.020542 0.033308 -0.028274
v -0.020542 0.033308 -0.028274
v 0.127807 0.000842 0.170791
v 0.108392 0.000905 0.180951
v -0.121244 0.031386 -0.018961
v -0.061988 0.031386 0.102008
v 0.089276 0.030709 0.086645
v 0.110145 0.031386 -0.057243
v -0.011643 0.031386 -0.120193
v -0.106658 0.031386 -0.046879
v -0.090718 0.031386 0.089093
v 0.061369 0.030800 0.101251
v 0.116088 0.031386 -0.026310
v 0.019856 0.031386 -0.120193
v 0.000000 -0.038886 -0.000000
v -0.033238 -0.033308 0.010800
v 0.000000 -0.033308 0.034948
v 0.033238 -0.033308 0.010800
v 0.020542 -0.033308 -0.028274
v -0.020542 -0.033308 -0.028274
v -0.010956 -0.000000 -0.212112
v 0.010956 -0.000000 -0.212112
v -0.200495 -0.000000 -0.065774
v -0.190347 -0.000000 -0.085195
v -0.104048 0.000000 0.183880
v -0.124035 0.000000 0.174895
v 0.127807 -0.000842 0.170791
v 0.108392 -0.000905 0.180951
v 0.201318 -0.000000 -0.069878
v 0.205452 -0.000000 -0.048359
v -0.054863 -0.000000 -0.075513
v -0.088771 0.000000 0.028843
v 0.000000 0.000000 0.093339
v 0.088771 0.000000 0.028843
v 0.054863 -0.000000 -0.075513
v -0.121244 -0.031386 -0.018961
v -0.061988 -0.031386 0.102008
v 0.089276 -0.030709 0.086645
v 0.110145 -0.031386 -0.057243
v -0.011643 -0.031386 -0.120193
v -0.106658 -0.031386 -0.046879
v -0.090718 -0.031386 0.089093
v 0.061369 -0.030800 0.101251
v 0.116088 -0.031386 -0.026310
v 0.019856 -0.031386 -0.120193
v -0.028803 -0.000000 -0.143812
v -0.150125 -0.000000 -0.014688
v -0.056021 0.000000 0.130587
v 0.115590 0.000000 0.100108
v 0.130103 -0.000000 -0.078552
v 0.037017 -0.000000 -0.143812
v -0.119646 -0.000000 -0.073026
v -0.116054 0.000000 0.103599
v 0.057274 0.000000 0.130627
v 0.142521 -0.000000 -0.013914
vt 0.216169 0.572621
vt 0.222218 0.577319
vt 0.212622 0.573861
vt 0.192600 0.556278
vt 0.199128 0.560296
vt 0.199295 0.567808
vt 0.192683 0.560034
vt 0.211923 0.560473
vt 0.210120 0.567923
vt 0.203027 0.570404
vt 0.208377 0.561713
vt 0.195807 0.588111
vt 0.192886 0.581024
vt 0.197167 0.574848
vt 0.197947 0.585023
vt 0.182639 0.573360
vt 0.188477 0.568393
vt 0.195673 0.570555
vt 0.186237 0.574441
vt 0.205465 0.555995
vt 0.211802 0.551694
vt 0.205549 0.559751
vt 0.186345 0.561036
vt 0.184213 0.553680
vt 0.189943 0.562117
vt 0.185231 0.580779
vt 0.177577 0.580534
vt 0.187372 0.577691
vt 0.203664 0.587939
vt 0.201065 0.595143
vt 0.201388 0.584949
vt 0.201711 0.574755
vt 0.199375 0.571674
vt 0.198727 0.595199
vt 0.211630 0.577157
vt 0.213905 0.580147
vt 0.206262 0.580734
vt 0.221548 0.579560
vt 0.213727 0.553023
vt 0.186071 0.552261
vt 0.176801 0.578327
vt 0.212622 0.573861
vt 0.192683 0.560034
vt 0.199295 0.567808
vt 0.208377 0.561713
vt 0.203027 0.570404
vt 0.197947 0.585023
vt 0.197167 0.574848
vt 0.186237 0.574441
vt 0.195673 0.570555
vt 0.205549 0.559751
vt 0.189943 0.562117
vt 0.184213 0.553680
vt 0.187372 0.577691
vt 0.201388 0.584949
vt 0.201711 0.574755
vt 0.199375 0.571674
vt 0.211630 0.577157
vt 0.186071 0.552261
vn 0.7369 0.6415 -0.2132
vn 0.1572 0.9298 -0.3327
vn 0.3934 0.9035 -0.1701
vn 0.7445 0.6311 -0.2176
vn 0.5862 0.8007 0.1235
vn 0.1861 0.9809 0.0569
vn 0.4307 0.8982 -0.0880
vn 0.0160 0.6274 -0.7786
vn -0.1349 0.6651 -0.7345
vn 0.1090 0.9826 -0.1505
vn 0.0529 0.8992 -0.4343
vn -0.4920 0.6285 0.6024
vn -0.3352 0.6669 0.6655
vn -0.1809 0.9818 0.0571
vn -0.3069 0.8988 0.3128
vn 0.5367 0.6567 0.5299
vn 0.0050 0.8182 0.5749
vn 0.0025 0.9793 0.2024
vn 0.1940 0.9219 0.3353
vn 0.3738 0.6517 0.6600
vn 0.3517 0.9307 0.1006
vn 0.2716 0.9182 0.2882
vn -0.5150 0.6612 0.5455
vn 0.0013 0.9365 0.3505
vn -0.1864 0.9220 0.3393
vn -0.7592 0.6245 -0.1835
vn -0.2844 0.9307 0.2300
vn -0.4388 0.8952 -0.0778
vn 0.1077 0.6531 -0.7495
vn -0.2128 0.9307 -0.2975
vn -0.0429 0.9194 -0.3910
vn -0.1183 0.9796 -0.1622
vn 0.0000 1.0000 0.0000
vn -0.3658 0.9307 -0.0048
vn -0.3614 0.9142 -0.1836
vn -0.7496 0.6346 -0.1881
vn -0.3461 0.8104 -0.4726
vn -0.1729 0.9317 -0.3194
vn 0.2894 0.9307 -0.2237
vn 0.2909 0.9358 0.1990
vn 0.0168 0.9307 0.3654
vn 0.7274 0.6800 -0.0923
vn -0.6668 0.6519 -0.3611
vn 0.7369 -0.6415 -0.2132
vn 0.3934 -0.9035 -0.1701
vn 0.1572 -0.9298 -0.3327
vn 0.7445 -0.6311 -0.2176
vn 0.4307 -0.8982 -0.0880
vn 0.1861 -0.9809 0.0569
vn 0.5862 -0.8007 0.1235
vn 0.0160 -0.6274 -0.7786
vn 0.0529 -0.8992 -0.4343
vn 0.1090 -0.9826 -0.1505
vn -0.1349 -0.6651 -0.7345
vn -0.4920 -0.6285 0.6024
vn -0.3069 -0.8988 0.3128
vn -0.1809 -0.9818 0.0571
vn -0.3352 -0.6669 0.6655
vn 0.5367 -0.6567 0.5299
vn 0.1940 -0.9219 0.3353
vn 0.0025 -0.9793 0.2024
vn 0.0050 -0.8182 0.5749
vn 0.3738 -0.6517 0.6600
vn 0.2716 -0.9182 0.2882
vn 0.3517 -0.9307 0.1006
vn -0.5150 -0.6612 0.5455
vn -0.1864 -0.9220 0.3393
vn 0.0013 -0.9365 0.3505
vn -0.7592 -0.6245 -0.1835
vn -0.4388 -0.8952 -0.0778
vn -0.2844 -0.9307 0.2300
vn 0.1077 -0.6531 -0.7495
vn -0.0429 -0.9194 -0.3910
vn -0.2128 -0.9307 -0.2975
vn -0.1183 -0.9796 -0.1622
vn -0.0000 -1.0000 0.0000
vn -0.3658 -0.9307 -0.0048
vn -0.3614 -0.9142 -0.1836
vn -0.7496 -0.6346 -0.1881
vn -0.3461 -0.8104 -0.4726
vn -0.1729 -0.9317 -0.3194
vn 0.2894 -0.9307 -0.2237
vn 0.2909 -0.9358 0.1990
vn 0.0168 -0.9307 0.3654
vn 0.7274 -0.6800 -0.0923
vn -0.6668 -0.6519 -0.3611
usemtl polybeach_atlas01
s 1
f 55/1/1 26/2/2 18/3/3
f 53/4/4 38/5/5 4/6/6 11/7/7
f 54/8/8 39/9/9 5/10/10 12/11/11
f 51/12/12 36/13/13 2/14/14 9/15/15
f 52/16/16 37/17/17 3/18/18 10/19/19
f 59/20/20 34/21/21 17/22/22
f 58/23/23 8/24/24 16/25/25
f 57/26/26 30/27/27 15/28/28
f 56/29/29 28/30/30 14/31/31
f 6/32/32 2/14/14 1/33/33
f 14/31/31 28/30/30 27/34/34 9/15/15
f 10/19/19 3/18/18 2/14/14 15/28/28
f 11/7/7 4/6/6 3/18/18 16/25/25
f 12/11/11 5/10/10 4/6/6 17/22/22
f 13/35/35 6/32/32 5/10/10 18/3/3
f 50/36/36 35/37/37 6/32/32 13/35/35
f 2/14/14 3/18/18 1/33/33
f 3/18/18 4/6/6 1/33/33
f 4/6/6 5/10/10 1/33/33
f 5/10/10 6/32/32 1/33/33
f 25/38/38 13/35/35 18/3/3 26/2/2
f 33/39/39 12/11/11 17/22/22 34/21/21
f 7/40/40 11/7/7 16/25/25 8/24/24
f 29/41/41 10/19/19 15/28/28 30/27/27
f 6/32/32 14/31/31 9/15/15 2/14/14
f 27/34/34 51/12/12 9/15/15
f 35/37/37 56/29/29 14/31/31 6/32/32
f 25/38/38 50/36/36 13/35/35
f 39/9/42 55/1/1 18/3/3 5/10/10
f 33/39/39 54/8/8 12/11/11
f 38/5/5 59/20/20 17/22/22 4/6/6
f 7/40/40 53/4/4 11/7/7
f 37/17/17 58/23/23 16/25/25 3/18/18
f 29/41/41 52/16/16 10/19/19
f 36/13/43 57/26/26 15/28/28 2/14/14
f 55/1/44 49/42/45 26/2/46
f 53/4/47 42/43/48 22/44/49 38/5/50
f 54/8/51 43/45/52 23/46/53 39/9/54
f 51/12/55 40/47/56 20/48/57 36/13/58
f 52/16/59 41/49/60 21/50/61 37/17/62
f 59/20/63 48/51/64 34/21/65
f 58/23/66 47/52/67 32/53/68
f 57/26/69 46/54/70 30/27/71
f 56/29/72 45/55/73 28/30/74
f 24/56/75 19/57/76 20/48/57
f 45/55/73 40/47/56 27/34/77 28/30/74
f 41/49/60 46/54/70 20/48/57 21/50/61
f 42/43/48 47/52/67 21/50/61 22/44/49
f 43/45/52 48/51/64 22/44/49 23/46/53
f 44/58/78 49/42/45 23/46/53 24/56/75
f 50/36/79 44/58/78 24/56/75 35/37/80
f 20/48/57 19/57/76 21/50/61
f 21/50/61 19/57/76 22/44/49
f 22/44/49 19/57/76 23/46/53
f 23/46/53 19/57/76 24/56/75
f 25/38/81 26/2/46 49/42/45 44/58/78
f 33/39/82 34/21/65 48/51/64 43/45/52
f 31/59/83 32/53/68 47/52/67 42/43/48
f 29/41/84 30/27/71 46/54/70 41/49/60
f 24/56/75 20/48/57 40/47/56 45/55/73
f 27/34/77 40/47/56 51/12/55
f 35/37/80 24/56/75 45/55/73 56/29/72
f 25/38/81 44/58/78 50/36/79
f 39/9/85 23/46/53 49/42/45 55/1/44
f 33/39/82 43/45/52 54/8/51
f 38/5/50 22/44/49 48/51/64 59/20/63
f 31/59/83 42/43/48 53/4/47
f 37/17/62 21/50/61 47/52/67 58/23/66
f 29/41/84 41/49/60 52/16/59
f 36/13/86 20/48/57 46/54/70 57/26/69
