# Blender v2.79 (sub 0) OBJ File: 'PolyBeach_v1.1_.blend'
# www.blender.org
mtllib beach_grass_m.mtl
o beach_grass_.009
v 0.625646 0.229837 0.010929
v 0.107500 0.117876 0.024383
v 0.283962 0.222127 0.027839
v 0.499219 0.247538 0.018099
v 0.014986 0.008501 0.008061
v 0.108525 0.116981 -0.020393
v 0.284978 0.221302 -0.011820
v 0.499914 0.247054 -0.003066
v 0.015389 0.008165 -0.008348
v -0.173180 0.554440 -0.403054
v -0.033651 0.139824 -0.103360
v -0.045045 0.330152 -0.178622
v -0.115848 0.486955 -0.310818
v -0.044303 -0.002742 -0.050799
v -0.071400 0.146389 -0.080151
v -0.078531 0.336011 -0.158155
v -0.133791 0.490145 -0.300023
v -0.058151 -0.000325 -0.042316
v -0.240798 0.197246 0.413276
v -0.054488 0.094972 0.060836
v -0.121616 0.181181 0.176479
v -0.196773 0.207253 0.324903
v -0.010951 0.007151 0.006849
v -0.024696 0.093716 0.078715
v -0.095270 0.180048 0.192389
v -0.182772 0.206618 0.333498
v -0.000043 0.006686 0.013420
v 0.113156 0.306427 -0.401230
v 0.033002 0.110853 -0.048084
v 0.063497 0.226663 -0.152821
v 0.094582 0.292224 -0.304786
v 0.008453 0.009495 -0.007507
v -0.000482 0.110853 -0.057446
v 0.033860 0.226663 -0.161198
v 0.078796 0.292224 -0.309376
v -0.003813 0.009495 -0.010959
v 0.236599 0.257252 0.257891
v 0.019774 0.093064 0.044790
v 0.081113 0.190289 0.112793
v 0.175920 0.245329 0.202062
v 0.001630 0.007972 0.009350
v 0.041238 0.093064 0.025010
v 0.100176 0.190289 0.095325
v 0.186166 0.245329 0.192814
v 0.009509 0.007972 0.002114
v -0.537106 0.394811 -0.004307
v -0.070973 0.142827 -0.024679
v -0.211504 0.292040 -0.026991
v -0.410932 0.376512 -0.013991
v -0.012202 0.012234 -0.007955
v -0.071232 0.142827 0.020117
v -0.211846 0.292040 0.012688
v -0.411274 0.376512 0.007188
v -0.012325 0.012234 0.008462
v 0.335607 0.247225 -0.311807
v 0.122505 0.083036 -0.094982
v 0.190508 0.180261 -0.156322
v 0.279777 0.235302 -0.251129
v 0.087065 -0.002056 -0.076838
v 0.102725 0.083036 -0.116446
v 0.173040 0.180261 -0.175384
v 0.270529 0.235302 -0.261374
v 0.079829 -0.002056 -0.084718
v -0.301906 0.247225 -0.280235
v -0.071829 0.083036 -0.081515
v -0.137414 0.180261 -0.145433
v -0.237764 0.235301 -0.228422
v -0.051444 -0.002056 -0.047314
v -0.091977 0.083036 -0.060395
v -0.155314 0.180261 -0.126776
v -0.247394 0.235301 -0.218535
v -0.058842 -0.002056 -0.039587
vt 0.430231 0.837855
vt 0.431347 0.825698
vt 0.432539 0.825718
vt 0.432463 0.837908
vt 0.430019 0.849386
vt 0.432539 0.849451
vt 0.432127 0.818547
vt 0.430734 0.857467
vt 0.431657 0.857490
vt 0.430231 0.837855
vt 0.431347 0.825698
vt 0.432539 0.825718
vt 0.432463 0.837908
vt 0.430019 0.849386
vt 0.432539 0.849451
vt 0.432127 0.818547
vt 0.430734 0.857467
vt 0.431657 0.857490
vt 0.430231 0.837855
vt 0.431347 0.825698
vt 0.432539 0.825718
vt 0.432463 0.837908
vt 0.430019 0.849386
vt 0.432539 0.849451
vt 0.432127 0.818547
vt 0.430734 0.857467
vt 0.431657 0.857490
vt 0.430231 0.837855
vt 0.431347 0.825698
vt 0.432539 0.825718
vt 0.432463 0.837908
vt 0.430019 0.849386
vt 0.432539 0.849451
vt 0.432127 0.818547
vt 0.430734 0.857467
vt 0.431657 0.857490
vt 0.430231 0.837855
vt 0.431347 0.825698
vt 0.432539 0.825718
vt 0.432463 0.837908
vt 0.430019 0.849386
vt 0.432539 0.849451
vt 0.432127 0.818547
vt 0.430734 0.857467
vt 0.431657 0.857490
vt 0.430231 0.837855
vt 0.431347 0.825698
vt 0.432539 0.825718
vt 0.432463 0.837908
vt 0.430019 0.849386
vt 0.432539 0.849451
vt 0.432127 0.818547
vt 0.430734 0.857467
vt 0.431657 0.857490
vt 0.430231 0.837855
vt 0.431347 0.825698
vt 0.432539 0.825718
vt 0.432463 0.837908
vt 0.430019 0.849386
vt 0.432539 0.849451
vt 0.432127 0.818547
vt 0.430734 0.857467
vt 0.431657 0.857490
vt 0.430231 0.837855
vt 0.431347 0.825698
vt 0.432539 0.825718
vt 0.432463 0.837908
vt 0.430019 0.849386
vt 0.432539 0.849451
vt 0.432127 0.818547
vt 0.430734 0.857467
vt 0.431657 0.857490
vn -0.3239 0.9457 -0.0279
vn 0.0030 0.9998 -0.0218
vn 0.0063 0.9997 -0.0217
vn -0.3228 0.9461 -0.0279
vn -0.6381 0.7693 -0.0307
vn -0.6411 0.7669 -0.0307
vn 0.1376 0.9903 -0.0181
vn -0.7610 0.6481 -0.0308
vn 0.5101 0.5190 0.6859
vn 0.4268 0.7658 0.4811
vn 0.4257 0.7678 0.4787
vn 0.5099 0.5199 0.6853
vn 0.5364 0.2989 0.7892
vn 0.5365 0.2982 0.7895
vn 0.3792 0.8431 0.3812
vn 0.5379 0.2558 0.8032
vn 0.2161 0.9318 -0.2917
vn 0.0515 0.9986 -0.0121
vn 0.0498 0.9987 -0.0092
vn 0.2156 0.9322 -0.2908
vn 0.3676 0.7433 -0.5589
vn 0.3690 0.7407 -0.5614
vn -0.0184 0.9945 0.1034
vn 0.4241 0.6174 -0.6625
vn -0.1563 0.8184 0.5530
vn -0.0760 0.9612 0.2651
vn -0.0752 0.9621 0.2620
vn -0.1560 0.8190 0.5522
vn -0.2235 0.5615 0.7967
vn -0.2241 0.5584 0.7988
vn -0.0401 0.9896 0.1380
vn -0.2459 0.4109 0.8779
vn -0.3883 0.8184 -0.4237
vn -0.1855 0.9612 -0.2040
vn -0.1833 0.9621 -0.2017
vn -0.3877 0.8190 -0.4230
vn -0.5602 0.5615 -0.6090
vn -0.5617 0.5584 -0.6105
vn -0.0963 0.9896 -0.1067
vn -0.6175 0.4109 -0.6707
vn 0.5747 0.8184 0.0049
vn 0.2757 0.9612 0.0034
vn 0.2725 0.9621 0.0034
vn 0.5738 0.8190 0.0049
vn 0.8274 0.5615 0.0055
vn 0.8296 0.5584 0.0055
vn 0.1437 0.9896 0.0023
vn 0.9117 0.4109 0.0057
vn -0.4237 0.8184 0.3883
vn -0.2040 0.9612 0.1855
vn -0.2017 0.9621 0.1833
vn -0.4230 0.8190 0.3877
vn -0.6090 0.5615 0.5602
vn -0.6105 0.5584 0.5617
vn -0.1067 0.9896 0.0963
vn -0.6707 0.4109 0.6175
vn 0.4147 0.8184 0.3978
vn 0.1982 0.9612 0.1917
vn 0.1959 0.9621 0.1894
vn 0.4141 0.8190 0.3972
vn 0.5982 0.5615 0.5717
vn 0.5998 0.5584 0.5732
vn 0.1030 0.9896 0.1003
vn 0.6594 0.4109 0.6296
usemtl polybeach_atlas01
s 1
f 3/1/1 4/2/2 8/3/3 7/4/4
f 2/5/5 3/1/1 7/4/4 6/6/6
f 4/2/2 1/7/7 8/3/3
f 5/8/8 2/5/5 6/6/6 9/9/8
f 12/10/9 13/11/10 17/12/11 16/13/12
f 11/14/13 12/10/9 16/13/12 15/15/14
f 13/11/10 10/16/15 17/12/11
f 14/17/16 11/14/13 15/15/14 18/18/16
f 21/19/17 22/20/18 26/21/19 25/22/20
f 20/23/21 21/19/17 25/22/20 24/24/22
f 22/20/18 19/25/23 26/21/19
f 23/26/24 20/23/21 24/24/22 27/27/24
f 30/28/25 31/29/26 35/30/27 34/31/28
f 29/32/29 30/28/25 34/31/28 33/33/30
f 31/29/26 28/34/31 35/30/27
f 32/35/32 29/32/29 33/33/30 36/36/32
f 39/37/33 40/38/34 44/39/35 43/40/36
f 38/41/37 39/37/33 43/40/36 42/42/38
f 40/38/34 37/43/39 44/39/35
f 41/44/40 38/41/37 42/42/38 45/45/40
f 48/46/41 49/47/42 53/48/43 52/49/44
f 47/50/45 48/46/41 52/49/44 51/51/46
f 49/47/42 46/52/47 53/48/43
f 50/53/48 47/50/45 51/51/46 54/54/48
f 57/55/49 58/56/50 62/57/51 61/58/52
f 56/59/53 57/55/49 61/58/52 60/60/54
f 58/56/50 55/61/55 62/57/51
f 59/62/56 56/59/53 60/60/54 63/63/56
f 66/64/57 67/65/58 71/66/59 70/67/60
f 65/68/61 66/64/57 70/67/60 69/69/62
f 67/65/58 64/70/63 71/66/59
f 68/71/64 65/68/61 69/69/62 72/72/64
