# Blender v2.79 (sub 0) OBJ File: 'PolyBeach_v1.1_.blend'
# www.blender.org
mtllib beach_shell02_m.mtl
o beach_shell02_shell
v 0.010710 0.012139 -0.152888
v 0.007472 0.022285 -0.148567
v 0.001576 0.038082 -0.113008
v -0.000059 0.032126 -0.141651
v -0.015639 0.040076 -0.108336
v -0.014065 0.036888 -0.134812
v -0.032110 0.032101 -0.103367
v -0.029737 0.033566 -0.128978
v -0.041648 0.016153 -0.097637
v -0.037071 0.018538 -0.124207
v -0.041008 -0.003485 -0.089837
v -0.036484 -0.000126 -0.120569
v -0.010428 -0.026171 -0.079904
v -0.002309 -0.027601 -0.108016
v -0.004848 -0.009656 -0.125624
v 0.016208 -0.024559 -0.106452
v 0.005018 -0.008432 -0.124601
v 0.035334 -0.008597 -0.102456
v 0.015647 -0.000424 -0.122438
v 0.041047 0.015646 -0.096889
v 0.027866 0.039574 -0.090991
v 0.012775 0.026377 -0.116608
v 0.007775 0.060050 -0.085238
v -0.022691 0.063188 -0.078599
v -0.051514 0.048438 -0.071411
v -0.067608 0.020153 -0.063418
v -0.063881 -0.013298 -0.054824
v 0.006455 -0.049822 -0.035118
v 0.004781 -0.024308 -0.078001
v 0.033458 -0.041061 -0.028631
v 0.021279 -0.015367 -0.074006
v 0.028857 0.003627 0.034698
v 0.057651 -0.012226 -0.018315
v 0.031753 0.002694 -0.068399
v 0.023512 0.017483 0.043706
v 0.045936 0.024135 0.024286
v 0.055846 0.026632 -0.008601
v 0.027374 0.025273 -0.060658
v 0.010486 0.030356 0.060990
v 0.033981 0.055306 0.037375
v 0.043878 0.064612 0.000525
v 0.016884 0.045602 -0.054986
v -0.003332 0.038775 0.073478
v 0.003658 0.072508 0.049308
v 0.007000 0.086240 0.009596
v -0.006447 0.054778 -0.048966
v -0.019460 0.037331 0.086386
v -0.033637 0.070368 0.060799
v -0.039152 0.084067 0.018764
v -0.032722 0.049708 -0.042780
v -0.032070 0.027658 0.098890
v -0.064357 0.048707 0.072690
v -0.077596 0.057591 0.028168
v -0.052327 0.031302 -0.036321
v -0.038124 0.011842 0.111305
v -0.077242 0.013307 0.085369
v -0.094220 0.013632 0.038184
v -0.057976 0.004681 -0.028955
v -0.026121 -0.055372 0.114514
v -0.030696 -0.071262 0.062239
v -0.013230 -0.038715 -0.012129
v 0.005585 -0.058353 0.124948
v 0.009321 -0.074620 0.070861
v 0.010801 -0.039076 -0.006004
v 0.044272 -0.041923 0.138741
v 0.056194 -0.055024 0.081870
v 0.001698 -0.002001 0.155143
v 0.067799 -0.012951 0.150651
v 0.086343 -0.019997 0.092177
v 0.047536 -0.008513 0.013263
v -0.017631 -0.049949 -0.039386
v -0.050055 -0.044693 0.106884
v -0.060044 -0.058406 0.055792
v -0.031942 -0.033459 -0.015446
v 0.008132 0.003635 -0.154489
v 0.001555 -0.000582 -0.155615
v -0.004199 0.000150 -0.157642
v -0.008326 0.003600 -0.160724
v -0.011007 0.010116 -0.165997
v -0.007421 0.010706 -0.171743
v -0.006765 0.016085 -0.168767
v -0.002823 0.016195 -0.170320
v 0.001223 0.013731 -0.170831
v 0.000551 0.010591 -0.154837
v -0.004726 0.010974 -0.173004
v -0.000392 0.007176 -0.154948
v -0.003137 0.005627 -0.155031
v 0.029277 0.000371 0.177979
v 0.063337 -0.011730 0.145159
v 0.081507 -0.016001 0.094485
v 0.064725 -0.013107 0.049816
v 0.043470 -0.011406 0.034366
v -0.007602 0.030180 0.099699
v -0.012894 0.021135 0.105584
v -0.018007 0.009556 0.107241
v -0.024284 -0.002525 0.133628
v 0.009278 0.000549 0.045922
v 0.005853 0.020826 0.067296
v 0.006644 0.013317 0.058775
v 0.001132 -0.011491 0.095317
v 0.019538 0.012920 -0.120073
v -0.019626 0.005671 -0.136280
v -0.019008 0.014138 -0.140285
v -0.015784 0.019721 -0.142623
v -0.009848 0.020873 -0.146191
v -0.004363 0.018212 -0.150618
v -0.000694 0.014237 -0.153091
v 0.041668 -0.041245 0.026381
v 0.064932 -0.015154 0.034804
v -0.025493 -0.021418 -0.082196
v -0.020443 -0.020829 -0.111174
v -0.047278 -0.022004 -0.019489
v -0.040589 -0.041088 -0.044243
v -0.068824 -0.026272 0.098324
v -0.082388 -0.034725 0.049028
v -0.013624 -0.005802 -0.128128
v -0.000541 0.010190 -0.172843
v -0.034202 -0.010806 0.127385
v -0.008453 -0.023060 0.144409
v 0.027391 -0.018350 0.159614
v 0.034499 -0.037786 0.055525
v 0.033302 -0.042672 0.108141
vt 0.530610 0.981860
vt 0.526301 0.981468
vt 0.526957 0.980169
vt 0.530960 0.979873
vt 0.525020 0.980763
vt 0.525219 0.980152
vt 0.527694 0.978670
vt 0.531068 0.977740
vt 0.525370 0.979223
vt 0.528048 0.976925
vt 0.530711 0.975522
vt 0.525607 0.978070
vt 0.527929 0.975239
vt 0.529947 0.973300
vt 0.525527 0.977004
vt 0.527076 0.973707
vt 0.528897 0.971112
vt 0.524944 0.976139
vt 0.525620 0.972167
vt 0.527485 0.968709
vt 0.524086 0.974989
vt 0.522813 0.969803
vt 0.525046 0.966185
vt 0.522557 0.973269
vt 0.522913 0.968016
vt 0.521311 0.967258
vt 0.523272 0.964654
vt 0.524921 0.965544
vt 0.521969 0.970624
vt 0.520870 0.970098
vt 0.519157 0.966486
vt 0.521164 0.963607
vt 0.519251 0.969610
vt 0.516509 0.965892
vt 0.518661 0.962662
vt 0.517569 0.969486
vt 0.538952 0.982818
vt 0.534711 0.982740
vt 0.534862 0.979333
vt 0.538854 0.979672
vt 0.534764 0.976395
vt 0.538481 0.976746
vt 0.534288 0.973641
vt 0.537801 0.973754
vt 0.533520 0.970838
vt 0.536965 0.970740
vt 0.532486 0.967983
vt 0.535999 0.967647
vt 0.530965 0.964831
vt 0.534827 0.964257
vt 0.528561 0.960608
vt 0.533357 0.960200
vt 0.525845 0.959655
vt 0.523407 0.958021
vt 0.521853 0.948493
vt 0.525449 0.950675
vt 0.526573 0.956107
vt 0.521513 0.951975
vt 0.519649 0.955721
vt 0.551274 0.975808
vt 0.550288 0.979822
vt 0.548189 0.976231
vt 0.550379 0.974123
vt 0.546646 0.982818
vt 0.545467 0.978204
vt 0.546974 0.973411
vt 0.550129 0.971684
vt 0.544578 0.974893
vt 0.546470 0.970833
vt 0.549746 0.969705
vt 0.543910 0.972002
vt 0.546328 0.968090
vt 0.549959 0.967798
vt 0.543417 0.968950
vt 0.546708 0.965107
vt 0.550964 0.966003
vt 0.543190 0.965652
vt 0.548070 0.961730
vt 0.552796 0.964369
vt 0.543285 0.961689
vt 0.543895 0.955390
vt 0.551263 0.957531
vt 0.536105 0.945621
vt 0.534173 0.950321
vt 0.531286 0.948059
vt 0.533669 0.943621
vt 0.529083 0.957949
vt 0.527640 0.944916
vt 0.531103 0.940201
vt 0.523892 0.941305
vt 0.529257 0.936345
vt 0.527877 0.961128
vt 0.531136 0.959315
vt 0.538362 0.947101
vt 0.536732 0.952192
vt 0.519230 0.973295
vt 0.518235 0.973374
vt 0.519005 0.974427
vt 0.519436 0.974315
vt 0.519946 0.973550
vt 0.519822 0.974343
vt 0.520395 0.974038
vt 0.521193 0.976539
vt 0.561483 0.965052
vt 0.559369 0.972958
vt 0.555535 0.970113
vt 0.556893 0.964303
vt 0.522561 0.979223
vt 0.523133 0.979978
vt 0.523247 0.980406
vt 0.523339 0.980808
vt 0.522949 0.981229
vt 0.520098 0.976565
vt 0.519622 0.976562
vt 0.520455 0.976423
vt 0.566948 0.972830
vt 0.562056 0.979625
vt 0.561843 0.978765
vt 0.565958 0.972772
vt 0.554226 0.980748
vt 0.555892 0.979706
vt 0.552756 0.978059
vt 0.552342 0.973842
vt 0.551410 0.968163
vt 0.552302 0.967645
vt 0.553803 0.966989
vt 0.551283 0.971340
vt 0.551720 0.972338
vt 0.556128 0.962434
vt 0.536997 0.940844
vt 0.533966 0.937664
vt 0.534839 0.934700
vt 0.537569 0.937993
vt 0.541181 0.948431
vt 0.522264 0.980208
vt 0.555731 0.975628
vt 0.522411 0.980709
vt 0.540323 0.942766
vt 0.566455 0.965932
vt 0.540212 0.941039
vn 0.9559 0.1562 -0.2486
vn 0.9666 0.0429 -0.2526
vn 0.4978 0.6073 -0.6192
vn 0.7763 0.5946 -0.2091
vn 0.1145 0.2924 -0.9494
vn 0.1199 0.2522 -0.9602
vn 0.0414 0.4731 -0.8800
vn 0.2371 0.8049 -0.5441
vn 0.3905 0.9021 -0.1837
vn -0.1136 0.5439 -0.8314
vn -0.2127 0.8441 -0.4922
vn -0.1519 0.9830 -0.1028
vn -0.3166 0.5017 -0.8050
vn -0.6590 0.6154 -0.4324
vn -0.7291 0.6798 -0.0793
vn -0.5335 0.2802 -0.7981
vn -0.8906 0.1090 -0.4415
vn -0.9836 0.1128 -0.1410
vn -0.6610 -0.0397 -0.7493
vn -0.7809 -0.4180 -0.4643
vn -0.8648 -0.4723 -0.1704
vn -0.5683 -0.3771 -0.7314
vn -0.4369 -0.8079 -0.3955
vn -0.5268 -0.8428 -0.1104
vn -0.2923 -0.6640 -0.6883
vn -0.0192 -0.9364 -0.3504
vn 0.4264 -0.8422 -0.3299
vn 0.3243 -0.9394 0.1112
vn -0.1156 -0.9933 0.0022
vn -0.0107 -0.7052 -0.7089
vn 0.3257 -0.6004 -0.7304
vn 0.8281 -0.4823 -0.2857
vn 0.7201 -0.6675 0.1894
vn 0.6232 -0.2896 -0.7264
vn 0.9679 0.1257 -0.2174
vn 0.9591 -0.1004 0.2646
vn 0.6990 0.2058 -0.6849
vn 0.7950 0.5655 -0.2196
vn 0.8843 0.4100 0.2233
vn 0.5583 0.5528 -0.6187
vn 0.3968 0.8903 -0.2233
vn 0.6119 0.7647 0.2019
vn 0.2616 0.7261 -0.6359
vn -0.1973 0.9612 -0.1930
vn 0.0472 0.9633 0.2642
vn -0.2426 0.7387 -0.6288
vn -0.6918 0.6998 -0.1782
vn -0.4670 0.8346 0.2922
vn -0.6121 0.4886 -0.6218
vn -0.9698 0.1883 -0.1549
vn -0.8422 0.4374 0.3153
vn -0.7930 0.0559 -0.6066
vn -0.9059 -0.3987 -0.1428
vn -0.9406 -0.1158 0.3190
vn -0.6964 -0.4280 -0.5761
vn -0.5787 -0.8104 -0.0911
vn -0.7425 -0.5821 0.3315
vn -0.3824 -0.7510 -0.5383
vn 0.1549 -0.9841 -0.0872
vn 0.2758 -0.8162 -0.5077
vn 0.6154 -0.6022 -0.5085
vn 0.5766 -0.8138 -0.0723
vn 0.7334 -0.5016 -0.4588
vn 0.5932 -0.6482 -0.4774
vn 0.2822 -0.8318 -0.4779
vn 0.6580 -0.3788 -0.6508
vn 0.8656 -0.1209 -0.4859
vn 0.9432 -0.3288 -0.0471
vn 0.6982 0.0806 0.7113
vn 0.8656 -0.0020 0.5008
vn 0.8597 -0.0072 0.5107
vn 0.6780 -0.2282 0.6988
vn 0.9723 0.2186 -0.0830
vn 0.8324 0.3103 -0.4590
vn 0.7474 0.3818 0.5437
vn 0.7520 0.0502 0.6573
vn 0.7537 0.6518 -0.0841
vn 0.5807 0.6423 -0.5003
vn 0.3737 0.7378 0.5621
vn 0.5102 0.6216 0.5944
vn 0.2125 0.9743 -0.0750
vn 0.0694 0.8725 -0.4837
vn -0.0907 0.8276 0.5539
vn 0.0729 0.7543 0.6525
vn -0.3473 0.9346 -0.0771
vn -0.4050 0.7798 -0.4774
vn -0.5255 0.6423 0.5580
vn -0.1590 0.5979 0.7857
vn -0.8044 0.5894 -0.0741
vn -0.7687 0.4281 -0.4752
vn -0.7873 0.2483 0.5644
vn -0.3502 0.4938 0.7960
vn -0.9971 0.0326 -0.0693
vn -0.8814 -0.0862 -0.4645
vn -0.8610 -0.5041 -0.0674
vn -0.7923 -0.2237 0.5676
vn -0.7063 -0.5454 -0.4513
vn -0.3903 -0.7271 0.5647
vn -0.2292 -0.9714 -0.0627
vn 0.1469 -0.9880 -0.0479
vn -0.0417 -0.8323 0.5527
vn -0.1062 -0.9022 -0.4181
vn 0.5857 -0.8100 -0.0286
vn 0.3245 -0.7630 0.5591
vn 0.7507 -0.6597 0.0355
vn 0.4810 -0.6743 0.5603
vn -0.1896 -0.9797 -0.0657
vn -0.0929 -0.9201 0.3805
vn -0.3934 -0.8379 0.3784
vn -0.0410 -0.8561 -0.5151
vn -0.6021 -0.5582 0.5709
vn -0.5518 -0.8315 -0.0643
vn -0.3984 -0.8069 -0.4361
vn 0.8304 -0.4919 -0.2617
vn 0.7861 -0.5600 -0.2616
vn 0.1094 0.1013 -0.9888
vn 0.0968 0.1015 -0.9901
vn 0.3743 -0.8874 -0.2690
vn 0.3084 -0.9115 -0.2720
vn 0.2370 0.1694 -0.9566
vn 0.3302 0.2050 -0.9214
vn -0.1155 -0.9500 -0.2901
vn -0.2149 -0.9311 -0.2947
vn 0.5314 0.2784 -0.8001
vn -0.5084 -0.8055 -0.3046
vn -0.6522 -0.6847 -0.3254
vn 0.2851 0.8884 -0.3599
vn 0.0880 0.9855 -0.1448
vn 0.7627 0.6245 0.1684
vn 0.6326 0.7741 0.0231
vn -0.9407 0.1224 -0.3164
vn -0.8827 -0.1396 -0.4488
vn -0.8470 -0.4350 -0.3054
vn -0.7463 0.5783 -0.3296
vn -0.4136 0.7713 -0.4838
vn -0.1999 0.9552 -0.2182
vn 0.3285 0.9396 -0.0962
vn 0.2228 0.8142 -0.5361
vn 0.8487 0.5286 0.0152
vn 0.9572 0.2886 0.0203
vn 0.8728 -0.4847 -0.0578
vn 0.7568 -0.6469 -0.0942
vn 0.4684 -0.8556 -0.2203
vn 0.4545 -0.8525 -0.2582
vn 0.4652 -0.8271 -0.3155
vn 0.4426 -0.8201 -0.3627
vn 0.3747 0.9271 0.0069
vn 0.5131 0.8560 -0.0626
vn 0.0974 0.9952 -0.0105
vn 0.1695 0.9726 -0.1589
vn 0.2294 0.9732 0.0159
vn 0.0415 0.9878 0.1500
vn 0.2708 0.8001 0.5352
vn 0.7652 0.2206 0.6048
vn 0.5584 0.5059 0.6574
vn -0.0313 0.6090 0.7926
vn -0.0552 0.5868 0.8078
vn 0.8611 -0.2931 0.4154
vn 0.8422 -0.2653 0.4694
vn 0.8394 -0.0901 0.5359
vn 0.8845 0.2020 0.4205
vn -0.5461 0.1196 0.8291
vn -0.5020 0.2941 0.8133
vn -0.4289 -0.3762 0.8213
vn -0.0722 -0.5838 0.8087
vn -0.0883 -0.5650 0.8204
vn -0.4862 -0.3361 0.8066
vn -0.6292 -0.6287 -0.4571
vn 0.2609 -0.8905 0.3728
vn -0.5846 0.4580 -0.6696
vn 0.1188 0.9051 0.4082
vn -0.1473 0.4870 -0.8609
vn 0.1303 0.4252 -0.8957
vn 0.1178 0.4457 -0.8874
vn 0.0713 0.8698 -0.4882
usemtl polybeach_atlas01
s 1
f 101/1/1 1/2/2 2/3/3 22/4/4
f 1/2/5 84/5/6 107/6/7 2/3/3
f 22/4/4 2/3/3 4/7/8 3/8/9
f 2/3/3 107/6/7 106/9/10 4/7/8
f 3/8/9 4/7/8 6/10/11 5/11/12
f 4/7/8 106/9/10 105/12/13 6/10/11
f 5/11/12 6/10/11 8/13/14 7/14/15
f 6/10/11 105/12/13 104/15/16 8/13/14
f 7/14/15 8/13/14 10/16/17 9/17/18
f 8/13/14 104/15/16 103/18/19 10/16/17
f 9/17/18 10/16/17 12/19/20 11/20/21
f 10/16/17 103/18/19 102/21/22 12/19/20
f 11/20/21 12/19/20 111/22/23 110/23/24
f 12/19/20 102/21/22 116/24/25 111/22/23
f 14/25/26 16/26/27 29/27/28 13/28/29
f 14/25/26 15/29/30 17/30/31 16/26/27
f 29/27/28 16/26/27 18/31/32 31/32/33
f 16/26/27 17/30/31 19/33/34 18/31/32
f 31/32/33 18/31/32 20/34/35 34/35/36
f 18/31/32 19/33/34 101/36/37 20/34/35
f 34/37/36 20/38/35 21/39/38 38/40/39
f 20/38/35 101/1/37 22/4/40 21/39/38
f 38/40/39 21/39/38 23/41/41 42/42/42
f 21/39/38 22/4/40 3/8/43 23/41/41
f 42/42/42 23/41/41 24/43/44 46/44/45
f 23/41/41 3/8/43 5/11/46 24/43/44
f 46/44/45 24/43/44 25/45/47 50/46/48
f 24/43/44 5/11/46 7/14/49 25/45/47
f 50/46/48 25/45/47 26/47/50 54/48/51
f 25/45/47 7/14/49 9/17/52 26/47/50
f 54/48/51 26/47/50 27/49/53 58/50/54
f 26/47/50 9/17/52 11/20/55 27/49/53
f 58/50/54 27/49/53 113/51/56 112/52/57
f 27/49/53 11/20/55 110/23/58 113/51/56
f 28/53/59 29/27/60 31/32/61 30/54/62
f 109/55/63 108/56/64 64/57/65 70/58/66
f 30/54/62 31/32/61 34/35/67 33/59/68
f 32/60/69 70/61/70 36/62/71 35/63/72
f 70/61/70 33/64/68 37/65/73 36/62/71
f 33/64/68 34/37/67 38/40/74 37/65/73
f 35/63/72 36/62/71 40/66/75 39/67/76
f 36/62/71 37/65/73 41/68/77 40/66/75
f 37/65/73 38/40/74 42/42/78 41/68/77
f 39/67/76 40/66/75 44/69/79 43/70/80
f 40/66/75 41/68/77 45/71/81 44/69/79
f 41/68/77 42/42/78 46/44/82 45/71/81
f 43/70/80 44/69/79 48/72/83 47/73/84
f 44/69/79 45/71/81 49/74/85 48/72/83
f 45/71/81 46/44/82 50/46/86 49/74/85
f 47/73/84 48/72/83 52/75/87 51/76/88
f 48/72/83 49/74/85 53/77/89 52/75/87
f 49/74/85 50/46/86 54/48/90 53/77/89
f 51/76/88 52/75/87 56/78/91 55/79/92
f 52/75/87 53/77/89 57/80/93 56/78/91
f 53/77/89 54/48/90 58/50/94 57/80/93
f 56/78/91 57/80/93 115/81/95 114/82/96
f 57/80/93 58/50/94 112/52/97 115/81/95
f 59/83/98 60/84/99 63/85/100 62/86/101
f 60/84/99 61/87/102 64/57/65 63/85/100
f 62/86/101 63/85/100 66/88/103 65/89/104
f 63/85/100 64/57/65 108/56/64 66/88/103
f 65/89/104 66/88/103 69/90/105 68/91/106
f 66/88/103 108/56/64 109/55/63 69/90/105
f 71/92/107 28/53/59 61/87/108 74/93/109
f 29/27/60 28/53/59 71/92/107 13/28/110
f 60/84/99 59/83/98 72/94/111 73/95/112
f 61/87/102 60/84/99 73/95/112 74/93/113
f 101/36/1 19/33/114 75/96/115 1/97/2
f 84/98/6 1/97/5 75/96/116 86/99/117
f 17/30/118 76/100/119 75/96/115 19/33/114
f 86/99/117 75/96/116 76/100/120 87/101/121
f 15/29/122 77/102/123 76/100/119 17/30/118
f 87/101/121 76/100/120 77/102/124 78/103/124
f 116/24/125 78/103/126 77/102/123 15/29/122
f 67/104/127 122/105/128 100/106/129 96/107/130
f 103/18/131 79/108/132 102/21/133
f 104/15/134 81/109/135 79/108/132 103/18/131
f 105/12/136 81/109/135 104/15/134
f 106/9/137 82/110/138 81/109/135 105/12/136
f 107/6/139 83/111/140 82/110/138 106/9/137
f 84/5/141 117/112/142 83/111/140 107/6/139
f 86/99/143 85/113/144 117/114/142 84/98/141
f 87/101/145 85/113/144 86/99/143
f 78/103/146 80/115/146 85/113/144 87/101/145
f 68/116/147 69/117/148 90/118/149 89/119/150
f 69/117/148 109/120/151 91/121/152 90/118/149
f 92/122/153 91/121/152 109/120/151 70/61/70
f 70/61/70 32/60/69 97/123/154 92/122/153
f 47/73/84 93/124/155 43/70/80
f 51/76/88 94/125/156 93/124/155 47/73/84
f 95/126/157 94/125/156 51/76/88 55/79/92
f 39/67/76 93/124/155 94/125/158 98/127/159
f 32/60/69 35/63/72 99/128/160 97/123/154
f 35/63/72 39/67/76 98/127/159 99/128/160
f 94/125/158 95/126/161 99/128/160 98/127/159
f 95/126/161 100/106/129 97/123/154 99/128/160
f 55/79/92 118/129/162 96/107/163 95/126/157
f 119/130/164 120/131/165 88/132/166 67/133/167
f 100/106/129 95/126/161 96/107/130
f 14/25/26 13/28/29 110/23/24 111/22/23
f 15/29/30 14/25/26 111/22/23 116/24/25
f 71/92/107 74/93/109 112/52/57 113/51/56
f 13/28/110 71/92/107 113/51/56 110/23/58
f 43/70/80 93/124/155 39/67/76
f 73/95/112 72/94/111 114/134/96 115/81/95
f 74/93/113 73/95/112 115/81/95 112/52/97
f 102/21/133 79/108/132 78/103/126 116/24/125
f 78/103/126 79/108/132 80/135/168
f 64/57/169 30/54/62 33/59/68 70/58/70
f 64/57/169 61/87/108 28/53/59 30/54/62
f 79/108/132 81/109/135 80/135/170
f 122/105/128 121/136/171 97/123/154 100/106/129
f 80/135/170 81/109/135 82/110/138 85/137/172
f 85/137/172 82/110/138 83/111/173
f 85/137/172 83/111/173 117/112/174
f 92/122/153 97/123/154 121/136/171
f 55/79/92 56/78/91 114/82/96 118/129/162
f 118/138/162 114/134/96 72/94/111
f 118/138/162 72/94/111 59/83/98 119/130/164
f 119/130/164 59/83/98 62/86/101
f 119/130/164 62/86/101 65/89/104 120/131/165
f 120/131/165 65/89/104 68/91/106 88/132/166
f 88/139/175 68/116/147 89/119/150
f 118/138/162 119/130/164 67/133/167 96/140/163
f 89/119/150 90/118/149 121/136/171 122/105/128
f 90/118/149 91/121/152 121/136/171
f 88/139/175 89/119/150 122/105/128 67/104/127
f 91/121/152 92/122/153 121/136/171
