# Blender v2.79 (sub 0) OBJ File: 'PolyBeach_v1.1_.blend'
# www.blender.org
mtllib palmleaf_m.mtl
o PalmLeaf_Plane.021
v 0.052641 0.200245 -2.313441
v -0.055161 0.200245 -2.333515
v 0.098966 0.295127 -2.021953
v 0.272234 0.346577 -1.766926
v 0.393796 0.345246 -1.445020
v 0.349537 0.322714 -1.082726
v 0.231862 0.258215 -0.725267
v -0.231862 0.258215 -0.725267
v -0.349537 0.322714 -1.082727
v -0.393796 0.345245 -1.445020
v -0.263360 0.295739 -1.738327
v -0.116016 0.295127 -2.040393
v -0.000000 0.348396 -2.018900
v -0.000000 0.410452 -1.807313
v -0.000000 0.453367 -1.445020
v -0.000000 0.406637 -1.065708
v 0.000000 0.320352 -0.725267
v -0.000000 -0.016345 -2.804549
v 0.337265 0.088327 -0.786216
v -0.252310 0.058576 -2.445560
v 0.222074 0.058576 -2.458943
v 0.390822 0.154396 -2.273142
v 0.443044 0.197912 -1.867053
v 0.443044 0.197912 -1.504760
v 0.452824 0.154396 -1.144884
v -0.337265 0.088327 -0.786216
v -0.452824 0.154396 -1.144884
v -0.443044 0.197912 -1.504760
v -0.443044 0.197911 -1.867053
v -0.371838 0.154396 -2.261239
v 0.000000 0.255638 -0.545329
v 0.024123 0.177938 -0.418652
v 0.000000 0.211856 -0.423593
v -0.024123 0.177938 -0.418652
v -0.000000 0.252879 -2.344923
v -0.033588 -0.015742 0.002293
v 0.033588 -0.015742 0.002293
v 0.000000 0.031484 -0.004586
v -0.024123 0.083316 -0.208503
v 0.000000 0.117234 -0.213444
v 0.024123 0.083316 -0.208503
vt 0.442138 0.943479
vt 0.443121 0.943422
vt 0.443727 0.948106
vt 0.442371 0.948226
vt 0.442044 0.938762
vt 0.443014 0.938742
vt 0.441102 0.906422
vt 0.442595 0.900468
vt 0.446546 0.898047
vt 0.446094 0.931845
vt 0.441233 0.935768
vt 0.441162 0.931420
vt 0.447979 0.924165
vt 0.451784 0.924717
vt 0.440987 0.910222
vt 0.443299 0.905885
vt 0.448145 0.901694
vt 0.439166 0.906066
vt 0.440917 0.916618
vt 0.436104 0.910648
vt 0.441041 0.924018
vt 0.433689 0.916667
vt 0.434113 0.924393
vt 0.436573 0.897522
vt 0.439899 0.900700
vt 0.441275 0.938376
vt 0.450009 0.932849
vt 0.441282 0.900602
vt 0.441506 0.891487
vt 0.446026 0.911139
vt 0.449522 0.908662
vt 0.448151 0.916426
vt 0.451051 0.916859
vt 0.433902 0.901185
vt 0.432065 0.908967
vt 0.430805 0.917195
vt 0.430329 0.925068
vt 0.436248 0.932005
vt 0.432369 0.933136
vt 0.441358 0.943113
vt 0.441314 0.947722
vt 0.440520 0.938787
vt 0.441197 0.948887
vt 0.440585 0.943484
vt 0.440232 0.948205
vn 0.0000 -0.9050 -0.4253
vn 0.0000 -0.9118 -0.4106
vn -0.3852 0.8732 -0.2984
vn -0.5792 0.7526 -0.3132
vn -0.3946 0.8516 -0.3451
vn -0.2589 0.9659 0.0067
vn -0.2445 0.9124 0.3282
vn -0.2541 0.9480 0.1914
vn -0.7031 0.1771 0.6887
vn -0.4012 0.9015 -0.1621
vn -0.2692 0.8943 -0.3573
vn -0.3736 0.9048 -0.2044
vn 0.2633 0.9397 -0.2184
vn 0.2531 0.8857 -0.3891
vn 0.4701 0.8374 -0.2790
vn 0.2430 0.9633 -0.1141
vn 0.2542 0.9403 -0.2264
vn 0.2629 0.9576 0.1180
vn 0.2609 0.9501 -0.1711
vn 0.2647 0.9642 -0.0141
vn 0.2377 0.9416 0.2386
vn 0.2279 0.9688 -0.0971
vn 0.2367 0.9670 0.0938
vn 0.4158 0.8417 -0.3445
vn 0.6066 0.7327 -0.3084
vn -0.6927 0.6384 0.3356
vn -0.5781 0.7678 0.2761
vn -0.6106 0.7238 0.3213
vn -0.6925 0.6651 -0.2794
vn -0.6802 0.6325 -0.3705
vn -0.3077 0.9507 -0.0398
vn -0.4145 0.9009 -0.1287
vn -0.2795 0.9228 -0.2652
vn -0.6872 -0.0638 0.7237
vn 0.1996 0.9197 -0.3381
vn 0.7227 0.5392 0.4323
vn 0.6872 -0.0638 0.7237
vn 0.7031 0.1771 0.6887
vn -0.2609 0.9501 -0.1711
vn -0.2629 0.9576 0.1180
vn -0.2367 0.9670 0.0938
vn -0.2279 0.9688 -0.0971
vn -0.2377 0.9416 0.2386
vn 0.7588 0.5620 -0.3292
vn 0.7563 0.5988 -0.2635
vn 0.2589 0.9659 0.0067
vn 0.2575 0.9609 -0.1021
vn 0.2541 0.9481 0.1914
vn 0.2163 0.9482 -0.2325
vn 0.2532 0.9222 -0.2924
vn 0.6096 0.0959 0.7869
vn 0.2445 0.9124 0.3282
vn -0.6096 0.0959 0.7869
vn -0.2163 0.9482 -0.2325
vn -0.2575 0.9609 -0.1021
vn -0.7701 0.5848 0.2549
vn -0.7719 0.5852 0.2484
vn -0.7741 0.5856 0.2404
vn 0.6106 0.7238 0.3213
vn 0.5781 0.7678 0.2761
vn 0.6927 0.6384 0.3356
vn -0.7346 0.5749 0.3603
vn 0.7346 0.5749 0.3603
vn 0.0000 0.1442 0.9896
vn 0.7719 0.5852 0.2484
vn 0.7701 0.5848 0.2549
vn 0.7741 0.5856 0.2404
usemtl polybeach_atlas01
s off
f 39/1/1 41/2/1 37/3/1 36/4/1
f 34/5/2 32/6/2 41/2/2 39/1/2
s 1
f 13/7/3 2/8/4 20/9/5
f 8/10/6 31/11/7 17/12/8
f 17/12/9 9/13/9 27/14/9
f 14/15/10 12/16/11 30/17/12
f 14/15/13 3/18/14 13/7/15
f 15/19/16 4/20/17 14/15/13
f 16/21/18 5/22/19 15/19/20
f 17/12/21 6/23/22 16/21/23
f 21/24/24 1/25/25 13/7/15
f 33/26/26 31/11/27 26/27/28
f 35/28/29 18/29/30 2/8/4
f 15/19/31 11/30/32 29/31/33
f 16/21/34 10/32/34 28/33/34
f 14/15/13 22/34/35 3/18/14
f 15/19/36 23/35/36 4/20/36
f 16/21/37 24/36/37 5/22/37
f 17/12/38 25/37/38 6/23/38
f 13/7/3 12/16/11 14/15/10
f 14/15/10 11/30/32 15/19/31
f 15/19/31 10/32/39 16/21/40
f 16/21/41 9/13/42 17/12/43
f 1/25/25 18/29/44 35/28/45
f 7/38/46 25/37/47 17/12/48
f 6/23/22 24/36/49 16/21/23
f 5/22/19 23/35/50 15/19/20
f 7/38/51 31/11/51 19/39/51
f 17/12/48 31/11/52 7/38/46
f 26/27/53 31/11/53 8/10/53
f 4/20/17 22/34/35 14/15/13
f 12/16/11 13/7/3 20/9/5
f 3/18/14 21/24/24 13/7/15
f 10/32/39 15/19/31 29/31/33
f 9/13/42 16/21/41 28/33/54
f 8/10/6 17/12/8 27/14/55
f 40/40/56 39/1/57 36/4/58 38/41/58
f 19/39/59 31/11/60 33/26/61
f 11/30/32 14/15/10 30/17/12
f 13/7/3 35/28/29 2/8/4
f 13/7/15 1/25/25 35/28/45
f 34/5/62 33/26/26 26/27/28
f 32/42/63 19/39/59 33/26/61
f 37/43/64 38/41/64 36/4/64
f 41/44/65 40/40/66 38/41/67 37/45/67
f 32/42/63 33/26/61 40/40/66 41/44/65
f 33/26/26 34/5/62 39/1/57 40/40/56
